<?xml version="1.0"?>
<svg width="1536" height="2048"
     xmlns="http://www.w3.org/2000/svg"
     shape-rendering="crispEdges">
<polygon points="757,995 804,948 759,953" style="fill:rgb(140,77,69)"/>
<polygon points="804,948 792,917 759,953" style="fill:rgb(116,75,51)"/>
<polygon points="757,995 811,1039 804,948" style="fill:rgb(239,85,201)"/>
<polygon points="811,1039 878,952 804,948" style="fill:rgb(248,95,206)"/>
<polygon points="804,948 831,878 792,917" style="fill:rgb(149,70,75)"/>
<polygon points="878,952 831,878 804,948" style="fill:rgb(242,79,194)"/>
<polygon points="792,917 712,894 759,953" style="fill:rgb(200,162,126)"/>
<polygon points="759,953 605,1000 757,995" style="fill:rgb(205,157,114)"/>
<polygon points="728,845 712,894 792,917" style="fill:rgb(141,117,106)"/>
<polygon points="675,1088 712,1092 757,995" style="fill:rgb(188,108,212)"/>
<polygon points="757,995 712,1092 811,1039" style="fill:rgb(202,95,219)"/>
<polygon points="985,1058 910,1033 702,1186" style="fill:rgb(222,177,126)"/>
<polygon points="811,1039 910,1033 878,952" style="fill:rgb(235,191,153)"/>
<polygon points="910,1033 920,943 878,952" style="fill:rgb(229,188,144)"/>
<polygon points="878,952 897,837 831,878" style="fill:rgb(209,101,229)"/>
<polygon points="855,836 822,840 831,878" style="fill:rgb(230,85,172)"/>
<polygon points="831,878 822,840 792,917" style="fill:rgb(104,50,40)"/>
<polygon points="822,840 728,845 792,917" style="fill:rgb(122,97,83)"/>
<polygon points="897,837 855,836 831,878" style="fill:rgb(176,77,208)"/>
<polygon points="822,840 787,749 728,845" style="fill:rgb(198,153,112)"/>
<polygon points="605,1000 675,1088 757,995" style="fill:rgb(205,160,123)"/>
<polygon points="910,1033 957,982 920,943" style="fill:rgb(213,170,123)"/>
<polygon points="920,943 897,837 878,952" style="fill:rgb(221,166,136)"/>
<polygon points="996,843 897,837 920,943" style="fill:rgb(202,162,126)"/>
<polygon points="580,860 605,1000 712,894" style="fill:rgb(202,158,118)"/>
<polygon points="712,894 605,1000 759,953" style="fill:rgb(213,167,123)"/>
<polygon points="570,1155 676,1135 675,1088" style="fill:rgb(119,98,102)"/>
<polygon points="675,1088 676,1135 712,1092" style="fill:rgb(131,101,116)"/>
<polygon points="712,1092 702,1186 811,1039" style="fill:rgb(225,177,134)"/>
<polygon points="605,1000 592,1045 675,1088" style="fill:rgb(177,147,126)"/>
<polygon points="702,1186 910,1033 811,1039" style="fill:rgb(234,194,149)"/>
<polygon points="910,1033 985,1058 957,982" style="fill:rgb(225,186,137)"/>
<polygon points="869,736 806,757 855,836" style="fill:rgb(226,90,213)"/>
<polygon points="855,836 806,757 822,840" style="fill:rgb(205,80,160)"/>
<polygon points="985,1058 993,1050 957,982" style="fill:rgb(170,139,103)"/>
<polygon points="957,982 996,843 920,943" style="fill:rgb(160,152,142)"/>
<polygon points="599,1216 702,1186 676,1135" style="fill:rgb(213,171,140)"/>
<polygon points="676,1135 702,1186 712,1092" style="fill:rgb(217,178,134)"/>
<polygon points="806,757 787,749 822,840" style="fill:rgb(134,80,88)"/>
<polygon points="728,845 580,860 712,894" style="fill:rgb(192,144,102)"/>
<polygon points="564,821 580,860 596,783" style="fill:rgb(150,105,68)"/>
<polygon points="605,1000 525,1026 592,1045" style="fill:rgb(208,153,128)"/>
<polygon points="1142,906 996,843 957,982" style="fill:rgb(149,154,154)"/>
<polygon points="897,837 869,736 855,836" style="fill:rgb(175,103,227)"/>
<polygon points="981,777 869,736 897,837" style="fill:rgb(223,180,142)"/>
<polygon points="806,757 792,656 787,749" style="fill:rgb(228,93,206)"/>
<polygon points="507,973 525,1026 605,1000" style="fill:rgb(178,133,107)"/>
<polygon points="592,1045 570,1155 675,1088" style="fill:rgb(186,163,149)"/>
<polygon points="525,1026 536,1075 592,1045" style="fill:rgb(206,158,138)"/>
<polygon points="735,694 731,713 787,749" style="fill:rgb(203,123,112)"/>
<polygon points="787,749 731,713 728,845" style="fill:rgb(216,166,119)"/>
<polygon points="596,783 580,860 728,845" style="fill:rgb(200,150,106)"/>
<polygon points="580,860 507,973 605,1000" style="fill:rgb(202,176,148)"/>
<polygon points="731,713 596,783 728,845" style="fill:rgb(208,158,110)"/>
<polygon points="502,847 507,973 580,860" style="fill:rgb(159,109,66)"/>
<polygon points="483,1082 521,1100 536,1075" style="fill:rgb(131,121,117)"/>
<polygon points="981,777 881,714 869,736" style="fill:rgb(200,161,121)"/>
<polygon points="869,736 792,656 806,757" style="fill:rgb(198,99,223)"/>
<polygon points="985,1058 1036,1095 993,1050" style="fill:rgb(180,139,98)"/>
<polygon points="993,1050 1100,1025 957,982" style="fill:rgb(67,59,47)"/>
<polygon points="1005,1381 1036,1095 985,1058" style="fill:rgb(207,166,121)"/>
<polygon points="996,843 981,777 897,837" style="fill:rgb(227,190,165)"/>
<polygon points="536,1075 570,1155 592,1045" style="fill:rgb(141,113,108)"/>
<polygon points="792,656 735,694 787,749" style="fill:rgb(241,80,181)"/>
<polygon points="731,713 610,699 596,783" style="fill:rgb(214,163,115)"/>
<polygon points="483,1082 536,1075 525,1026" style="fill:rgb(120,97,84)"/>
<polygon points="536,1075 521,1100 570,1155" style="fill:rgb(123,96,98)"/>
<polygon points="553,1200 599,1216 570,1155" style="fill:rgb(189,170,159)"/>
<polygon points="570,1155 599,1216 676,1135" style="fill:rgb(165,136,127)"/>
<polygon points="702,1186 1005,1381 985,1058" style="fill:rgb(229,188,141)"/>
<polygon points="476,823 502,847 564,821" style="fill:rgb(125,84,57)"/>
<polygon points="564,821 502,847 580,860" style="fill:rgb(165,117,77)"/>
<polygon points="1036,1095 1080,1074 993,1050" style="fill:rgb(139,102,65)"/>
<polygon points="996,843 1100,736 981,777" style="fill:rgb(131,129,126)"/>
<polygon points="599,1216 646,1258 702,1186" style="fill:rgb(213,176,135)"/>
<polygon points="795,646 792,656 881,714" style="fill:rgb(184,141,107)"/>
<polygon points="881,714 792,656 869,736" style="fill:rgb(203,156,149)"/>
<polygon points="640,679 610,699 731,713" style="fill:rgb(198,135,101)"/>
<polygon points="444,1019 483,1082 525,1026" style="fill:rgb(160,133,108)"/>
<polygon points="491,1169 553,1200 570,1155" style="fill:rgb(156,137,137)"/>
<polygon points="444,1019 525,1026 507,973" style="fill:rgb(147,112,82)"/>
<polygon points="1080,1074 1100,1025 993,1050" style="fill:rgb(58,49,35)"/>
<polygon points="496,1126 570,1155 521,1100" style="fill:rgb(156,116,121)"/>
<polygon points="599,1216 613,1323 646,1258" style="fill:rgb(173,124,97)"/>
<polygon points="483,1082 496,1126 521,1100" style="fill:rgb(209,202,196)"/>
<polygon points="640,679 731,713 735,694" style="fill:rgb(184,94,99)"/>
<polygon points="513,746 476,823 564,821" style="fill:rgb(81,51,41)"/>
<polygon points="887,573 795,646 881,714" style="fill:rgb(99,90,80)"/>
<polygon points="792,656 745,636 735,694" style="fill:rgb(248,91,198)"/>
<polygon points="745,636 640,679 735,694" style="fill:rgb(247,79,190)"/>
<polygon points="502,847 457,920 507,973" style="fill:rgb(163,113,70)"/>
<polygon points="795,646 745,636 792,656" style="fill:rgb(218,106,144)"/>
<polygon points="457,920 444,1019 507,973" style="fill:rgb(156,107,74)"/>
<polygon points="483,1082 464,1144 496,1126" style="fill:rgb(93,68,58)"/>
<polygon points="513,746 564,821 596,783" style="fill:rgb(97,70,56)"/>
<polygon points="502,847 476,823 457,920" style="fill:rgb(109,65,71)"/>
<polygon points="640,679 593,685 610,699" style="fill:rgb(160,72,139)"/>
<polygon points="610,699 513,746 596,783" style="fill:rgb(173,121,87)"/>
<polygon points="580,628 593,685 640,679" style="fill:rgb(220,88,222)"/>
<polygon points="444,1019 448,1074 483,1082" style="fill:rgb(91,70,48)"/>
<polygon points="496,1126 491,1169 570,1155" style="fill:rgb(117,93,91)"/>
<polygon points="1224,1047 1135,982 1100,1025" style="fill:rgb(74,72,65)"/>
<polygon points="1100,1025 1135,982 957,982" style="fill:rgb(94,94,90)"/>
<polygon points="464,1144 491,1169 496,1126" style="fill:rgb(110,91,83)"/>
<polygon points="553,1200 536,1231 599,1216" style="fill:rgb(149,95,62)"/>
<polygon points="593,685 513,746 610,699" style="fill:rgb(120,60,72)"/>
<polygon points="491,1169 536,1231 553,1200" style="fill:rgb(209,183,154)"/>
<polygon points="795,646 738,620 745,636" style="fill:rgb(175,103,99)"/>
<polygon points="745,636 658,608 640,679" style="fill:rgb(247,85,191)"/>
<polygon points="513,746 465,812 476,823" style="fill:rgb(146,58,173)"/>
<polygon points="476,823 401,850 457,920" style="fill:rgb(153,83,213)"/>
<polygon points="457,920 415,938 444,1019" style="fill:rgb(164,85,126)"/>
<polygon points="448,1074 464,1144 483,1082" style="fill:rgb(96,76,45)"/>
<polygon points="491,1169 422,1244 536,1231" style="fill:rgb(218,183,143)"/>
<polygon points="1135,982 1142,906 957,982" style="fill:rgb(132,137,137)"/>
<polygon points="401,850 415,938 457,920" style="fill:rgb(186,86,188)"/>
<polygon points="392,1113 429,1154 448,1074" style="fill:rgb(246,226,108)"/>
<polygon points="448,1074 429,1154 464,1144" style="fill:rgb(236,216,112)"/>
<polygon points="364,959 408,948 415,938" style="fill:rgb(93,76,40)"/>
<polygon points="415,938 408,948 444,1019" style="fill:rgb(183,136,74)"/>
<polygon points="536,1231 613,1323 599,1216" style="fill:rgb(130,90,74)"/>
<polygon points="821,1509 1005,1381 702,1186" style="fill:rgb(232,194,153)"/>
<polygon points="1036,1095 1195,1147 1080,1074" style="fill:rgb(154,115,74)"/>
<polygon points="738,620 658,608 745,636" style="fill:rgb(211,89,139)"/>
<polygon points="593,685 482,675 513,746" style="fill:rgb(240,92,203)"/>
<polygon points="1142,906 1100,736 996,843" style="fill:rgb(145,148,147)"/>
<polygon points="1077,576 887,573 881,714" style="fill:rgb(101,98,93)"/>
<polygon points="795,646 853,502 738,620" style="fill:rgb(73,64,53)"/>
<polygon points="413,1152 429,1154 392,1113" style="fill:rgb(155,132,80)"/>
<polygon points="464,1144 429,1154 491,1169" style="fill:rgb(230,217,137)"/>
<polygon points="536,1231 559,1332 613,1323" style="fill:rgb(145,81,54)"/>
<polygon points="658,608 580,628 640,679" style="fill:rgb(240,85,182)"/>
<polygon points="435,765 401,850 465,812" style="fill:rgb(224,93,215)"/>
<polygon points="435,765 465,812 513,746" style="fill:rgb(231,88,227)"/>
<polygon points="465,812 401,850 476,823" style="fill:rgb(169,90,235)"/>
<polygon points="423,759 435,765 482,675" style="fill:rgb(189,81,145)"/>
<polygon points="392,1113 448,1074 364,1072" style="fill:rgb(245,226,113)"/>
<polygon points="429,1154 422,1244 491,1169" style="fill:rgb(212,176,130)"/>
<polygon points="448,1074 444,1019 364,1072" style="fill:rgb(238,193,84)"/>
<polygon points="1077,576 881,714 981,777" style="fill:rgb(121,119,114)"/>
<polygon points="738,620 706,464 658,608" style="fill:rgb(55,44,34)"/>
<polygon points="364,959 444,1019 408,948" style="fill:rgb(209,169,76)"/>
<polygon points="349,887 364,959 415,938" style="fill:rgb(51,40,26)"/>
<polygon points="435,765 423,759 401,850" style="fill:rgb(186,87,154)"/>
<polygon points="401,850 349,887 415,938" style="fill:rgb(68,50,45)"/>
<polygon points="482,675 435,765 513,746" style="fill:rgb(246,92,209)"/>
<polygon points="658,608 564,616 580,628" style="fill:rgb(138,72,88)"/>
<polygon points="580,628 482,675 593,685" style="fill:rgb(197,91,208)"/>
<polygon points="461,591 564,616 538,536" style="fill:rgb(57,47,35)"/>
<polygon points="422,1244 559,1332 536,1231" style="fill:rgb(218,181,140)"/>
<polygon points="564,616 482,675 580,628" style="fill:rgb(137,80,95)"/>
<polygon points="559,1332 597,1363 613,1323" style="fill:rgb(184,160,70)"/>
<polygon points="821,1509 702,1186 646,1258" style="fill:rgb(225,192,153)"/>
<polygon points="364,959 364,1072 444,1019" style="fill:rgb(234,203,95)"/>
<polygon points="372,1242 422,1244 413,1152" style="fill:rgb(140,100,62)"/>
<polygon points="423,759 349,887 401,850" style="fill:rgb(69,51,44)"/>
<polygon points="364,959 317,939 364,1072" style="fill:rgb(91,83,72)"/>
<polygon points="1208,1212 1195,1147 1036,1095" style="fill:rgb(179,135,92)"/>
<polygon points="1080,1074 1224,1047 1100,1025" style="fill:rgb(59,54,44)"/>
<polygon points="1135,982 1254,881 1142,906" style="fill:rgb(129,132,131)"/>
<polygon points="1195,1147 1224,1047 1080,1074" style="fill:rgb(51,42,29)"/>
<polygon points="1142,906 1245,773 1100,736" style="fill:rgb(141,143,142)"/>
<polygon points="372,1242 413,1152 329,1191" style="fill:rgb(39,32,25)"/>
<polygon points="413,1152 422,1244 429,1154" style="fill:rgb(174,131,87)"/>
<polygon points="559,1332 583,1414 597,1363" style="fill:rgb(202,172,127)"/>
<polygon points="821,1509 646,1258 613,1323" style="fill:rgb(223,190,152)"/>
<polygon points="182,982 317,939 145,745" style="fill:rgb(116,110,104)"/>
<polygon points="349,887 317,939 364,959" style="fill:rgb(76,68,59)"/>
<polygon points="329,1191 413,1152 392,1113" style="fill:rgb(85,83,77)"/>
<polygon points="1041,527 853,502 887,573" style="fill:rgb(66,64,61)"/>
<polygon points="887,573 853,502 795,646" style="fill:rgb(78,73,66)"/>
<polygon points="1285,915 1254,881 1135,982" style="fill:rgb(111,111,106)"/>
<polygon points="1100,736 1077,576 981,777" style="fill:rgb(125,125,122)"/>
<polygon points="502,1404 583,1414 559,1332" style="fill:rgb(222,210,195)"/>
<polygon points="597,1363 821,1509 613,1323" style="fill:rgb(225,192,153)"/>
<polygon points="1132,1366 1208,1212 1036,1095" style="fill:rgb(204,159,113)"/>
<polygon points="1195,1147 1250,1209 1224,1047" style="fill:rgb(56,48,36)"/>
<polygon points="1285,915 1263,855 1254,881" style="fill:rgb(124,124,119)"/>
<polygon points="329,1191 392,1113 364,1072" style="fill:rgb(135,138,136)"/>
<polygon points="425,1368 502,1404 559,1332" style="fill:rgb(216,179,139)"/>
<polygon points="1285,915 1135,982 1224,1047" style="fill:rgb(80,77,69)"/>
<polygon points="1254,881 1263,855 1142,906" style="fill:rgb(134,137,135)"/>
<polygon points="1245,773 1077,576 1100,736" style="fill:rgb(135,136,133)"/>
<polygon points="538,536 564,616 658,608" style="fill:rgb(56,46,34)"/>
<polygon points="564,616 461,591 482,675" style="fill:rgb(77,62,46)"/>
<polygon points="482,675 281,626 423,759" style="fill:rgb(76,63,51)"/>
<polygon points="145,745 317,939 349,887" style="fill:rgb(101,94,87)"/>
<polygon points="1263,855 1245,773 1142,906" style="fill:rgb(158,162,161)"/>
<polygon points="706,464 538,536 658,608" style="fill:rgb(42,35,24)"/>
<polygon points="215,1207 329,1191 155,1107" style="fill:rgb(159,160,158)"/>
<polygon points="1387,983 1285,915 1224,1047" style="fill:rgb(60,53,43)"/>
<polygon points="1414,791 1348,668 1245,773" style="fill:rgb(155,158,157)"/>
<polygon points="559,1332 422,1244 425,1368" style="fill:rgb(220,178,133)"/>
<polygon points="487,1414 502,1404 425,1368" style="fill:rgb(215,186,151)"/>
<polygon points="1090,532 1041,527 1077,576" style="fill:rgb(86,85,83)"/>
<polygon points="1077,576 1041,527 887,573" style="fill:rgb(83,80,76)"/>
<polygon points="734,429 706,464 853,502" style="fill:rgb(108,108,107)"/>
<polygon points="853,502 706,464 738,620" style="fill:rgb(55,50,42)"/>
<polygon points="1330,1335 1250,1209 1208,1212" style="fill:rgb(163,125,83)"/>
<polygon points="1208,1212 1250,1209 1195,1147" style="fill:rgb(155,116,75)"/>
<polygon points="1005,1381 1132,1366 1036,1095" style="fill:rgb(217,176,133)"/>
<polygon points="425,1368 422,1244 358,1358" style="fill:rgb(199,153,105)"/>
<polygon points="502,1404 584,1515 583,1414" style="fill:rgb(227,221,211)"/>
<polygon points="358,1358 422,1244 372,1242" style="fill:rgb(167,123,82)"/>
<polygon points="584,1515 821,1509 583,1414" style="fill:rgb(236,236,236)"/>
<polygon points="583,1414 821,1509 597,1363" style="fill:rgb(231,204,173)"/>
<polygon points="1005,1381 1085,1523 1132,1366" style="fill:rgb(223,186,145)"/>
<polygon points="1179,492 1090,532 1077,576" style="fill:rgb(97,94,89)"/>
<polygon points="937,404 734,429 853,502" style="fill:rgb(129,129,128)"/>
<polygon points="937,404 853,502 1041,527" style="fill:rgb(130,131,129)"/>
<polygon points="538,393 480,511 538,536" style="fill:rgb(53,49,40)"/>
<polygon points="260,1277 311,1257 215,1207" style="fill:rgb(114,112,110)"/>
<polygon points="329,1191 311,1257 372,1242" style="fill:rgb(64,61,55)"/>
<polygon points="1090,532 1046,490 1041,527" style="fill:rgb(143,148,149)"/>
<polygon points="611,424 538,536 706,464" style="fill:rgb(25,21,14)"/>
<polygon points="538,536 480,511 461,591" style="fill:rgb(41,33,22)"/>
<polygon points="281,626 349,887 423,759" style="fill:rgb(71,60,47)"/>
<polygon points="425,1368 449,1463 487,1414" style="fill:rgb(226,205,177)"/>
<polygon points="311,1257 358,1358 372,1242" style="fill:rgb(104,101,94)"/>
<polygon points="545,1542 584,1515 487,1414" style="fill:rgb(176,135,95)"/>
<polygon points="487,1414 584,1515 502,1404" style="fill:rgb(202,167,131)"/>
<polygon points="540,320 661,412 557,280" style="fill:rgb(85,87,86)"/>
<polygon points="734,429 661,412 706,464" style="fill:rgb(96,95,94)"/>
<polygon points="661,412 611,424 706,464" style="fill:rgb(71,69,67)"/>
<polygon points="1046,490 937,404 1041,527" style="fill:rgb(131,136,136)"/>
<polygon points="420,1477 449,1463 425,1368" style="fill:rgb(214,173,127)"/>
<polygon points="281,626 482,675 461,591" style="fill:rgb(69,58,45)"/>
<polygon points="317,939 182,982 364,1072" style="fill:rgb(143,142,139)"/>
<polygon points="311,1257 260,1277 358,1358" style="fill:rgb(157,164,167)"/>
<polygon points="1250,1209 1387,983 1224,1047" style="fill:rgb(58,51,40)"/>
<polygon points="1285,915 1414,791 1263,855" style="fill:rgb(112,110,102)"/>
<polygon points="1179,492 1082,437 1090,532" style="fill:rgb(86,85,79)"/>
<polygon points="215,1207 311,1257 329,1191" style="fill:rgb(86,85,84)"/>
<polygon points="358,1358 420,1477 425,1368" style="fill:rgb(205,166,123)"/>
<polygon points="545,1542 579,1549 584,1515" style="fill:rgb(185,145,107)"/>
<polygon points="584,1515 719,1604 821,1509" style="fill:rgb(235,239,243)"/>
<polygon points="301,564 461,591 480,511" style="fill:rgb(49,41,30)"/>
<polygon points="301,564 281,626 461,591" style="fill:rgb(60,51,38)"/>
<polygon points="155,1107 329,1191 364,1072" style="fill:rgb(160,162,161)"/>
<polygon points="1090,532 1082,437 1046,490" style="fill:rgb(153,169,180)"/>
<polygon points="1046,490 971,373 937,404" style="fill:rgb(140,158,168)"/>
<polygon points="1179,492 1077,576 1270,509" style="fill:rgb(110,109,103)"/>
<polygon points="449,1463 545,1542 487,1414" style="fill:rgb(212,183,149)"/>
<polygon points="375,1498 420,1477 358,1358" style="fill:rgb(66,64,61)"/>
<polygon points="449,1463 437,1590 545,1542" style="fill:rgb(219,184,143)"/>
<polygon points="1270,509 1077,576 1245,773" style="fill:rgb(127,127,124)"/>
<polygon points="910,1626 1005,1381 821,1509" style="fill:rgb(232,197,157)"/>
<polygon points="910,1626 1085,1523 1005,1381" style="fill:rgb(222,186,144)"/>
<polygon points="1132,1366 1251,1409 1208,1212" style="fill:rgb(203,159,113)"/>
<polygon points="1250,1209 1509,1042 1387,983" style="fill:rgb(68,61,52)"/>
<polygon points="1061,393 971,373 1046,490" style="fill:rgb(144,162,173)"/>
<polygon points="937,404 864,272 734,429" style="fill:rgb(140,142,140)"/>
<polygon points="1061,393 1046,490 1082,437" style="fill:rgb(160,181,192)"/>
<polygon points="665,1623 584,1515 579,1549" style="fill:rgb(227,221,215)"/>
<polygon points="665,1623 719,1604 584,1515" style="fill:rgb(229,231,236)"/>
<polygon points="540,320 538,393 611,424" style="fill:rgb(38,40,38)"/>
<polygon points="611,424 538,393 538,536" style="fill:rgb(10,8,5)"/>
<polygon points="540,320 611,424 661,412" style="fill:rgb(66,66,64)"/>
<polygon points="290,525 301,564 480,511" style="fill:rgb(97,94,87)"/>
<polygon points="1085,1523 1251,1409 1132,1366" style="fill:rgb(208,164,118)"/>
<polygon points="1414,791 1245,773 1263,855" style="fill:rgb(156,159,157)"/>
<polygon points="182,982 155,1107 364,1072" style="fill:rgb(149,148,145)"/>
<polygon points="1075,340 1061,393 1082,437" style="fill:rgb(212,227,231)"/>
<polygon points="538,393 443,425 480,511" style="fill:rgb(82,79,72)"/>
<polygon points="1251,1409 1330,1335 1208,1212" style="fill:rgb(175,133,89)"/>
<polygon points="1464,835 1414,791 1285,915" style="fill:rgb(100,94,82)"/>
<polygon points="631,1651 579,1549 545,1542" style="fill:rgb(184,152,118)"/>
<polygon points="631,1651 665,1623 579,1549" style="fill:rgb(213,183,151)"/>
<polygon points="719,1604 910,1626 821,1509" style="fill:rgb(231,202,168)"/>
<polygon points="759,1697 910,1626 719,1604" style="fill:rgb(225,192,153)"/>
<polygon points="303,1478 375,1498 358,1358" style="fill:rgb(105,108,111)"/>
<polygon points="420,1477 437,1590 449,1463" style="fill:rgb(212,170,125)"/>
<polygon points="258,1383 358,1358 260,1277" style="fill:rgb(168,174,176)"/>
<polygon points="258,1383 260,1277 156,1266" style="fill:rgb(160,159,156)"/>
<polygon points="156,1266 260,1277 215,1207" style="fill:rgb(157,155,152)"/>
<polygon points="443,425 290,525 480,511" style="fill:rgb(108,105,98)"/>
<polygon points="301,564 132,614 281,626" style="fill:rgb(68,60,50)"/>
<polygon points="281,626 145,745 349,887" style="fill:rgb(87,78,67)"/>
<polygon points="1348,668 1270,509 1245,773" style="fill:rgb(140,142,140)"/>
<polygon points="1179,492 1075,340 1082,437" style="fill:rgb(84,84,79)"/>
<polygon points="1415,431 1270,509 1348,668" style="fill:rgb(134,134,131)"/>
<polygon points="47,929 125,1126 155,1107" style="fill:rgb(113,110,108)"/>
<polygon points="155,1107 125,1126 215,1207" style="fill:rgb(130,127,123)"/>
<polygon points="47,929 155,1107 182,982" style="fill:rgb(159,156,150)"/>
<polygon points="132,614 145,745 281,626" style="fill:rgb(86,77,68)"/>
<polygon points="1075,340 1033,342 1061,393" style="fill:rgb(215,233,239)"/>
<polygon points="1061,393 1033,342 971,373" style="fill:rgb(212,233,240)"/>
<polygon points="772,200 661,412 734,429" style="fill:rgb(126,127,126)"/>
<polygon points="125,1126 156,1266 215,1207" style="fill:rgb(159,156,152)"/>
<polygon points="523,1736 631,1651 545,1542" style="fill:rgb(93,92,92)"/>
<polygon points="665,1623 759,1697 719,1604" style="fill:rgb(225,219,211)"/>
<polygon points="1509,1042 1464,835 1387,983" style="fill:rgb(78,70,58)"/>
<polygon points="1387,983 1464,835 1285,915" style="fill:rgb(69,61,48)"/>
<polygon points="1414,791 1536,748 1348,668" style="fill:rgb(151,154,153)"/>
<polygon points="258,1383 303,1478 358,1358" style="fill:rgb(132,135,136)"/>
<polygon points="375,1498 413,1574 420,1477" style="fill:rgb(67,60,52)"/>
<polygon points="159,1449 303,1478 258,1383" style="fill:rgb(112,111,110)"/>
<polygon points="1172,267 1075,340 1179,492" style="fill:rgb(100,100,95)"/>
<polygon points="864,272 937,404 971,373" style="fill:rgb(209,218,218)"/>
<polygon points="538,393 540,320 443,425" style="fill:rgb(81,80,75)"/>
<polygon points="347,402 284,468 290,525" style="fill:rgb(145,145,142)"/>
<polygon points="864,272 971,373 894,250" style="fill:rgb(235,248,247)"/>
<polygon points="1085,1523 1169,1565 1251,1409" style="fill:rgb(197,153,108)"/>
<polygon points="1251,1409 1390,1499 1330,1335" style="fill:rgb(147,104,61)"/>
<polygon points="1081,1670 1169,1565 1085,1523" style="fill:rgb(198,158,114)"/>
<polygon points="344,1618 413,1574 375,1498" style="fill:rgb(77,79,78)"/>
<polygon points="413,1574 437,1590 420,1477" style="fill:rgb(170,128,88)"/>
<polygon points="894,250 971,373 1033,342" style="fill:rgb(210,230,237)"/>
<polygon points="57,771 95,798 145,745" style="fill:rgb(162,158,151)"/>
<polygon points="145,745 95,798 182,982" style="fill:rgb(133,128,121)"/>
<polygon points="347,402 290,525 443,425" style="fill:rgb(131,129,123)"/>
<polygon points="290,525 132,614 301,564" style="fill:rgb(111,110,105)"/>
<polygon points="421,1613 437,1590 413,1574" style="fill:rgb(157,118,82)"/>
<polygon points="421,1613 438,1606 437,1590" style="fill:rgb(193,148,106)"/>
<polygon points="437,1590 438,1606 545,1542" style="fill:rgb(222,188,149)"/>
<polygon points="494,239 347,402 443,425" style="fill:rgb(136,136,132)"/>
<polygon points="726,1726 665,1623 631,1651" style="fill:rgb(186,154,119)"/>
<polygon points="726,1726 759,1697 665,1623" style="fill:rgb(216,189,154)"/>
<polygon points="1203,1707 1231,1564 1169,1565" style="fill:rgb(142,100,66)"/>
<polygon points="1536,1077 1509,1042 1250,1209" style="fill:rgb(85,78,67)"/>
<polygon points="694,181 557,280 661,412" style="fill:rgb(113,113,111)"/>
<polygon points="540,320 494,239 443,425" style="fill:rgb(115,116,114)"/>
<polygon points="1029,232 894,250 1033,342" style="fill:rgb(184,211,225)"/>
<polygon points="864,272 772,200 734,429" style="fill:rgb(140,141,138)"/>
<polygon points="344,1618 421,1613 413,1574" style="fill:rgb(33,34,35)"/>
<polygon points="438,1606 523,1736 545,1542" style="fill:rgb(219,190,156)"/>
<polygon points="95,798 47,929 182,982" style="fill:rgb(159,154,147)"/>
<polygon points="125,1126 49,1133 156,1266" style="fill:rgb(158,155,151)"/>
<polygon points="1081,1670 1085,1523 910,1626" style="fill:rgb(209,175,134)"/>
<polygon points="1169,1565 1231,1564 1251,1409" style="fill:rgb(158,113,72)"/>
<polygon points="1330,1335 1536,1077 1250,1209" style="fill:rgb(104,94,80)"/>
<polygon points="94,635 132,614 0,612" style="fill:rgb(142,143,140)"/>
<polygon points="284,468 132,614 290,525" style="fill:rgb(133,133,130)"/>
<polygon points="95,798 57,771 47,929" style="fill:rgb(160,155,148)"/>
<polygon points="47,929 49,1133 125,1126" style="fill:rgb(150,148,145)"/>
<polygon points="283,1643 344,1618 220,1592" style="fill:rgb(127,131,133)"/>
<polygon points="645,1846 726,1726 631,1651" style="fill:rgb(64,57,48)"/>
<polygon points="899,1733 1081,1670 910,1626" style="fill:rgb(211,185,150)"/>
<polygon points="94,635 57,771 145,745" style="fill:rgb(135,130,122)"/>
<polygon points="899,1733 910,1626 759,1697" style="fill:rgb(224,187,146)"/>
<polygon points="1526,1436 1536,1077 1330,1335" style="fill:rgb(109,99,86)"/>
<polygon points="1509,1042 1536,748 1464,835" style="fill:rgb(83,76,63)"/>
<polygon points="810,1753 899,1733 759,1697" style="fill:rgb(218,178,135)"/>
<polygon points="0,612 132,614 20,399" style="fill:rgb(156,156,153)"/>
<polygon points="132,614 94,635 145,745" style="fill:rgb(92,84,75)"/>
<polygon points="1295,1662 1296,1551 1231,1564" style="fill:rgb(177,130,81)"/>
<polygon points="1231,1564 1296,1551 1251,1409" style="fill:rgb(165,119,75)"/>
<polygon points="824,199 772,200 864,272" style="fill:rgb(126,126,123)"/>
<polygon points="894,250 824,199 864,272" style="fill:rgb(212,222,222)"/>
<polygon points="895,96 824,199 894,250" style="fill:rgb(160,177,188)"/>
<polygon points="726,1726 810,1753 759,1697" style="fill:rgb(197,164,124)"/>
<polygon points="303,1478 344,1618 375,1498" style="fill:rgb(107,111,114)"/>
<polygon points="456,1765 523,1736 438,1606" style="fill:rgb(226,192,154)"/>
<polygon points="726,1726 785,1887 810,1753" style="fill:rgb(153,123,93)"/>
<polygon points="159,1449 258,1383 156,1266" style="fill:rgb(111,109,107)"/>
<polygon points="1172,267 1029,232 1075,340" style="fill:rgb(75,77,76)"/>
<polygon points="1075,340 1029,232 1033,342" style="fill:rgb(206,226,231)"/>
<polygon points="44,1424 159,1449 156,1266" style="fill:rgb(119,118,117)"/>
<polygon points="1536,1077 1536,748 1509,1042" style="fill:rgb(85,79,68)"/>
<polygon points="1464,835 1536,748 1414,791" style="fill:rgb(105,101,91)"/>
<polygon points="1280,268 1172,267 1179,492" style="fill:rgb(102,102,96)"/>
<polygon points="1081,1670 1138,1680 1169,1565" style="fill:rgb(146,116,91)"/>
<polygon points="1165,1718 1138,1680 1096,1805" style="fill:rgb(147,116,94)"/>
<polygon points="1138,1680 1081,1670 1096,1805" style="fill:rgb(171,140,119)"/>
<polygon points="94,635 25,753 57,771" style="fill:rgb(100,97,91)"/>
<polygon points="57,771 25,753 47,929" style="fill:rgb(116,114,112)"/>
<polygon points="47,929 0,1337 49,1133" style="fill:rgb(139,138,136)"/>
<polygon points="514,175 494,239 557,280" style="fill:rgb(83,86,87)"/>
<polygon points="557,280 494,239 540,320" style="fill:rgb(73,77,78)"/>
<polygon points="139,341 132,614 284,468" style="fill:rgb(152,153,151)"/>
<polygon points="729,36 694,181 772,200" style="fill:rgb(136,135,131)"/>
<polygon points="772,200 694,181 661,412" style="fill:rgb(117,116,114)"/>
<polygon points="1405,1568 1390,1499 1296,1551" style="fill:rgb(143,104,61)"/>
<polygon points="1296,1551 1390,1499 1251,1409" style="fill:rgb(152,107,61)"/>
<polygon points="456,1765 438,1606 438,1762" style="fill:rgb(197,154,110)"/>
<polygon points="1178,262 1172,267 1280,268" style="fill:rgb(80,90,89)"/>
<polygon points="303,1670 346,1658 344,1618" style="fill:rgb(30,33,35)"/>
<polygon points="344,1618 346,1658 421,1613" style="fill:rgb(23,26,26)"/>
<polygon points="1280,268 1179,492 1270,509" style="fill:rgb(106,104,98)"/>
<polygon points="1172,267 1178,262 1029,232" style="fill:rgb(124,138,144)"/>
<polygon points="1536,416 1415,431 1348,668" style="fill:rgb(146,147,144)"/>
<polygon points="975,1794 1081,1670 899,1733" style="fill:rgb(197,176,158)"/>
<polygon points="1138,1680 1203,1707 1169,1565" style="fill:rgb(111,82,57)"/>
<polygon points="220,1592 344,1618 303,1478" style="fill:rgb(130,134,136)"/>
<polygon points="438,1762 438,1606 421,1613" style="fill:rgb(161,123,86)"/>
<polygon points="159,1449 220,1592 303,1478" style="fill:rgb(114,114,114)"/>
<polygon points="874,1923 899,1733 810,1753" style="fill:rgb(224,186,146)"/>
<polygon points="874,1923 975,1794 899,1733" style="fill:rgb(196,164,131)"/>
<polygon points="1260,1813 1203,1707 1165,1718" style="fill:rgb(114,82,52)"/>
<polygon points="1165,1718 1203,1707 1138,1680" style="fill:rgb(113,83,58)"/>
<polygon points="694,181 514,175 557,280" style="fill:rgb(124,123,120)"/>
<polygon points="169,200 139,341 347,402" style="fill:rgb(160,161,157)"/>
<polygon points="134,1886 303,1670 283,1643" style="fill:rgb(158,158,156)"/>
<polygon points="283,1643 303,1670 344,1618" style="fill:rgb(44,48,52)"/>
<polygon points="438,1762 421,1613 346,1658" style="fill:rgb(96,89,83)"/>
<polygon points="523,1736 645,1846 631,1651" style="fill:rgb(84,81,78)"/>
<polygon points="1203,1707 1295,1662 1231,1564" style="fill:rgb(189,141,94)"/>
<polygon points="1295,1662 1405,1568 1296,1551" style="fill:rgb(157,115,69)"/>
<polygon points="1390,1499 1526,1436 1330,1335" style="fill:rgb(104,89,72)"/>
<polygon points="370,1821 438,1762 346,1658" style="fill:rgb(106,97,87)"/>
<polygon points="49,1133 0,1337 156,1266" style="fill:rgb(132,130,128)"/>
<polygon points="159,1449 0,1593 220,1592" style="fill:rgb(134,133,131)"/>
<polygon points="25,753 0,1337 47,929" style="fill:rgb(156,157,156)"/>
<polygon points="1326,286 1280,268 1270,509" style="fill:rgb(115,114,107)"/>
<polygon points="951,93 894,250 1029,232" style="fill:rgb(196,220,230)"/>
<polygon points="951,93 895,96 894,250" style="fill:rgb(215,232,236)"/>
<polygon points="94,635 0,612 25,753" style="fill:rgb(139,139,136)"/>
<polygon points="25,753 0,612 0,1337" style="fill:rgb(156,156,153)"/>
<polygon points="139,341 284,468 347,402" style="fill:rgb(158,161,158)"/>
<polygon points="0,1337 44,1424 156,1266" style="fill:rgb(126,125,124)"/>
<polygon points="1536,1572 1526,1436 1390,1499" style="fill:rgb(84,73,59)"/>
<polygon points="1415,431 1326,286 1270,509" style="fill:rgb(117,115,109)"/>
<polygon points="461,1897 523,1736 456,1765" style="fill:rgb(219,181,142)"/>
<polygon points="517,1935 645,1846 523,1736" style="fill:rgb(121,120,118)"/>
<polygon points="1029,232 1178,262 997,0" style="fill:rgb(202,215,216)"/>
<polygon points="951,93 1029,232 997,0" style="fill:rgb(196,207,208)"/>
<polygon points="824,199 729,36 772,200" style="fill:rgb(123,122,120)"/>
<polygon points="694,181 561,104 514,175" style="fill:rgb(138,137,133)"/>
<polygon points="1130,1819 1096,1805 1006,1887" style="fill:rgb(117,94,72)"/>
<polygon points="975,1794 1096,1805 1081,1670" style="fill:rgb(183,159,146)"/>
<polygon points="1260,1813 1391,1706 1295,1662" style="fill:rgb(147,105,60)"/>
<polygon points="1335,201 1178,262 1280,268" style="fill:rgb(210,217,209)"/>
<polygon points="729,36 561,104 694,181" style="fill:rgb(148,148,142)"/>
<polygon points="169,200 347,402 321,80" style="fill:rgb(146,146,142)"/>
<polygon points="729,36 824,199 895,96" style="fill:rgb(157,177,189)"/>
<polygon points="347,402 494,239 321,80" style="fill:rgb(137,138,135)"/>
<polygon points="645,1846 785,1887 726,1726" style="fill:rgb(74,65,56)"/>
<polygon points="990,1874 1096,1805 975,1794" style="fill:rgb(152,130,113)"/>
<polygon points="1096,1805 1130,1819 1165,1718" style="fill:rgb(119,91,72)"/>
<polygon points="1391,1706 1442,1649 1405,1568" style="fill:rgb(122,88,49)"/>
<polygon points="762,2024 792,1893 785,1887" style="fill:rgb(195,158,121)"/>
<polygon points="785,1887 792,1893 810,1753" style="fill:rgb(171,134,97)"/>
<polygon points="1415,431 1367,262 1326,286" style="fill:rgb(116,114,107)"/>
<polygon points="1326,286 1335,201 1280,268" style="fill:rgb(217,227,221)"/>
<polygon points="1469,257 1367,262 1415,431" style="fill:rgb(125,123,116)"/>
<polygon points="874,1923 990,1874 975,1794" style="fill:rgb(189,162,131)"/>
<polygon points="1536,748 1536,416 1348,668" style="fill:rgb(152,155,154)"/>
<polygon points="966,1988 1006,1887 990,1874" style="fill:rgb(169,135,97)"/>
<polygon points="990,1874 1006,1887 1096,1805" style="fill:rgb(128,105,81)"/>
<polygon points="843,10 729,36 895,96" style="fill:rgb(159,181,194)"/>
<polygon points="1391,1706 1405,1568 1295,1662" style="fill:rgb(143,104,60)"/>
<polygon points="1405,1568 1536,1572 1390,1499" style="fill:rgb(70,57,40)"/>
<polygon points="1295,1662 1203,1707 1260,1813" style="fill:rgb(178,130,82)"/>
<polygon points="438,1762 436,1881 456,1765" style="fill:rgb(169,127,87)"/>
<polygon points="747,2033 762,2024 785,1887" style="fill:rgb(160,127,96)"/>
<polygon points="303,1670 370,1821 346,1658" style="fill:rgb(115,112,107)"/>
<polygon points="134,1886 370,1821 303,1670" style="fill:rgb(144,139,134)"/>
<polygon points="13,1687 283,1643 220,1592" style="fill:rgb(145,143,142)"/>
<polygon points="1260,1813 1165,1718 1130,1819" style="fill:rgb(95,69,46)"/>
<polygon points="1469,257 1335,201 1367,262" style="fill:rgb(131,128,121)"/>
<polygon points="1367,262 1335,201 1326,286" style="fill:rgb(218,225,217)"/>
<polygon points="762,2024 874,1923 792,1893" style="fill:rgb(220,183,145)"/>
<polygon points="792,1893 874,1923 810,1753" style="fill:rgb(221,185,146)"/>
<polygon points="139,341 20,399 132,614" style="fill:rgb(165,165,162)"/>
<polygon points="0,206 20,399 139,341" style="fill:rgb(148,147,142)"/>
<polygon points="1442,1649 1536,1572 1405,1568" style="fill:rgb(108,79,45)"/>
<polygon points="1526,1436 1536,1572 1536,1077" style="fill:rgb(99,89,75)"/>
<polygon points="1536,1649 1536,1572 1442,1649" style="fill:rgb(95,72,44)"/>
<polygon points="1303,1858 1272,1999 1348,1874" style="fill:rgb(42,31,19)"/>
<polygon points="1006,1887 1164,1858 1130,1819" style="fill:rgb(99,77,50)"/>
<polygon points="1164,1858 1260,1813 1130,1819" style="fill:rgb(79,55,31)"/>
<polygon points="871,0 843,10 895,96" style="fill:rgb(230,244,244)"/>
<polygon points="871,0 895,96 951,93" style="fill:rgb(225,239,239)"/>
<polygon points="370,1821 436,1881 438,1762" style="fill:rgb(95,78,60)"/>
<polygon points="843,10 745,0 729,36" style="fill:rgb(176,194,203)"/>
<polygon points="729,36 703,0 561,104" style="fill:rgb(156,155,149)"/>
<polygon points="393,57 494,239 514,175" style="fill:rgb(96,98,99)"/>
<polygon points="436,1881 461,1897 456,1765" style="fill:rgb(190,144,101)"/>
<polygon points="745,0 703,0 729,36" style="fill:rgb(234,240,235)"/>
<polygon points="843,10 871,0 745,0" style="fill:rgb(224,238,239)"/>
<polygon points="997,0 871,0 951,93" style="fill:rgb(199,205,201)"/>
<polygon points="393,57 514,175 561,104" style="fill:rgb(135,133,130)"/>
<polygon points="1303,1858 1424,1733 1391,1706" style="fill:rgb(96,64,26)"/>
<polygon points="1391,1706 1424,1733 1442,1649" style="fill:rgb(89,60,27)"/>
<polygon points="1536,416 1469,257 1415,431" style="fill:rgb(133,131,125)"/>
<polygon points="1271,0 997,0 1178,262" style="fill:rgb(228,236,229)"/>
<polygon points="516,1979 517,1935 409,1980" style="fill:rgb(232,226,217)"/>
<polygon points="461,1897 517,1935 523,1736" style="fill:rgb(203,169,137)"/>
<polygon points="480,0 393,57 561,104" style="fill:rgb(146,145,140)"/>
<polygon points="1316,76 1178,262 1335,201" style="fill:rgb(228,235,227)"/>
<polygon points="0,1337 0,1593 44,1424" style="fill:rgb(161,160,158)"/>
<polygon points="44,1424 0,1593 159,1449" style="fill:rgb(150,148,147)"/>
<polygon points="382,1957 461,1897 436,1881" style="fill:rgb(166,123,82)"/>
<polygon points="409,1980 517,1935 461,1897" style="fill:rgb(223,184,148)"/>
<polygon points="393,57 321,80 494,239" style="fill:rgb(120,121,119)"/>
<polygon points="1424,1733 1536,1649 1442,1649" style="fill:rgb(48,37,24)"/>
<polygon points="0,1593 0,1623 220,1592" style="fill:rgb(152,151,148)"/>
<polygon points="703,0 480,0 561,104" style="fill:rgb(160,159,153)"/>
<polygon points="393,57 337,37 321,80" style="fill:rgb(98,99,96)"/>
<polygon points="1260,1813 1303,1858 1391,1706" style="fill:rgb(122,85,44)"/>
<polygon points="1424,1733 1475,1847 1536,1649" style="fill:rgb(60,48,36)"/>
<polygon points="1164,1858 1303,1858 1260,1813" style="fill:rgb(78,55,31)"/>
<polygon points="1142,1994 1164,1858 1006,1887" style="fill:rgb(60,46,29)"/>
<polygon points="938,2018 966,1988 874,1923" style="fill:rgb(81,71,61)"/>
<polygon points="874,1923 966,1988 990,1874" style="fill:rgb(190,157,119)"/>
<polygon points="382,1957 436,1881 370,1821" style="fill:rgb(95,79,61)"/>
<polygon points="517,1935 628,2048 645,1846" style="fill:rgb(130,126,122)"/>
<polygon points="318,0 337,37 393,57" style="fill:rgb(60,61,60)"/>
<polygon points="321,80 141,19 169,200" style="fill:rgb(141,138,131)"/>
<polygon points="1413,57 1316,76 1335,201" style="fill:rgb(145,144,136)"/>
<polygon points="747,2033 785,1887 645,1846" style="fill:rgb(79,67,54)"/>
<polygon points="0,1623 13,1687 220,1592" style="fill:rgb(122,117,113)"/>
<polygon points="840,2048 938,2018 874,1923" style="fill:rgb(103,93,83)"/>
<polygon points="1272,1999 1303,1858 1164,1858" style="fill:rgb(48,36,23)"/>
<polygon points="724,2048 747,2033 645,1846" style="fill:rgb(88,73,56)"/>
<polygon points="762,2024 840,2048 874,1923" style="fill:rgb(214,175,134)"/>
<polygon points="1086,2009 1006,1887 966,1988" style="fill:rgb(155,115,72)"/>
<polygon points="1303,1858 1348,1874 1424,1733" style="fill:rgb(71,44,14)"/>
<polygon points="343,1995 382,1957 370,1821" style="fill:rgb(98,85,70)"/>
<polygon points="628,2048 724,2048 645,1846" style="fill:rgb(100,89,77)"/>
<polygon points="343,1995 409,1980 382,1957" style="fill:rgb(229,220,204)"/>
<polygon points="382,1957 409,1980 461,1897" style="fill:rgb(202,158,117)"/>
<polygon points="724,2048 840,2048 747,2033" style="fill:rgb(192,153,115)"/>
<polygon points="747,2033 840,2048 762,2024" style="fill:rgb(210,168,129)"/>
<polygon points="628,2048 517,1935 516,1979" style="fill:rgb(139,134,129)"/>
<polygon points="1018,2048 966,1988 938,2018" style="fill:rgb(66,53,40)"/>
<polygon points="1018,2048 1086,2009 966,1988" style="fill:rgb(139,96,53)"/>
<polygon points="1086,2009 1142,1994 1006,1887" style="fill:rgb(115,80,42)"/>
<polygon points="480,0 318,0 393,57" style="fill:rgb(135,132,127)"/>
<polygon points="337,37 257,0 321,80" style="fill:rgb(104,102,97)"/>
<polygon points="169,200 0,206 139,341" style="fill:rgb(140,138,133)"/>
<polygon points="468,2048 628,2048 516,1979" style="fill:rgb(143,140,136)"/>
<polygon points="1316,76 1271,0 1178,262" style="fill:rgb(232,241,236)"/>
<polygon points="1316,0 1271,0 1316,76" style="fill:rgb(140,139,132)"/>
<polygon points="840,2048 1018,2048 938,2018" style="fill:rgb(82,71,57)"/>
<polygon points="1086,2009 1145,2048 1142,1994" style="fill:rgb(110,75,37)"/>
<polygon points="141,19 0,206 169,200" style="fill:rgb(136,133,126)"/>
<polygon points="20,399 0,206 0,612" style="fill:rgb(147,146,142)"/>
<polygon points="318,0 257,0 337,37" style="fill:rgb(74,74,70)"/>
<polygon points="1413,57 1316,0 1316,76" style="fill:rgb(139,138,130)"/>
<polygon points="305,2009 343,1995 370,1821" style="fill:rgb(118,107,95)"/>
<polygon points="409,1980 468,2048 516,1979" style="fill:rgb(235,242,243)"/>
<polygon points="1414,2048 1475,1847 1348,1874" style="fill:rgb(76,48,19)"/>
<polygon points="1348,1874 1475,1847 1424,1733" style="fill:rgb(51,31,13)"/>
<polygon points="1536,124 1413,57 1469,257" style="fill:rgb(148,146,138)"/>
<polygon points="1469,257 1413,57 1335,201" style="fill:rgb(141,138,131)"/>
<polygon points="343,1995 468,2048 409,1980" style="fill:rgb(244,246,241)"/>
<polygon points="13,1687 134,1886 283,1643" style="fill:rgb(152,148,145)"/>
<polygon points="1018,2048 1145,2048 1086,2009" style="fill:rgb(124,82,40)"/>
<polygon points="1142,1994 1272,1999 1164,1858" style="fill:rgb(68,54,38)"/>
<polygon points="1145,2048 1272,1999 1142,1994" style="fill:rgb(72,55,36)"/>
<polygon points="1536,416 1536,124 1469,257" style="fill:rgb(141,138,131)"/>
<polygon points="1413,57 1420,18 1316,0" style="fill:rgb(75,73,68)"/>
<polygon points="134,1886 305,2009 370,1821" style="fill:rgb(142,136,131)"/>
<polygon points="343,1995 313,2048 468,2048" style="fill:rgb(237,233,220)"/>
<polygon points="1536,99 1420,18 1413,57" style="fill:rgb(83,82,77)"/>
<polygon points="257,0 141,19 321,80" style="fill:rgb(123,119,110)"/>
<polygon points="1536,124 1536,99 1413,57" style="fill:rgb(72,69,62)"/>
<polygon points="0,2048 313,2048 305,2009" style="fill:rgb(151,146,138)"/>
<polygon points="305,2009 313,2048 343,1995" style="fill:rgb(119,106,94)"/>
<polygon points="1536,99 1536,0 1420,18" style="fill:rgb(110,110,105)"/>
<polygon points="1420,18 1536,0 1316,0" style="fill:rgb(104,104,98)"/>
<polygon points="1272,1999 1414,2048 1348,1874" style="fill:rgb(62,41,21)"/>
<polygon points="1475,1847 1536,1977 1536,1649" style="fill:rgb(31,17,9)"/>
<polygon points="1145,2048 1414,2048 1272,1999" style="fill:rgb(76,58,37)"/>
<polygon points="257,0 0,0 141,19" style="fill:rgb(118,111,100)"/>
<polygon points="141,19 0,0 0,206" style="fill:rgb(127,120,109)"/>
<polygon points="1449,2048 1536,1977 1475,1847" style="fill:rgb(17,9,7)"/>
<polygon points="1414,2048 1449,2048 1475,1847" style="fill:rgb(16,5,3)"/>
<polygon points="1449,2048 1536,2048 1536,1977" style="fill:rgb(60,71,80)"/>
<polygon points="13,1687 0,2048 134,1886" style="fill:rgb(144,138,132)"/>
<polygon points="134,1886 0,2048 305,2009" style="fill:rgb(145,139,131)"/>
<polygon points="0,1623 0,2048 13,1687" style="fill:rgb(143,139,133)"/>
</svg>