<?xml version="1.0"?>
<svg width="474" height="314"
     xmlns="http://www.w3.org/2000/svg"
     shape-rendering="crispEdges">
<polygon points="240,158 230,145 224,160" style="fill:rgb(78,83,89)"/>
<polygon points="224,160 226,176 240,158" style="fill:rgb(74,83,90)"/>
<polygon points="230,145 211,149 224,160" style="fill:rgb(83,88,94)"/>
<polygon points="224,160 208,149 223,173" style="fill:rgb(207,186,167)"/>
<polygon points="223,173 226,176 224,160" style="fill:rgb(137,120,123)"/>
<polygon points="240,158 245,136 230,145" style="fill:rgb(201,161,132)"/>
<polygon points="215,121 208,149 211,149" style="fill:rgb(175,153,141)"/>
<polygon points="215,121 211,149 230,145" style="fill:rgb(75,80,88)"/>
<polygon points="211,149 208,149 224,160" style="fill:rgb(160,146,131)"/>
<polygon points="226,176 238,181 240,158" style="fill:rgb(66,74,83)"/>
<polygon points="240,158 263,158 245,136" style="fill:rgb(186,139,109)"/>
<polygon points="266,167 263,158 240,158" style="fill:rgb(192,143,111)"/>
<polygon points="222,187 239,186 238,181" style="fill:rgb(53,50,53)"/>
<polygon points="238,181 256,181 240,158" style="fill:rgb(190,147,122)"/>
<polygon points="190,166 214,182 223,173" style="fill:rgb(205,160,135)"/>
<polygon points="223,173 214,182 226,176" style="fill:rgb(139,128,123)"/>
<polygon points="226,176 222,187 238,181" style="fill:rgb(69,82,91)"/>
<polygon points="214,182 222,187 226,176" style="fill:rgb(97,95,97)"/>
<polygon points="263,158 267,148 245,136" style="fill:rgb(200,143,113)"/>
<polygon points="239,186 256,181 238,181" style="fill:rgb(193,149,123)"/>
<polygon points="263,158 290,150 267,148" style="fill:rgb(205,138,110)"/>
<polygon points="256,181 266,167 240,158" style="fill:rgb(201,157,124)"/>
<polygon points="233,114 215,121 230,145" style="fill:rgb(75,80,90)"/>
<polygon points="243,110 233,114 245,136" style="fill:rgb(203,159,132)"/>
<polygon points="245,136 233,114 230,145" style="fill:rgb(207,172,148)"/>
<polygon points="195,179 206,186 214,182" style="fill:rgb(138,93,77)"/>
<polygon points="214,182 209,190 222,187" style="fill:rgb(86,88,96)"/>
<polygon points="206,186 209,190 214,182" style="fill:rgb(91,83,86)"/>
<polygon points="222,187 240,206 239,186" style="fill:rgb(40,33,32)"/>
<polygon points="192,134 190,166 208,149" style="fill:rgb(229,204,180)"/>
<polygon points="208,149 190,166 223,173" style="fill:rgb(221,184,159)"/>
<polygon points="206,186 203,204 209,190" style="fill:rgb(104,83,80)"/>
<polygon points="190,166 195,179 214,182" style="fill:rgb(180,128,102)"/>
<polygon points="215,121 192,134 208,149" style="fill:rgb(216,182,158)"/>
<polygon points="210,103 209,115 215,121" style="fill:rgb(156,136,128)"/>
<polygon points="215,121 209,115 192,134" style="fill:rgb(203,171,147)"/>
<polygon points="257,108 243,110 245,136" style="fill:rgb(190,146,115)"/>
<polygon points="233,114 210,103 215,121" style="fill:rgb(69,73,84)"/>
<polygon points="256,181 274,174 266,167" style="fill:rgb(202,159,128)"/>
<polygon points="266,167 290,150 263,158" style="fill:rgb(173,113,83)"/>
<polygon points="190,166 185,178 195,179" style="fill:rgb(191,147,123)"/>
<polygon points="190,200 203,204 206,186" style="fill:rgb(194,159,139)"/>
<polygon points="181,176 185,178 190,166" style="fill:rgb(186,137,111)"/>
<polygon points="203,204 240,206 222,187" style="fill:rgb(34,30,31)"/>
<polygon points="239,186 240,206 256,181" style="fill:rgb(190,149,122)"/>
<polygon points="281,186 283,180 274,174" style="fill:rgb(109,60,46)"/>
<polygon points="203,204 222,187 209,190" style="fill:rgb(51,43,44)"/>
<polygon points="273,104 257,108 267,148" style="fill:rgb(218,176,151)"/>
<polygon points="267,148 257,108 245,136" style="fill:rgb(206,156,127)"/>
<polygon points="167,147 181,176 190,166" style="fill:rgb(218,182,157)"/>
<polygon points="190,200 206,186 195,179" style="fill:rgb(182,147,118)"/>
<polygon points="246,96 233,114 243,110" style="fill:rgb(201,157,129)"/>
<polygon points="235,87 210,103 233,114" style="fill:rgb(67,73,84)"/>
<polygon points="209,115 182,110 192,134" style="fill:rgb(188,142,114)"/>
<polygon points="190,200 195,179 185,178" style="fill:rgb(175,135,107)"/>
<polygon points="281,186 274,174 256,181" style="fill:rgb(209,172,142)"/>
<polygon points="274,174 290,150 266,167" style="fill:rgb(202,155,127)"/>
<polygon points="257,108 253,100 243,110" style="fill:rgb(188,144,113)"/>
<polygon points="288,179 290,150 274,174" style="fill:rgb(205,160,131)"/>
<polygon points="257,108 273,104 253,100" style="fill:rgb(206,167,141)"/>
<polygon points="268,222 281,186 256,181" style="fill:rgb(210,176,145)"/>
<polygon points="253,100 249,98 243,110" style="fill:rgb(161,125,99)"/>
<polygon points="246,74 246,96 258,71" style="fill:rgb(47,32,26)"/>
<polygon points="249,98 246,96 243,110" style="fill:rgb(111,75,50)"/>
<polygon points="179,195 190,200 185,178" style="fill:rgb(136,89,68)"/>
<polygon points="288,182 288,179 283,180" style="fill:rgb(126,89,61)"/>
<polygon points="283,180 288,179 274,174" style="fill:rgb(143,93,72)"/>
<polygon points="286,187 288,182 283,180" style="fill:rgb(189,153,132)"/>
<polygon points="313,163 295,142 290,150" style="fill:rgb(197,141,116)"/>
<polygon points="294,196 286,187 281,186" style="fill:rgb(187,128,103)"/>
<polygon points="281,186 286,187 283,180" style="fill:rgb(165,121,102)"/>
<polygon points="309,169 290,150 288,179" style="fill:rgb(209,166,138)"/>
<polygon points="290,150 295,142 267,148" style="fill:rgb(212,151,126)"/>
<polygon points="166,111 167,147 192,134" style="fill:rgb(220,190,170)"/>
<polygon points="192,134 167,147 190,166" style="fill:rgb(230,205,186)"/>
<polygon points="181,176 179,195 185,178" style="fill:rgb(162,118,90)"/>
<polygon points="295,142 273,104 267,148" style="fill:rgb(224,178,157)"/>
<polygon points="258,71 246,96 249,98" style="fill:rgb(72,50,31)"/>
<polygon points="190,200 197,210 203,204" style="fill:rgb(197,165,143)"/>
<polygon points="203,204 197,217 240,206" style="fill:rgb(34,29,29)"/>
<polygon points="203,64 198,97 210,103" style="fill:rgb(72,78,88)"/>
<polygon points="210,103 198,97 209,115" style="fill:rgb(196,172,155)"/>
<polygon points="198,97 182,110 209,115" style="fill:rgb(211,178,156)"/>
<polygon points="168,182 179,195 181,176" style="fill:rgb(191,152,124)"/>
<polygon points="190,200 189,211 197,210" style="fill:rgb(182,145,121)"/>
<polygon points="246,74 235,87 246,96" style="fill:rgb(170,121,99)"/>
<polygon points="246,96 235,87 233,114" style="fill:rgb(191,144,122)"/>
<polygon points="167,147 168,182 181,176" style="fill:rgb(227,202,180)"/>
<polygon points="198,97 185,102 182,110" style="fill:rgb(151,138,126)"/>
<polygon points="182,110 166,111 192,134" style="fill:rgb(208,177,144)"/>
<polygon points="171,200 189,211 179,195" style="fill:rgb(82,51,43)"/>
<polygon points="179,195 189,211 190,200" style="fill:rgb(137,95,75)"/>
<polygon points="197,210 197,217 203,204" style="fill:rgb(86,68,59)"/>
<polygon points="189,211 197,217 197,210" style="fill:rgb(66,52,47)"/>
<polygon points="296,113 281,102 273,104" style="fill:rgb(151,109,85)"/>
<polygon points="258,71 249,98 264,73" style="fill:rgb(111,83,61)"/>
<polygon points="286,187 300,193 288,182" style="fill:rgb(205,173,142)"/>
<polygon points="288,182 309,186 288,179" style="fill:rgb(163,107,84)"/>
<polygon points="268,222 294,196 281,186" style="fill:rgb(209,164,136)"/>
<polygon points="268,222 256,181 240,206" style="fill:rgb(198,158,126)"/>
<polygon points="168,182 171,200 179,195" style="fill:rgb(144,101,78)"/>
<polygon points="189,211 159,209 197,217" style="fill:rgb(37,33,33)"/>
<polygon points="197,217 249,228 240,206" style="fill:rgb(29,26,25)"/>
<polygon points="249,228 250,228 240,206" style="fill:rgb(91,66,49)"/>
<polygon points="314,115 296,113 295,142" style="fill:rgb(213,170,145)"/>
<polygon points="295,142 296,113 273,104" style="fill:rgb(213,171,146)"/>
<polygon points="250,228 268,222 240,206" style="fill:rgb(180,135,106)"/>
<polygon points="143,155 160,185 168,182" style="fill:rgb(209,171,146)"/>
<polygon points="168,182 160,185 171,200" style="fill:rgb(166,114,91)"/>
<polygon points="164,108 166,111 182,110" style="fill:rgb(183,157,135)"/>
<polygon points="129,173 152,192 160,185" style="fill:rgb(221,192,172)"/>
<polygon points="296,113 295,108 281,102" style="fill:rgb(82,57,44)"/>
<polygon points="309,195 300,193 294,196" style="fill:rgb(146,87,60)"/>
<polygon points="294,196 300,193 286,187" style="fill:rgb(145,78,60)"/>
<polygon points="309,186 309,169 288,179" style="fill:rgb(211,171,144)"/>
<polygon points="314,115 297,102 295,108" style="fill:rgb(144,94,78)"/>
<polygon points="280,88 273,104 281,102" style="fill:rgb(193,154,126)"/>
<polygon points="272,78 253,100 273,104" style="fill:rgb(195,155,128)"/>
<polygon points="235,87 203,64 210,103" style="fill:rgb(62,69,82)"/>
<polygon points="155,85 164,108 185,102" style="fill:rgb(64,73,86)"/>
<polygon points="246,74 240,73 235,87" style="fill:rgb(175,145,129)"/>
<polygon points="185,102 164,108 182,110" style="fill:rgb(93,89,88)"/>
<polygon points="203,64 185,102 198,97" style="fill:rgb(70,77,86)"/>
<polygon points="142,128 143,155 167,147" style="fill:rgb(226,201,179)"/>
<polygon points="171,200 168,206 189,211" style="fill:rgb(41,30,31)"/>
<polygon points="163,206 168,206 171,200" style="fill:rgb(162,134,119)"/>
<polygon points="322,171 313,163 309,169" style="fill:rgb(161,113,84)"/>
<polygon points="309,169 313,163 290,150" style="fill:rgb(178,126,99)"/>
<polygon points="297,102 280,88 281,102" style="fill:rgb(189,146,121)"/>
<polygon points="309,195 307,189 300,193" style="fill:rgb(222,180,153)"/>
<polygon points="300,193 307,189 288,182" style="fill:rgb(209,182,149)"/>
<polygon points="307,189 309,186 288,182" style="fill:rgb(166,122,94)"/>
<polygon points="300,98 297,102 314,115" style="fill:rgb(207,169,144)"/>
<polygon points="295,108 297,102 281,102" style="fill:rgb(161,117,95)"/>
<polygon points="152,192 163,206 171,200" style="fill:rgb(202,169,140)"/>
<polygon points="168,206 159,209 189,211" style="fill:rgb(36,29,26)"/>
<polygon points="300,87 272,78 280,88" style="fill:rgb(155,114,85)"/>
<polygon points="280,88 272,78 273,104" style="fill:rgb(174,135,108)"/>
<polygon points="246,74 255,46 240,73" style="fill:rgb(63,69,77)"/>
<polygon points="264,73 249,98 253,100" style="fill:rgb(155,117,91)"/>
<polygon points="272,78 264,73 253,100" style="fill:rgb(187,141,110)"/>
<polygon points="317,201 309,195 294,196" style="fill:rgb(173,103,79)"/>
<polygon points="307,189 309,195 309,186" style="fill:rgb(187,148,118)"/>
<polygon points="309,186 322,171 309,169" style="fill:rgb(211,172,148)"/>
<polygon points="335,145 318,140 313,163" style="fill:rgb(229,191,165)"/>
<polygon points="313,163 318,140 295,142" style="fill:rgb(210,165,135)"/>
<polygon points="143,155 168,182 167,147" style="fill:rgb(224,197,176)"/>
<polygon points="160,185 152,192 171,200" style="fill:rgb(210,173,148)"/>
<polygon points="142,128 167,147 166,111" style="fill:rgb(222,192,171)"/>
<polygon points="297,102 300,98 280,88" style="fill:rgb(199,169,141)"/>
<polygon points="314,115 295,108 296,113" style="fill:rgb(169,134,109)"/>
<polygon points="272,78 265,70 264,73" style="fill:rgb(180,135,107)"/>
<polygon points="264,73 265,70 258,71" style="fill:rgb(122,91,69)"/>
<polygon points="255,46 203,64 240,73" style="fill:rgb(59,68,81)"/>
<polygon points="261,61 278,35 266,42" style="fill:rgb(70,53,42)"/>
<polygon points="149,197 159,209 163,206" style="fill:rgb(144,103,85)"/>
<polygon points="163,206 159,209 168,206" style="fill:rgb(122,89,74)"/>
<polygon points="197,217 253,251 249,228" style="fill:rgb(25,24,25)"/>
<polygon points="318,140 314,115 295,142" style="fill:rgb(211,162,133)"/>
<polygon points="324,189 322,171 309,186" style="fill:rgb(217,180,152)"/>
<polygon points="146,200 149,197 129,173" style="fill:rgb(166,124,100)"/>
<polygon points="152,192 149,197 163,206" style="fill:rgb(177,131,108)"/>
<polygon points="164,108 142,128 166,111" style="fill:rgb(178,156,146)"/>
<polygon points="261,61 246,74 258,71" style="fill:rgb(42,33,30)"/>
<polygon points="240,73 203,64 235,87" style="fill:rgb(61,67,79)"/>
<polygon points="164,108 140,127 142,128" style="fill:rgb(133,121,115)"/>
<polygon points="155,85 140,127 164,108" style="fill:rgb(62,68,82)"/>
<polygon points="142,128 122,152 143,155" style="fill:rgb(225,199,179)"/>
<polygon points="324,111 300,87 300,98" style="fill:rgb(175,128,100)"/>
<polygon points="300,98 300,87 280,88" style="fill:rgb(140,102,75)"/>
<polygon points="129,173 149,197 152,192" style="fill:rgb(199,159,133)"/>
<polygon points="149,197 148,204 159,209" style="fill:rgb(108,71,61)"/>
<polygon points="129,173 160,185 143,155" style="fill:rgb(223,199,176)"/>
<polygon points="146,200 148,204 149,197" style="fill:rgb(210,176,165)"/>
<polygon points="293,239 317,201 294,196" style="fill:rgb(216,169,145)"/>
<polygon points="323,194 324,189 309,186" style="fill:rgb(180,127,98)"/>
<polygon points="261,61 265,70 278,35" style="fill:rgb(109,81,62)"/>
<polygon points="265,70 261,61 258,71" style="fill:rgb(104,78,60)"/>
<polygon points="323,194 309,186 309,195" style="fill:rgb(207,172,142)"/>
<polygon points="249,228 253,251 250,228" style="fill:rgb(82,76,67)"/>
<polygon points="250,228 264,253 268,222" style="fill:rgb(176,137,106)"/>
<polygon points="268,222 293,239 294,196" style="fill:rgb(213,174,144)"/>
<polygon points="259,286 253,251 258,291" style="fill:rgb(108,102,100)"/>
<polygon points="253,251 254,251 250,228" style="fill:rgb(142,138,132)"/>
<polygon points="317,201 322,196 309,195" style="fill:rgb(181,112,90)"/>
<polygon points="322,196 323,194 309,195" style="fill:rgb(203,161,133)"/>
<polygon points="318,140 324,111 314,115" style="fill:rgb(207,161,129)"/>
<polygon points="314,115 324,111 300,98" style="fill:rgb(201,161,134)"/>
<polygon points="339,122 324,111 318,140" style="fill:rgb(222,183,154)"/>
<polygon points="335,145 313,163 339,164" style="fill:rgb(224,185,159)"/>
<polygon points="203,64 155,85 185,102" style="fill:rgb(63,71,82)"/>
<polygon points="277,265 264,253 259,286" style="fill:rgb(239,241,240)"/>
<polygon points="254,251 264,253 250,228" style="fill:rgb(229,220,212)"/>
<polygon points="339,164 322,171 324,189" style="fill:rgb(217,178,153)"/>
<polygon points="339,164 313,163 322,171" style="fill:rgb(188,142,112)"/>
<polygon points="122,152 129,173 143,155" style="fill:rgb(221,194,175)"/>
<polygon points="130,223 131,224 148,204" style="fill:rgb(167,161,160)"/>
<polygon points="288,243 293,239 268,222" style="fill:rgb(209,169,142)"/>
<polygon points="317,201 344,197 322,196" style="fill:rgb(142,89,74)"/>
<polygon points="285,248 288,243 268,222" style="fill:rgb(188,147,118)"/>
<polygon points="264,253 285,248 268,222" style="fill:rgb(168,129,96)"/>
<polygon points="288,243 311,251 293,239" style="fill:rgb(198,158,128)"/>
<polygon points="339,164 324,189 350,188" style="fill:rgb(217,177,153)"/>
<polygon points="349,169 339,164 350,188" style="fill:rgb(175,117,90)"/>
<polygon points="120,149 142,128 140,127" style="fill:rgb(152,132,127)"/>
<polygon points="120,149 122,152 142,128" style="fill:rgb(198,173,152)"/>
<polygon points="266,42 255,46 261,61" style="fill:rgb(34,27,27)"/>
<polygon points="261,61 255,46 246,74" style="fill:rgb(23,23,25)"/>
<polygon points="119,129 120,149 140,127" style="fill:rgb(65,68,79)"/>
<polygon points="122,152 120,177 129,173" style="fill:rgb(193,159,130)"/>
<polygon points="335,145 339,122 318,140" style="fill:rgb(224,184,154)"/>
<polygon points="324,111 337,106 300,87" style="fill:rgb(212,172,141)"/>
<polygon points="278,35 265,70 288,35" style="fill:rgb(129,101,78)"/>
<polygon points="355,129 339,122 335,145" style="fill:rgb(214,173,144)"/>
<polygon points="339,122 338,115 324,111" style="fill:rgb(224,191,159)"/>
<polygon points="107,158 120,177 122,152" style="fill:rgb(187,157,128)"/>
<polygon points="129,173 122,197 146,200" style="fill:rgb(119,77,56)"/>
<polygon points="131,76 119,129 140,127" style="fill:rgb(53,63,76)"/>
<polygon points="95,170 115,196 120,177" style="fill:rgb(188,153,126)"/>
<polygon points="360,106 337,106 338,115" style="fill:rgb(201,158,128)"/>
<polygon points="338,115 337,106 324,111" style="fill:rgb(223,184,157)"/>
<polygon points="148,204 131,224 159,209" style="fill:rgb(45,36,40)"/>
<polygon points="259,286 254,251 253,251" style="fill:rgb(178,172,168)"/>
<polygon points="120,177 122,197 129,173" style="fill:rgb(148,110,80)"/>
<polygon points="265,70 272,78 288,35" style="fill:rgb(165,129,101)"/>
<polygon points="109,75 131,0 83,50" style="fill:rgb(55,63,76)"/>
<polygon points="277,265 282,261 264,253" style="fill:rgb(201,170,148)"/>
<polygon points="264,253 282,261 285,248" style="fill:rgb(173,132,101)"/>
<polygon points="285,248 311,251 288,243" style="fill:rgb(171,128,102)"/>
<polygon points="344,197 323,194 322,196" style="fill:rgb(92,44,32)"/>
<polygon points="344,197 324,189 323,194" style="fill:rgb(144,89,66)"/>
<polygon points="339,164 349,169 335,145" style="fill:rgb(185,122,96)"/>
<polygon points="339,122 358,120 338,115" style="fill:rgb(190,149,118)"/>
<polygon points="344,197 317,201 350,202" style="fill:rgb(206,155,131)"/>
<polygon points="259,286 264,253 254,251" style="fill:rgb(228,227,223)"/>
<polygon points="131,224 197,217 159,209" style="fill:rgb(32,29,29)"/>
<polygon points="328,245 317,201 293,239" style="fill:rgb(222,183,156)"/>
<polygon points="130,223 148,204 123,216" style="fill:rgb(226,222,220)"/>
<polygon points="123,216 148,204 146,200" style="fill:rgb(196,173,163)"/>
<polygon points="344,197 350,188 324,189" style="fill:rgb(207,161,134)"/>
<polygon points="120,177 115,196 122,197" style="fill:rgb(168,133,102)"/>
<polygon points="122,197 120,209 146,200" style="fill:rgb(119,81,60)"/>
<polygon points="107,158 122,152 120,149" style="fill:rgb(139,113,98)"/>
<polygon points="115,196 120,209 122,197" style="fill:rgb(141,99,75)"/>
<polygon points="96,139 107,158 120,149" style="fill:rgb(78,88,98)"/>
<polygon points="120,209 123,216 146,200" style="fill:rgb(160,121,96)"/>
<polygon points="303,266 285,248 282,261" style="fill:rgb(164,110,83)"/>
<polygon points="303,266 311,251 285,248" style="fill:rgb(133,85,62)"/>
<polygon points="344,197 350,202 350,188" style="fill:rgb(210,170,140)"/>
<polygon points="358,120 368,126 360,116" style="fill:rgb(202,165,140)"/>
<polygon points="364,133 355,129 335,145" style="fill:rgb(216,181,157)"/>
<polygon points="180,6 131,76 155,85" style="fill:rgb(51,58,74)"/>
<polygon points="155,85 131,76 140,127" style="fill:rgb(52,59,74)"/>
<polygon points="119,129 96,139 120,149" style="fill:rgb(71,82,94)"/>
<polygon points="180,6 203,64 255,46" style="fill:rgb(59,66,79)"/>
<polygon points="328,245 350,202 317,201" style="fill:rgb(223,185,156)"/>
<polygon points="364,133 335,145 349,169" style="fill:rgb(228,186,161)"/>
<polygon points="288,35 272,78 299,36" style="fill:rgb(187,148,119)"/>
<polygon points="266,42 280,0 255,46" style="fill:rgb(24,24,26)"/>
<polygon points="359,193 349,169 350,188" style="fill:rgb(177,116,92)"/>
<polygon points="355,129 358,120 339,122" style="fill:rgb(174,120,93)"/>
<polygon points="299,36 272,78 300,87" style="fill:rgb(207,165,137)"/>
<polygon points="96,214 116,217 120,209" style="fill:rgb(196,161,138)"/>
<polygon points="120,209 116,217 123,216" style="fill:rgb(169,135,118)"/>
<polygon points="123,216 116,217 130,223" style="fill:rgb(227,226,226)"/>
<polygon points="130,223 112,246 131,224" style="fill:rgb(152,143,146)"/>
<polygon points="96,214 120,209 115,196" style="fill:rgb(168,123,99)"/>
<polygon points="277,265 292,271 282,261" style="fill:rgb(225,191,166)"/>
<polygon points="292,280 292,271 277,265" style="fill:rgb(227,216,202)"/>
<polygon points="299,36 300,87 317,37" style="fill:rgb(214,170,143)"/>
<polygon points="314,266 328,245 311,251" style="fill:rgb(174,132,99)"/>
<polygon points="311,251 328,245 293,239" style="fill:rgb(207,166,135)"/>
<polygon points="292,271 303,266 282,261" style="fill:rgb(196,141,110)"/>
<polygon points="375,187 359,193 370,215" style="fill:rgb(220,182,154)"/>
<polygon points="350,202 359,193 350,188" style="fill:rgb(201,153,120)"/>
<polygon points="368,126 358,120 355,129" style="fill:rgb(149,119,98)"/>
<polygon points="358,120 360,116 338,115" style="fill:rgb(210,174,142)"/>
<polygon points="382,136 364,133 393,156" style="fill:rgb(219,183,155)"/>
<polygon points="253,251 197,217 155,314" style="fill:rgb(23,22,24)"/>
<polygon points="258,291 253,251 155,314" style="fill:rgb(25,24,25)"/>
<polygon points="317,37 300,87 353,56" style="fill:rgb(224,185,162)"/>
<polygon points="109,75 96,139 119,129" style="fill:rgb(69,81,95)"/>
<polygon points="107,158 95,170 120,177" style="fill:rgb(202,171,144)"/>
<polygon points="382,136 366,131 364,133" style="fill:rgb(176,133,112)"/>
<polygon points="364,133 366,131 355,129" style="fill:rgb(119,99,84)"/>
<polygon points="92,170 95,170 107,158" style="fill:rgb(143,124,111)"/>
<polygon points="382,120 360,106 360,116" style="fill:rgb(151,107,79)"/>
<polygon points="360,116 360,106 338,115" style="fill:rgb(172,125,95)"/>
<polygon points="303,266 314,266 311,251" style="fill:rgb(151,99,73)"/>
<polygon points="300,278 314,266 303,266" style="fill:rgb(204,155,122)"/>
<polygon points="300,278 303,266 292,271" style="fill:rgb(182,117,90)"/>
<polygon points="259,293 258,291 260,314" style="fill:rgb(120,116,119)"/>
<polygon points="292,282 292,280 271,295" style="fill:rgb(205,177,167)"/>
<polygon points="382,136 368,126 366,131" style="fill:rgb(135,91,67)"/>
<polygon points="366,131 368,126 355,129" style="fill:rgb(78,59,44)"/>
<polygon points="292,280 277,265 271,295" style="fill:rgb(246,247,247)"/>
<polygon points="80,159 92,170 107,158" style="fill:rgb(58,51,51)"/>
<polygon points="95,170 81,201 115,196" style="fill:rgb(197,159,132)"/>
<polygon points="271,295 277,265 259,286" style="fill:rgb(242,247,247)"/>
<polygon points="292,280 300,278 292,271" style="fill:rgb(178,127,105)"/>
<polygon points="155,314 197,217 131,224" style="fill:rgb(23,22,24)"/>
<polygon points="258,291 259,293 259,286" style="fill:rgb(207,199,198)"/>
<polygon points="292,282 300,278 292,280" style="fill:rgb(210,174,154)"/>
<polygon points="296,25 283,20 288,35" style="fill:rgb(107,90,70)"/>
<polygon points="288,35 283,20 278,35" style="fill:rgb(98,77,58)"/>
<polygon points="278,35 283,20 266,42" style="fill:rgb(64,51,43)"/>
<polygon points="299,36 296,25 288,35" style="fill:rgb(150,120,95)"/>
<polygon points="317,37 296,25 299,36" style="fill:rgb(161,128,102)"/>
<polygon points="325,31 317,37 347,44" style="fill:rgb(153,122,97)"/>
<polygon points="180,6 155,85 203,64" style="fill:rgb(59,66,80)"/>
<polygon points="131,76 109,75 119,129" style="fill:rgb(66,78,92)"/>
<polygon points="259,293 271,295 259,286" style="fill:rgb(237,238,236)"/>
<polygon points="292,282 311,285 300,278" style="fill:rgb(191,134,103)"/>
<polygon points="370,215 359,193 350,202" style="fill:rgb(221,180,149)"/>
<polygon points="359,193 375,187 349,169" style="fill:rgb(208,152,125)"/>
<polygon points="370,215 363,245 373,224" style="fill:rgb(202,161,135)"/>
<polygon points="81,201 96,214 115,196" style="fill:rgb(199,161,134)"/>
<polygon points="116,217 112,246 130,223" style="fill:rgb(221,220,216)"/>
<polygon points="96,214 98,223 116,217" style="fill:rgb(233,231,232)"/>
<polygon points="100,241 112,246 116,217" style="fill:rgb(214,213,207)"/>
<polygon points="275,300 277,298 271,295" style="fill:rgb(163,136,125)"/>
<polygon points="271,295 277,298 292,282" style="fill:rgb(131,80,68)"/>
<polygon points="319,282 336,264 314,266" style="fill:rgb(215,176,147)"/>
<polygon points="370,215 350,202 363,245" style="fill:rgb(212,174,143)"/>
<polygon points="96,139 80,159 107,158" style="fill:rgb(74,82,92)"/>
<polygon points="92,170 81,201 95,170" style="fill:rgb(217,196,187)"/>
<polygon points="96,214 77,211 98,223" style="fill:rgb(239,233,232)"/>
<polygon points="68,128 80,159 96,139" style="fill:rgb(64,75,87)"/>
<polygon points="311,285 314,266 300,278" style="fill:rgb(215,167,137)"/>
<polygon points="314,266 336,264 328,245" style="fill:rgb(196,158,125)"/>
<polygon points="393,156 364,133 349,169" style="fill:rgb(229,191,168)"/>
<polygon points="368,126 382,120 360,116" style="fill:rgb(214,176,146)"/>
<polygon points="353,56 300,87 337,106" style="fill:rgb(227,192,168)"/>
<polygon points="259,293 270,301 271,295" style="fill:rgb(232,234,233)"/>
<polygon points="260,314 270,301 259,293" style="fill:rgb(233,235,235)"/>
<polygon points="270,301 275,300 271,295" style="fill:rgb(221,209,207)"/>
<polygon points="277,298 290,295 292,282" style="fill:rgb(166,71,59)"/>
<polygon points="289,314 290,295 277,298" style="fill:rgb(132,63,48)"/>
<polygon points="290,295 311,285 292,282" style="fill:rgb(172,85,64)"/>
<polygon points="382,136 382,120 368,126" style="fill:rgb(206,165,141)"/>
<polygon points="353,56 337,106 360,106" style="fill:rgb(226,189,164)"/>
<polygon points="317,37 325,31 296,25" style="fill:rgb(143,115,91)"/>
<polygon points="296,0 280,0 283,20" style="fill:rgb(27,23,24)"/>
<polygon points="320,291 319,282 311,285" style="fill:rgb(243,229,219)"/>
<polygon points="311,285 319,282 314,266" style="fill:rgb(217,174,145)"/>
<polygon points="359,52 383,57 369,49" style="fill:rgb(108,78,58)"/>
<polygon points="76,179 77,180 92,170" style="fill:rgb(97,91,91)"/>
<polygon points="280,0 180,6 255,46" style="fill:rgb(55,63,76)"/>
<polygon points="80,159 76,179 92,170" style="fill:rgb(43,39,42)"/>
<polygon points="77,180 81,201 92,170" style="fill:rgb(235,233,235)"/>
<polygon points="98,223 100,241 116,217" style="fill:rgb(203,201,196)"/>
<polygon points="74,234 100,241 98,223" style="fill:rgb(179,175,169)"/>
<polygon points="67,189 81,201 77,180" style="fill:rgb(231,232,235)"/>
<polygon points="363,245 350,202 328,245" style="fill:rgb(210,172,138)"/>
<polygon points="370,215 390,198 375,187" style="fill:rgb(211,171,140)"/>
<polygon points="375,187 393,156 349,169" style="fill:rgb(221,173,148)"/>
<polygon points="353,56 347,44 317,37" style="fill:rgb(191,155,128)"/>
<polygon points="336,264 363,245 328,245" style="fill:rgb(201,163,133)"/>
<polygon points="345,267 363,245 336,264" style="fill:rgb(212,180,160)"/>
<polygon points="319,282 345,267 336,264" style="fill:rgb(219,192,172)"/>
<polygon points="355,276 364,245 363,245" style="fill:rgb(201,195,189)"/>
<polygon points="363,245 364,245 373,224" style="fill:rgb(119,95,82)"/>
<polygon points="372,244 380,216 373,224" style="fill:rgb(67,71,75)"/>
<polygon points="373,224 380,216 370,215" style="fill:rgb(193,162,127)"/>
<polygon points="406,160 393,156 375,187" style="fill:rgb(208,164,131)"/>
<polygon points="382,136 390,115 382,120" style="fill:rgb(188,149,118)"/>
<polygon points="296,0 283,20 296,25" style="fill:rgb(64,52,42)"/>
<polygon points="283,20 280,0 266,42" style="fill:rgb(32,30,27)"/>
<polygon points="296,0 296,25 327,16" style="fill:rgb(78,63,50)"/>
<polygon points="102,254 72,265 77,269" style="fill:rgb(127,123,123)"/>
<polygon points="100,241 102,252 112,246" style="fill:rgb(204,201,199)"/>
<polygon points="155,314 260,314 258,291" style="fill:rgb(27,26,28)"/>
<polygon points="275,300 289,314 277,298" style="fill:rgb(163,122,111)"/>
<polygon points="303,314 320,291 311,285" style="fill:rgb(177,87,68)"/>
<polygon points="270,301 289,314 275,300" style="fill:rgb(215,202,196)"/>
<polygon points="155,314 131,224 112,246" style="fill:rgb(27,26,28)"/>
<polygon points="319,282 320,291 345,267" style="fill:rgb(247,242,239)"/>
<polygon points="303,314 311,285 290,295" style="fill:rgb(171,78,59)"/>
<polygon points="406,119 390,115 382,136" style="fill:rgb(203,168,138)"/>
<polygon points="382,120 390,115 360,106" style="fill:rgb(164,120,90)"/>
<polygon points="353,56 359,52 347,44" style="fill:rgb(161,121,93)"/>
<polygon points="74,234 102,252 100,241" style="fill:rgb(201,200,194)"/>
<polygon points="102,252 102,254 112,246" style="fill:rgb(133,128,130)"/>
<polygon points="359,52 353,56 385,61" style="fill:rgb(176,136,110)"/>
<polygon points="59,208 77,211 81,201" style="fill:rgb(238,238,241)"/>
<polygon points="81,201 77,211 96,214" style="fill:rgb(188,159,147)"/>
<polygon points="380,216 390,198 370,215" style="fill:rgb(195,158,124)"/>
<polygon points="392,202 390,198 380,216" style="fill:rgb(85,73,68)"/>
<polygon points="109,75 68,128 96,139" style="fill:rgb(62,72,86)"/>
<polygon points="53,181 67,189 76,179" style="fill:rgb(34,31,31)"/>
<polygon points="76,179 67,189 77,180" style="fill:rgb(126,122,122)"/>
<polygon points="387,272 372,244 364,245" style="fill:rgb(54,49,51)"/>
<polygon points="364,245 372,244 373,224" style="fill:rgb(59,50,49)"/>
<polygon points="355,276 363,245 345,267" style="fill:rgb(242,242,239)"/>
<polygon points="359,52 347,34 347,44" style="fill:rgb(115,87,66)"/>
<polygon points="347,44 347,34 325,31" style="fill:rgb(112,87,64)"/>
<polygon points="327,16 296,25 325,31" style="fill:rgb(109,91,72)"/>
<polygon points="400,202 392,202 401,203" style="fill:rgb(159,137,130)"/>
<polygon points="390,198 406,160 375,187" style="fill:rgb(210,170,139)"/>
<polygon points="53,181 76,179 80,159" style="fill:rgb(42,40,42)"/>
<polygon points="347,34 327,16 325,31" style="fill:rgb(77,59,46)"/>
<polygon points="59,208 73,215 77,211" style="fill:rgb(240,242,246)"/>
<polygon points="77,211 73,215 98,223" style="fill:rgb(233,232,232)"/>
<polygon points="260,314 289,314 270,301" style="fill:rgb(238,238,240)"/>
<polygon points="385,61 353,56 360,106" style="fill:rgb(226,192,168)"/>
<polygon points="359,52 369,49 347,34" style="fill:rgb(87,63,48)"/>
<polygon points="347,34 355,19 327,16" style="fill:rgb(65,49,41)"/>
<polygon points="330,310 355,276 320,291" style="fill:rgb(246,249,250)"/>
<polygon points="320,291 355,276 345,267" style="fill:rgb(244,250,249)"/>
<polygon points="83,50 77,75 109,75" style="fill:rgb(54,62,72)"/>
<polygon points="109,75 77,75 68,128" style="fill:rgb(57,66,78)"/>
<polygon points="393,156 405,141 382,136" style="fill:rgb(217,181,154)"/>
<polygon points="390,115 403,102 360,106" style="fill:rgb(216,179,150)"/>
<polygon points="406,160 405,141 393,156" style="fill:rgb(202,160,128)"/>
<polygon points="414,185 406,160 390,198" style="fill:rgb(222,189,161)"/>
<polygon points="289,314 303,314 290,295" style="fill:rgb(131,60,46)"/>
<polygon points="392,202 400,202 390,198" style="fill:rgb(195,162,142)"/>
<polygon points="401,203 392,202 380,216" style="fill:rgb(68,71,78)"/>
<polygon points="401,203 380,216 372,244" style="fill:rgb(63,71,81)"/>
<polygon points="68,229 74,234 73,215" style="fill:rgb(150,141,130)"/>
<polygon points="73,215 74,234 98,223" style="fill:rgb(173,165,159)"/>
<polygon points="420,277 401,203 372,244" style="fill:rgb(64,73,85)"/>
<polygon points="414,185 413,158 406,160" style="fill:rgb(203,151,116)"/>
<polygon points="86,273 155,314 102,254" style="fill:rgb(20,21,22)"/>
<polygon points="102,254 155,314 112,246" style="fill:rgb(24,23,25)"/>
<polygon points="280,0 144,0 180,6" style="fill:rgb(52,59,73)"/>
<polygon points="180,6 144,0 131,76" style="fill:rgb(48,55,70)"/>
<polygon points="406,160 409,142 405,141" style="fill:rgb(165,133,100)"/>
<polygon points="405,141 406,119 382,136" style="fill:rgb(212,180,154)"/>
<polygon points="414,148 409,142 406,160" style="fill:rgb(94,67,46)"/>
<polygon points="409,142 406,119 405,141" style="fill:rgb(190,156,127)"/>
<polygon points="406,119 403,102 390,115" style="fill:rgb(205,166,134)"/>
<polygon points="63,224 68,229 73,215" style="fill:rgb(229,221,221)"/>
<polygon points="77,269 86,273 102,254" style="fill:rgb(46,44,46)"/>
<polygon points="403,102 385,61 360,106" style="fill:rgb(224,191,166)"/>
<polygon points="369,49 355,19 347,34" style="fill:rgb(63,48,42)"/>
<polygon points="385,61 383,57 359,52" style="fill:rgb(134,97,73)"/>
<polygon points="68,128 53,181 80,159" style="fill:rgb(62,71,81)"/>
<polygon points="67,189 59,208 81,201" style="fill:rgb(233,232,233)"/>
<polygon points="55,108 53,181 68,128" style="fill:rgb(42,49,56)"/>
<polygon points="57,205 59,208 67,189" style="fill:rgb(183,179,172)"/>
<polygon points="131,0 109,75 131,76" style="fill:rgb(65,73,87)"/>
<polygon points="409,142 409,117 406,119" style="fill:rgb(167,134,103)"/>
<polygon points="406,119 409,117 403,102" style="fill:rgb(177,135,102)"/>
<polygon points="414,185 390,198 400,202" style="fill:rgb(218,184,161)"/>
<polygon points="409,142 416,115 409,117" style="fill:rgb(93,67,45)"/>
<polygon points="56,204 57,205 67,189" style="fill:rgb(99,95,89)"/>
<polygon points="59,208 63,224 73,215" style="fill:rgb(240,244,246)"/>
<polygon points="303,314 322,312 320,291" style="fill:rgb(180,89,72)"/>
<polygon points="44,217 63,224 59,208" style="fill:rgb(228,224,219)"/>
<polygon points="53,181 56,204 67,189" style="fill:rgb(36,34,35)"/>
<polygon points="57,205 44,217 59,208" style="fill:rgb(174,165,157)"/>
<polygon points="59,88 55,108 77,75" style="fill:rgb(42,48,54)"/>
<polygon points="77,75 55,108 68,128" style="fill:rgb(40,46,52)"/>
<polygon points="413,158 414,148 406,160" style="fill:rgb(167,109,90)"/>
<polygon points="379,23 355,19 369,49" style="fill:rgb(67,54,45)"/>
<polygon points="327,16 352,0 296,0" style="fill:rgb(76,62,49)"/>
<polygon points="322,312 329,310 320,291" style="fill:rgb(138,78,70)"/>
<polygon points="144,0 131,0 131,76" style="fill:rgb(63,70,84)"/>
<polygon points="329,314 330,310 329,310" style="fill:rgb(234,238,238)"/>
<polygon points="329,310 330,310 320,291" style="fill:rgb(188,161,159)"/>
<polygon points="71,47 59,88 77,75" style="fill:rgb(39,46,52)"/>
<polygon points="401,203 414,185 400,202" style="fill:rgb(147,128,121)"/>
<polygon points="413,158 427,149 414,148" style="fill:rgb(216,170,137)"/>
<polygon points="474,204 414,185 401,203" style="fill:rgb(59,67,79)"/>
<polygon points="330,310 342,314 355,276" style="fill:rgb(242,244,243)"/>
<polygon points="322,312 329,314 329,310" style="fill:rgb(168,154,148)"/>
<polygon points="303,314 329,314 322,312" style="fill:rgb(159,98,80)"/>
<polygon points="102,252 74,234 72,265" style="fill:rgb(206,204,200)"/>
<polygon points="102,254 102,252 72,265" style="fill:rgb(183,177,177)"/>
<polygon points="432,130 409,142 414,148" style="fill:rgb(86,55,39)"/>
<polygon points="432,130 416,115 409,142" style="fill:rgb(57,40,29)"/>
<polygon points="409,117 412,99 403,102" style="fill:rgb(166,125,94)"/>
<polygon points="403,102 407,82 385,61" style="fill:rgb(204,171,141)"/>
<polygon points="385,61 403,67 383,57" style="fill:rgb(138,103,77)"/>
<polygon points="416,101 412,99 409,117" style="fill:rgb(130,95,72)"/>
<polygon points="412,99 407,82 403,102" style="fill:rgb(181,145,113)"/>
<polygon points="379,23 354,6 355,19" style="fill:rgb(101,85,68)"/>
<polygon points="416,115 416,101 409,117" style="fill:rgb(99,71,52)"/>
<polygon points="412,99 418,87 407,82" style="fill:rgb(145,116,88)"/>
<polygon points="74,234 39,242 72,265" style="fill:rgb(203,201,198)"/>
<polygon points="72,265 39,242 69,267" style="fill:rgb(183,181,179)"/>
<polygon points="86,273 0,314 155,314" style="fill:rgb(15,17,18)"/>
<polygon points="379,23 369,49 383,57" style="fill:rgb(64,49,39)"/>
<polygon points="355,19 354,6 327,16" style="fill:rgb(102,85,71)"/>
<polygon points="418,87 403,67 407,82" style="fill:rgb(126,97,74)"/>
<polygon points="407,82 403,67 385,61" style="fill:rgb(157,123,95)"/>
<polygon points="65,43 71,47 80,0" style="fill:rgb(53,61,70)"/>
<polygon points="83,50 71,47 77,75" style="fill:rgb(34,41,46)"/>
<polygon points="74,234 68,229 39,242" style="fill:rgb(153,146,138)"/>
<polygon points="329,314 342,314 330,310" style="fill:rgb(248,249,250)"/>
<polygon points="355,276 387,272 364,245" style="fill:rgb(46,43,42)"/>
<polygon points="450,134 426,164 474,204" style="fill:rgb(57,64,77)"/>
<polygon points="414,185 426,164 413,158" style="fill:rgb(213,175,151)"/>
<polygon points="416,115 431,87 416,101" style="fill:rgb(63,47,37)"/>
<polygon points="342,314 343,314 355,276" style="fill:rgb(144,142,138)"/>
<polygon points="396,307 387,272 355,276" style="fill:rgb(42,38,41)"/>
<polygon points="426,164 427,149 413,158" style="fill:rgb(212,165,135)"/>
<polygon points="408,0 352,0 354,6" style="fill:rgb(39,33,27)"/>
<polygon points="354,6 352,0 327,16" style="fill:rgb(83,69,55)"/>
<polygon points="53,181 39,191 56,204" style="fill:rgb(33,33,34)"/>
<polygon points="56,204 44,217 57,205" style="fill:rgb(101,89,76)"/>
<polygon points="55,108 39,191 53,181" style="fill:rgb(41,48,53)"/>
<polygon points="417,40 379,23 383,57" style="fill:rgb(70,54,42)"/>
<polygon points="39,191 44,217 56,204" style="fill:rgb(33,31,31)"/>
<polygon points="39,242 68,229 63,224" style="fill:rgb(202,195,188)"/>
<polygon points="72,265 69,267 77,269" style="fill:rgb(92,88,90)"/>
<polygon points="77,269 54,272 86,273" style="fill:rgb(32,30,32)"/>
<polygon points="416,101 418,87 412,99" style="fill:rgb(123,95,69)"/>
<polygon points="403,67 417,40 383,57" style="fill:rgb(75,56,44)"/>
<polygon points="431,87 418,87 416,101" style="fill:rgb(80,61,46)"/>
<polygon points="80,0 71,47 83,50" style="fill:rgb(36,42,49)"/>
<polygon points="71,47 65,43 59,88" style="fill:rgb(56,64,72)"/>
<polygon points="59,88 40,89 55,108" style="fill:rgb(69,81,90)"/>
<polygon points="55,108 31,196 39,191" style="fill:rgb(59,67,74)"/>
<polygon points="435,139 432,130 427,149" style="fill:rgb(193,151,128)"/>
<polygon points="427,149 432,130 414,148" style="fill:rgb(176,117,89)"/>
<polygon points="65,43 40,89 59,88" style="fill:rgb(70,80,91)"/>
<polygon points="426,164 435,139 427,149" style="fill:rgb(192,152,137)"/>
<polygon points="432,130 431,87 416,115" style="fill:rgb(35,28,24)"/>
<polygon points="40,89 31,196 55,108" style="fill:rgb(75,86,96)"/>
<polygon points="39,191 31,196 44,217" style="fill:rgb(28,27,29)"/>
<polygon points="44,217 39,232 63,224" style="fill:rgb(193,186,178)"/>
<polygon points="131,0 95,0 83,50" style="fill:rgb(51,59,72)"/>
<polygon points="37,230 39,232 44,217" style="fill:rgb(142,126,107)"/>
<polygon points="31,196 37,230 44,217" style="fill:rgb(33,30,26)"/>
<polygon points="39,232 39,242 63,224" style="fill:rgb(156,151,146)"/>
<polygon points="447,88 431,87 432,130" style="fill:rgb(29,27,27)"/>
<polygon points="418,87 431,87 403,67" style="fill:rgb(88,70,54)"/>
<polygon points="36,247 39,242 37,230" style="fill:rgb(48,47,43)"/>
<polygon points="37,230 39,242 39,232" style="fill:rgb(119,116,115)"/>
<polygon points="52,271 54,272 69,267" style="fill:rgb(125,122,122)"/>
<polygon points="69,267 54,272 77,269" style="fill:rgb(53,47,49)"/>
<polygon points="39,242 52,271 69,267" style="fill:rgb(166,165,163)"/>
<polygon points="95,0 80,0 83,50" style="fill:rgb(35,42,47)"/>
<polygon points="65,43 55,17 40,89" style="fill:rgb(64,75,86)"/>
<polygon points="0,214 36,247 37,230" style="fill:rgb(23,23,25)"/>
<polygon points="39,242 48,270 52,271" style="fill:rgb(111,108,105)"/>
<polygon points="36,247 48,270 39,242" style="fill:rgb(62,59,56)"/>
<polygon points="52,271 48,270 54,272" style="fill:rgb(48,46,45)"/>
<polygon points="54,272 0,314 86,273" style="fill:rgb(13,15,16)"/>
<polygon points="448,62 417,40 403,67" style="fill:rgb(62,48,38)"/>
<polygon points="379,23 408,0 354,6" style="fill:rgb(51,40,33)"/>
<polygon points="426,164 450,134 435,139" style="fill:rgb(50,55,62)"/>
<polygon points="435,139 450,134 432,130" style="fill:rgb(55,60,63)"/>
<polygon points="431,87 448,62 403,67" style="fill:rgb(75,59,47)"/>
<polygon points="474,204 426,164 414,185" style="fill:rgb(58,66,76)"/>
<polygon points="80,0 55,17 65,43" style="fill:rgb(65,74,85)"/>
<polygon points="343,314 396,307 355,276" style="fill:rgb(38,35,35)"/>
<polygon points="387,272 420,277 372,244" style="fill:rgb(64,61,65)"/>
<polygon points="396,307 420,277 387,272" style="fill:rgb(54,50,53)"/>
<polygon points="450,134 447,88 432,130" style="fill:rgb(46,51,62)"/>
<polygon points="438,15 408,0 417,40" style="fill:rgb(69,56,46)"/>
<polygon points="417,40 408,0 379,23" style="fill:rgb(51,39,33)"/>
<polygon points="474,42 448,62 447,88" style="fill:rgb(40,47,57)"/>
<polygon points="447,88 448,62 431,87" style="fill:rgb(44,36,34)"/>
<polygon points="40,89 0,214 31,196" style="fill:rgb(73,85,94)"/>
<polygon points="31,196 0,214 37,230" style="fill:rgb(27,26,29)"/>
<polygon points="36,247 0,314 48,270" style="fill:rgb(15,16,17)"/>
<polygon points="0,0 0,214 40,89" style="fill:rgb(64,75,87)"/>
<polygon points="420,277 474,204 401,203" style="fill:rgb(62,72,86)"/>
<polygon points="450,134 474,42 447,88" style="fill:rgb(44,52,62)"/>
<polygon points="448,62 438,15 417,40" style="fill:rgb(48,40,33)"/>
<polygon points="474,204 474,42 450,134" style="fill:rgb(52,59,72)"/>
<polygon points="448,62 474,42 438,15" style="fill:rgb(39,45,55)"/>
<polygon points="80,0 0,0 55,17" style="fill:rgb(56,64,77)"/>
<polygon points="55,17 0,0 40,89" style="fill:rgb(57,64,77)"/>
<polygon points="0,214 0,314 36,247" style="fill:rgb(17,18,19)"/>
<polygon points="48,270 0,314 54,272" style="fill:rgb(13,14,15)"/>
<polygon points="474,314 474,300 420,277" style="fill:rgb(60,56,61)"/>
<polygon points="420,277 474,300 474,204" style="fill:rgb(63,74,86)"/>
<polygon points="474,314 420,277 396,307" style="fill:rgb(48,46,48)"/>
<polygon points="474,42 474,0 438,15" style="fill:rgb(36,42,53)"/>
<polygon points="438,15 474,0 408,0" style="fill:rgb(40,44,51)"/>
<polygon points="343,314 474,314 396,307" style="fill:rgb(39,36,39)"/>
</svg>