<?xml version="1.0"?>
<svg width="1200" height="630"
     xmlns="http://www.w3.org/2000/svg"
     shape-rendering="crispEdges">
<polygon points="577,330 567,370 591,346" style="fill:rgb(165,92,91)"/>
<polygon points="567,370 595,371 591,346" style="fill:rgb(131,61,60)"/>
<polygon points="577,380 595,371 567,370" style="fill:rgb(90,29,31)"/>
<polygon points="577,330 542,369 567,370" style="fill:rgb(169,104,105)"/>
<polygon points="567,370 529,392 577,380" style="fill:rgb(61,20,20)"/>
<polygon points="540,421 582,383 577,380" style="fill:rgb(138,85,76)"/>
<polygon points="577,380 582,383 595,371" style="fill:rgb(92,36,36)"/>
<polygon points="621,357 620,345 591,346" style="fill:rgb(149,68,66)"/>
<polygon points="591,346 620,345 577,330" style="fill:rgb(180,99,97)"/>
<polygon points="499,307 528,376 542,369" style="fill:rgb(196,131,133)"/>
<polygon points="542,369 529,392 567,370" style="fill:rgb(116,55,56)"/>
<polygon points="602,419 621,357 595,371" style="fill:rgb(183,115,108)"/>
<polygon points="595,371 621,357 591,346" style="fill:rgb(182,108,106)"/>
<polygon points="528,376 529,392 542,369" style="fill:rgb(152,81,77)"/>
<polygon points="606,279 577,289 577,330" style="fill:rgb(225,157,151)"/>
<polygon points="577,330 513,300 542,369" style="fill:rgb(170,103,104)"/>
<polygon points="577,289 563,282 577,330" style="fill:rgb(207,137,132)"/>
<polygon points="655,331 639,325 620,345" style="fill:rgb(209,133,131)"/>
<polygon points="620,345 639,325 577,330" style="fill:rgb(210,136,134)"/>
<polygon points="480,385 507,390 528,376" style="fill:rgb(214,151,145)"/>
<polygon points="528,376 507,390 529,392" style="fill:rgb(170,94,90)"/>
<polygon points="580,437 602,419 582,383" style="fill:rgb(176,106,107)"/>
<polygon points="582,383 602,419 595,371" style="fill:rgb(173,110,106)"/>
<polygon points="663,350 655,331 620,345" style="fill:rgb(186,103,101)"/>
<polygon points="540,421 577,380 529,392" style="fill:rgb(61,23,20)"/>
<polygon points="534,281 513,300 577,330" style="fill:rgb(175,104,99)"/>
<polygon points="508,404 540,421 529,392" style="fill:rgb(74,30,31)"/>
<polygon points="563,282 534,281 577,330" style="fill:rgb(189,115,109)"/>
<polygon points="639,325 606,279 577,330" style="fill:rgb(231,167,166)"/>
<polygon points="577,289 587,272 563,282" style="fill:rgb(175,113,103)"/>
<polygon points="563,282 572,255 534,281" style="fill:rgb(164,100,94)"/>
<polygon points="606,279 587,272 577,289" style="fill:rgb(174,106,95)"/>
<polygon points="507,390 508,404 529,392" style="fill:rgb(140,66,61)"/>
<polygon points="469,306 499,307 465,293" style="fill:rgb(217,162,158)"/>
<polygon points="513,300 499,307 542,369" style="fill:rgb(182,115,117)"/>
<polygon points="507,390 487,403 508,404" style="fill:rgb(159,89,85)"/>
<polygon points="663,350 620,345 621,357" style="fill:rgb(158,78,76)"/>
<polygon points="639,325 646,261 606,279" style="fill:rgb(224,158,154)"/>
<polygon points="580,437 607,429 602,419" style="fill:rgb(138,64,70)"/>
<polygon points="691,376 663,350 621,357" style="fill:rgb(128,54,49)"/>
<polygon points="540,421 580,437 582,383" style="fill:rgb(180,119,111)"/>
<polygon points="499,307 484,321 528,376" style="fill:rgb(220,156,159)"/>
<polygon points="691,376 621,357 602,419" style="fill:rgb(181,119,110)"/>
<polygon points="490,421 509,421 508,404" style="fill:rgb(71,20,23)"/>
<polygon points="508,404 509,421 540,421" style="fill:rgb(49,15,16)"/>
<polygon points="526,492 591,453 580,437" style="fill:rgb(209,146,146)"/>
<polygon points="652,232 572,255 587,272" style="fill:rgb(174,121,117)"/>
<polygon points="587,272 572,255 563,282" style="fill:rgb(185,126,120)"/>
<polygon points="484,321 480,385 528,376" style="fill:rgb(230,175,174)"/>
<polygon points="480,385 487,403 507,390" style="fill:rgb(200,140,128)"/>
<polygon points="490,421 507,426 509,421" style="fill:rgb(116,57,49)"/>
<polygon points="509,421 507,426 540,421" style="fill:rgb(143,96,88)"/>
<polygon points="580,437 591,453 607,429" style="fill:rgb(190,119,125)"/>
<polygon points="697,391 691,376 602,419" style="fill:rgb(148,86,78)"/>
<polygon points="515,461 580,437 540,421" style="fill:rgb(205,145,143)"/>
<polygon points="469,306 467,325 484,321" style="fill:rgb(210,150,146)"/>
<polygon points="484,321 467,325 480,385" style="fill:rgb(207,144,136)"/>
<polygon points="469,306 484,321 499,307" style="fill:rgb(227,170,168)"/>
<polygon points="499,307 484,254 465,293" style="fill:rgb(224,163,156)"/>
<polygon points="487,403 490,421 508,404" style="fill:rgb(108,49,48)"/>
<polygon points="507,426 515,461 540,421" style="fill:rgb(210,158,147)"/>
<polygon points="474,430 490,421 487,403" style="fill:rgb(184,115,103)"/>
<polygon points="591,453 623,446 607,429" style="fill:rgb(177,110,110)"/>
<polygon points="467,325 468,389 480,385" style="fill:rgb(205,134,119)"/>
<polygon points="480,385 468,389 487,403" style="fill:rgb(201,139,126)"/>
<polygon points="502,246 513,300 534,281" style="fill:rgb(159,89,82)"/>
<polygon points="572,255 527,243 534,281" style="fill:rgb(134,74,71)"/>
<polygon points="655,331 646,261 639,325" style="fill:rgb(218,151,153)"/>
<polygon points="606,279 652,232 587,272" style="fill:rgb(158,89,79)"/>
<polygon points="564,193 520,224 527,243" style="fill:rgb(111,51,50)"/>
<polygon points="706,290 646,261 655,331" style="fill:rgb(200,128,126)"/>
<polygon points="484,254 499,307 513,300" style="fill:rgb(204,138,132)"/>
<polygon points="469,306 408,336 467,325" style="fill:rgb(183,132,134)"/>
<polygon points="432,373 443,395 468,389" style="fill:rgb(233,171,162)"/>
<polygon points="697,391 602,419 607,429" style="fill:rgb(128,64,63)"/>
<polygon points="663,350 706,290 655,331" style="fill:rgb(182,100,97)"/>
<polygon points="527,243 502,246 534,281" style="fill:rgb(129,70,62)"/>
<polygon points="474,430 507,426 490,421" style="fill:rgb(210,144,132)"/>
<polygon points="474,430 515,461 507,426" style="fill:rgb(220,162,149)"/>
<polygon points="459,427 474,430 487,403" style="fill:rgb(186,106,90)"/>
<polygon points="546,504 596,474 591,453" style="fill:rgb(154,79,71)"/>
<polygon points="591,453 596,474 623,446" style="fill:rgb(158,86,79)"/>
<polygon points="661,450 697,391 607,429" style="fill:rgb(176,103,98)"/>
<polygon points="502,246 484,254 513,300" style="fill:rgb(185,114,107)"/>
<polygon points="661,450 607,429 623,446" style="fill:rgb(168,96,92)"/>
<polygon points="699,244 652,232 646,261" style="fill:rgb(181,119,109)"/>
<polygon points="641,522 661,450 623,446" style="fill:rgb(160,83,73)"/>
<polygon points="432,373 468,389 467,325" style="fill:rgb(227,168,161)"/>
<polygon points="468,389 459,427 487,403" style="fill:rgb(204,131,119)"/>
<polygon points="576,201 527,243 572,255" style="fill:rgb(151,95,92)"/>
<polygon points="527,243 520,224 502,246" style="fill:rgb(127,63,63)"/>
<polygon points="502,246 506,218 484,254" style="fill:rgb(168,99,94)"/>
<polygon points="443,395 459,427 468,389" style="fill:rgb(221,150,143)"/>
<polygon points="491,483 517,475 515,461" style="fill:rgb(178,112,105)"/>
<polygon points="491,483 515,461 474,430" style="fill:rgb(205,148,135)"/>
<polygon points="515,461 517,475 580,437" style="fill:rgb(179,109,114)"/>
<polygon points="428,368 432,373 467,325" style="fill:rgb(196,134,130)"/>
<polygon points="706,290 663,350 747,338" style="fill:rgb(164,87,79)"/>
<polygon points="646,261 652,232 606,279" style="fill:rgb(196,130,121)"/>
<polygon points="413,354 428,368 467,325" style="fill:rgb(171,99,97)"/>
<polygon points="432,373 392,379 443,395" style="fill:rgb(236,179,166)"/>
<polygon points="463,491 474,430 439,470" style="fill:rgb(148,71,60)"/>
<polygon points="413,354 467,325 408,336" style="fill:rgb(202,152,154)"/>
<polygon points="661,450 709,392 697,391" style="fill:rgb(196,124,111)"/>
<polygon points="697,391 709,392 691,376" style="fill:rgb(197,133,120)"/>
<polygon points="462,242 454,263 484,254" style="fill:rgb(203,130,124)"/>
<polygon points="484,254 454,263 465,293" style="fill:rgb(203,134,124)"/>
<polygon points="555,186 506,218 520,224" style="fill:rgb(165,111,109)"/>
<polygon points="520,224 506,218 502,246" style="fill:rgb(159,96,96)"/>
<polygon points="747,338 663,350 691,376" style="fill:rgb(154,80,71)"/>
<polygon points="628,197 576,201 572,255" style="fill:rgb(159,97,97)"/>
<polygon points="502,490 526,492 517,475" style="fill:rgb(208,150,153)"/>
<polygon points="517,475 526,492 580,437" style="fill:rgb(225,162,168)"/>
<polygon points="506,218 462,242 484,254" style="fill:rgb(192,120,117)"/>
<polygon points="463,491 491,483 474,430" style="fill:rgb(197,139,125)"/>
<polygon points="491,483 502,490 517,475" style="fill:rgb(110,52,52)"/>
<polygon points="517,529 546,504 526,492" style="fill:rgb(176,99,94)"/>
<polygon points="526,492 546,504 591,453" style="fill:rgb(162,87,82)"/>
<polygon points="641,522 684,486 661,450" style="fill:rgb(181,109,98)"/>
<polygon points="628,197 564,193 576,201" style="fill:rgb(141,89,81)"/>
<polygon points="576,201 564,193 527,243" style="fill:rgb(102,52,47)"/>
<polygon points="408,336 469,306 401,326" style="fill:rgb(71,34,36)"/>
<polygon points="428,368 392,379 432,373" style="fill:rgb(215,155,139)"/>
<polygon points="463,491 477,500 491,483" style="fill:rgb(154,94,78)"/>
<polygon points="469,306 465,293 401,326" style="fill:rgb(120,68,69)"/>
<polygon points="684,208 628,197 652,232" style="fill:rgb(143,88,83)"/>
<polygon points="652,232 628,197 572,255" style="fill:rgb(121,66,64)"/>
<polygon points="401,326 465,293 395,319" style="fill:rgb(171,110,114)"/>
<polygon points="628,197 555,186 564,193" style="fill:rgb(136,86,77)"/>
<polygon points="564,193 555,186 520,224" style="fill:rgb(134,84,78)"/>
<polygon points="506,218 444,191 462,242" style="fill:rgb(210,144,141)"/>
<polygon points="706,290 699,244 646,261" style="fill:rgb(186,124,116)"/>
<polygon points="395,319 465,293 391,312" style="fill:rgb(141,79,78)"/>
<polygon points="408,336 392,341 413,354" style="fill:rgb(193,149,148)"/>
<polygon points="517,529 565,522 546,504" style="fill:rgb(166,91,84)"/>
<polygon points="546,504 565,522 596,474" style="fill:rgb(217,147,136)"/>
<polygon points="709,392 747,338 691,376" style="fill:rgb(168,99,87)"/>
<polygon points="706,290 752,262 699,244" style="fill:rgb(164,99,89)"/>
<polygon points="474,430 459,427 439,470" style="fill:rgb(185,103,92)"/>
<polygon points="491,483 477,500 502,490" style="fill:rgb(109,48,44)"/>
<polygon points="502,490 517,529 526,492" style="fill:rgb(195,130,124)"/>
<polygon points="641,522 623,446 596,474" style="fill:rgb(156,77,71)"/>
<polygon points="661,450 753,467 709,392" style="fill:rgb(177,106,90)"/>
<polygon points="709,392 756,396 747,338" style="fill:rgb(154,86,70)"/>
<polygon points="439,470 459,427 409,469" style="fill:rgb(198,124,116)"/>
<polygon points="459,427 380,447 409,469" style="fill:rgb(217,147,137)"/>
<polygon points="391,312 465,293 386,286" style="fill:rgb(165,108,105)"/>
<polygon points="401,326 392,341 408,336" style="fill:rgb(126,66,70)"/>
<polygon points="392,379 428,368 413,354" style="fill:rgb(181,111,99)"/>
<polygon points="395,319 392,341 401,326" style="fill:rgb(172,112,117)"/>
<polygon points="377,363 392,379 413,354" style="fill:rgb(198,144,134)"/>
<polygon points="752,190 684,208 699,244" style="fill:rgb(155,92,84)"/>
<polygon points="699,244 684,208 652,232" style="fill:rgb(157,98,92)"/>
<polygon points="395,319 380,323 392,341" style="fill:rgb(136,75,75)"/>
<polygon points="392,341 377,363 413,354" style="fill:rgb(205,160,157)"/>
<polygon points="386,286 465,293 454,263" style="fill:rgb(129,64,60)"/>
<polygon points="611,542 641,522 596,474" style="fill:rgb(178,95,94)"/>
<polygon points="485,538 517,529 477,500" style="fill:rgb(208,146,132)"/>
<polygon points="477,500 517,529 502,490" style="fill:rgb(201,139,130)"/>
<polygon points="565,522 611,542 596,474" style="fill:rgb(204,126,125)"/>
<polygon points="753,467 756,396 709,392" style="fill:rgb(158,87,74)"/>
<polygon points="391,312 380,323 395,319" style="fill:rgb(160,96,100)"/>
<polygon points="369,362 377,363 392,341" style="fill:rgb(140,82,78)"/>
<polygon points="380,447 459,427 443,395" style="fill:rgb(229,164,157)"/>
<polygon points="529,137 521,162 555,186" style="fill:rgb(188,118,109)"/>
<polygon points="555,186 521,162 506,218" style="fill:rgb(185,131,122)"/>
<polygon points="388,274 386,286 454,263" style="fill:rgb(164,106,98)"/>
<polygon points="391,312 358,300 380,323" style="fill:rgb(174,115,111)"/>
<polygon points="529,137 555,186 667,146" style="fill:rgb(176,110,102)"/>
<polygon points="388,274 454,263 462,242" style="fill:rgb(189,124,119)"/>
<polygon points="517,529 560,545 565,522" style="fill:rgb(191,118,108)"/>
<polygon points="560,545 611,542 565,522" style="fill:rgb(199,114,117)"/>
<polygon points="444,191 388,274 462,242" style="fill:rgb(213,148,145)"/>
<polygon points="380,447 443,395 392,379" style="fill:rgb(242,194,183)"/>
<polygon points="439,470 441,511 463,491" style="fill:rgb(151,74,61)"/>
<polygon points="441,511 485,538 477,500" style="fill:rgb(206,143,125)"/>
<polygon points="779,250 752,262 821,286" style="fill:rgb(136,78,71)"/>
<polygon points="747,338 752,262 706,290" style="fill:rgb(152,82,71)"/>
<polygon points="380,323 369,362 392,341" style="fill:rgb(117,53,51)"/>
<polygon points="377,363 369,362 392,379" style="fill:rgb(163,108,98)"/>
<polygon points="355,326 369,362 380,323" style="fill:rgb(171,111,107)"/>
<polygon points="355,326 380,323 358,300" style="fill:rgb(173,116,106)"/>
<polygon points="521,162 444,191 506,218" style="fill:rgb(207,144,136)"/>
<polygon points="441,511 477,500 463,491" style="fill:rgb(178,107,89)"/>
<polygon points="517,529 510,612 560,545" style="fill:rgb(208,145,131)"/>
<polygon points="421,517 441,511 439,470" style="fill:rgb(178,108,93)"/>
<polygon points="349,365 380,447 392,379" style="fill:rgb(222,172,157)"/>
<polygon points="409,469 421,517 439,470" style="fill:rgb(183,116,100)"/>
<polygon points="667,146 555,186 628,197" style="fill:rgb(156,102,94)"/>
<polygon points="521,162 449,127 444,191" style="fill:rgb(195,125,118)"/>
<polygon points="745,532 753,467 684,486" style="fill:rgb(173,111,100)"/>
<polygon points="684,486 753,467 661,450" style="fill:rgb(178,107,96)"/>
<polygon points="688,538 684,486 641,522" style="fill:rgb(193,128,122)"/>
<polygon points="358,300 391,312 386,286" style="fill:rgb(155,104,93)"/>
<polygon points="369,362 349,365 392,379" style="fill:rgb(172,120,111)"/>
<polygon points="371,468 398,483 409,469" style="fill:rgb(213,147,142)"/>
<polygon points="388,274 358,300 386,286" style="fill:rgb(186,148,135)"/>
<polygon points="366,250 358,300 388,274" style="fill:rgb(218,179,169)"/>
<polygon points="688,538 641,522 624,582" style="fill:rgb(176,106,108)"/>
<polygon points="694,553 688,538 624,582" style="fill:rgb(159,90,90)"/>
<polygon points="340,339 369,362 355,326" style="fill:rgb(196,153,143)"/>
<polygon points="340,339 349,365 369,362" style="fill:rgb(201,158,148)"/>
<polygon points="398,483 421,517 409,469" style="fill:rgb(189,130,118)"/>
<polygon points="441,511 437,544 485,538" style="fill:rgb(187,119,104)"/>
<polygon points="752,190 667,146 684,208" style="fill:rgb(156,95,88)"/>
<polygon points="684,208 667,146 628,197" style="fill:rgb(160,103,94)"/>
<polygon points="444,191 366,250 388,274" style="fill:rgb(222,160,156)"/>
<polygon points="398,483 399,502 421,517" style="fill:rgb(238,185,177)"/>
<polygon points="371,468 399,502 398,483" style="fill:rgb(214,156,157)"/>
<polygon points="371,468 409,469 380,447" style="fill:rgb(203,139,133)"/>
<polygon points="349,365 366,455 380,447" style="fill:rgb(162,111,105)"/>
<polygon points="325,278 340,339 358,300" style="fill:rgb(214,175,162)"/>
<polygon points="358,300 340,339 355,326" style="fill:rgb(184,141,128)"/>
<polygon points="287,413 342,466 366,455" style="fill:rgb(38,31,47)"/>
<polygon points="818,321 752,262 747,338" style="fill:rgb(161,89,78)"/>
<polygon points="752,262 752,190 699,244" style="fill:rgb(151,88,83)"/>
<polygon points="818,321 747,338 826,363" style="fill:rgb(158,85,76)"/>
<polygon points="366,455 371,468 380,447" style="fill:rgb(166,105,108)"/>
<polygon points="371,468 398,509 399,502" style="fill:rgb(111,75,79)"/>
<polygon points="399,502 398,509 421,517" style="fill:rgb(216,167,165)"/>
<polygon points="426,553 437,544 421,517" style="fill:rgb(219,155,147)"/>
<polygon points="421,517 437,544 441,511" style="fill:rgb(189,127,113)"/>
<polygon points="599,595 611,542 560,545" style="fill:rgb(181,99,103)"/>
<polygon points="624,582 641,522 611,542" style="fill:rgb(154,74,79)"/>
<polygon points="745,532 778,479 753,467" style="fill:rgb(153,89,78)"/>
<polygon points="624,582 611,542 599,595" style="fill:rgb(160,85,86)"/>
<polygon points="599,595 510,612 597,607" style="fill:rgb(173,112,109)"/>
<polygon points="779,250 752,190 752,262" style="fill:rgb(136,82,77)"/>
<polygon points="426,553 445,558 437,544" style="fill:rgb(160,92,93)"/>
<polygon points="437,544 445,558 485,538" style="fill:rgb(182,114,105)"/>
<polygon points="745,532 684,486 688,538" style="fill:rgb(165,103,97)"/>
<polygon points="753,467 778,479 756,396" style="fill:rgb(146,78,66)"/>
<polygon points="510,612 517,529 485,538" style="fill:rgb(193,130,115)"/>
<polygon points="624,582 691,577 694,553" style="fill:rgb(128,68,62)"/>
<polygon points="826,363 747,338 756,396" style="fill:rgb(152,81,68)"/>
<polygon points="779,250 810,224 752,190" style="fill:rgb(107,61,56)"/>
<polygon points="398,509 426,553 421,517" style="fill:rgb(224,173,170)"/>
<polygon points="426,556 426,553 398,509" style="fill:rgb(144,106,109)"/>
<polygon points="667,146 532,103 529,137" style="fill:rgb(162,95,87)"/>
<polygon points="529,137 449,127 521,162" style="fill:rgb(186,115,107)"/>
<polygon points="444,191 362,202 366,250" style="fill:rgb(226,165,158)"/>
<polygon points="333,630 426,556 398,509" style="fill:rgb(13,12,20)"/>
<polygon points="426,553 426,556 445,558" style="fill:rgb(99,55,62)"/>
<polygon points="445,558 458,576 485,538" style="fill:rgb(170,109,99)"/>
<polygon points="754,556 745,532 694,553" style="fill:rgb(120,68,59)"/>
<polygon points="694,553 745,532 688,538" style="fill:rgb(141,83,76)"/>
<polygon points="426,556 458,576 445,558" style="fill:rgb(39,19,23)"/>
<polygon points="480,85 449,127 529,137" style="fill:rgb(177,121,118)"/>
<polygon points="347,185 362,202 444,191" style="fill:rgb(205,145,133)"/>
<polygon points="366,250 325,278 358,300" style="fill:rgb(233,183,172)"/>
<polygon points="840,369 826,363 836,405" style="fill:rgb(92,34,29)"/>
<polygon points="320,240 325,278 366,250" style="fill:rgb(219,163,143)"/>
<polygon points="309,377 366,455 349,365" style="fill:rgb(145,102,96)"/>
<polygon points="366,455 342,466 371,468" style="fill:rgb(33,25,32)"/>
<polygon points="371,468 342,466 398,509" style="fill:rgb(19,13,21)"/>
<polygon points="309,377 349,365 340,339" style="fill:rgb(150,111,105)"/>
<polygon points="595,630 691,577 624,582" style="fill:rgb(117,61,58)"/>
<polygon points="837,295 821,286 818,321" style="fill:rgb(129,66,61)"/>
<polygon points="818,321 821,286 752,262" style="fill:rgb(154,91,81)"/>
<polygon points="510,612 599,595 560,545" style="fill:rgb(198,134,127)"/>
<polygon points="599,595 597,607 624,582" style="fill:rgb(154,95,89)"/>
<polygon points="752,190 695,121 667,146" style="fill:rgb(146,97,93)"/>
<polygon points="639,67 557,66 532,103" style="fill:rgb(140,92,90)"/>
<polygon points="296,295 309,377 340,339" style="fill:rgb(160,123,117)"/>
<polygon points="333,630 485,604 458,576" style="fill:rgb(10,9,16)"/>
<polygon points="458,576 485,604 485,538" style="fill:rgb(162,105,94)"/>
<polygon points="485,604 510,612 485,538" style="fill:rgb(170,109,100)"/>
<polygon points="836,405 826,363 756,396" style="fill:rgb(144,76,63)"/>
<polygon points="826,363 876,332 818,321" style="fill:rgb(197,134,123)"/>
<polygon points="745,532 797,497 778,479" style="fill:rgb(125,68,57)"/>
<polygon points="778,479 836,405 756,396" style="fill:rgb(133,68,57)"/>
<polygon points="754,556 797,497 745,532" style="fill:rgb(103,53,45)"/>
<polygon points="836,257 779,250 821,286" style="fill:rgb(111,55,53)"/>
<polygon points="836,257 810,224 779,250" style="fill:rgb(125,76,71)"/>
<polygon points="752,190 727,101 695,121" style="fill:rgb(147,112,112)"/>
<polygon points="844,470 836,405 778,479" style="fill:rgb(123,63,56)"/>
<polygon points="876,332 837,295 818,321" style="fill:rgb(201,143,130)"/>
<polygon points="362,202 320,240 366,250" style="fill:rgb(214,155,134)"/>
<polygon points="278,290 297,388 309,377" style="fill:rgb(92,71,81)"/>
<polygon points="691,577 754,556 694,553" style="fill:rgb(101,53,48)"/>
<polygon points="296,295 340,339 325,278" style="fill:rgb(173,136,127)"/>
<polygon points="309,377 297,388 366,455" style="fill:rgb(130,96,92)"/>
<polygon points="362,202 347,185 320,240" style="fill:rgb(195,131,112)"/>
<polygon points="449,127 347,185 444,191" style="fill:rgb(196,136,128)"/>
<polygon points="557,66 480,85 532,103" style="fill:rgb(156,110,108)"/>
<polygon points="532,103 480,85 529,137" style="fill:rgb(160,104,100)"/>
<polygon points="449,127 381,94 347,185" style="fill:rgb(197,154,147)"/>
<polygon points="320,240 296,295 325,278" style="fill:rgb(179,131,120)"/>
<polygon points="837,295 836,257 821,286" style="fill:rgb(134,66,67)"/>
<polygon points="879,255 836,257 837,295" style="fill:rgb(158,86,80)"/>
<polygon points="522,630 595,630 597,607" style="fill:rgb(133,79,76)"/>
<polygon points="597,607 595,630 624,582" style="fill:rgb(130,72,69)"/>
<polygon points="691,577 745,612 754,556" style="fill:rgb(79,43,39)"/>
<polygon points="639,67 532,103 667,146" style="fill:rgb(136,76,71)"/>
<polygon points="485,604 522,630 510,612" style="fill:rgb(135,92,91)"/>
<polygon points="510,612 522,630 597,607" style="fill:rgb(153,97,93)"/>
<polygon points="836,405 857,397 840,369" style="fill:rgb(144,80,67)"/>
<polygon points="840,369 876,332 826,363" style="fill:rgb(167,92,83)"/>
<polygon points="864,455 857,397 836,405" style="fill:rgb(169,103,86)"/>
<polygon points="268,405 287,413 297,388" style="fill:rgb(17,14,42)"/>
<polygon points="297,388 287,413 366,455" style="fill:rgb(88,68,79)"/>
<polygon points="342,466 333,630 398,509" style="fill:rgb(10,11,23)"/>
<polygon points="713,88 639,67 695,121" style="fill:rgb(126,80,81)"/>
<polygon points="695,121 639,67 667,146" style="fill:rgb(135,83,82)"/>
<polygon points="745,101 752,190 767,112" style="fill:rgb(93,57,53)"/>
<polygon points="745,101 727,101 752,190" style="fill:rgb(112,78,75)"/>
<polygon points="857,397 868,361 840,369" style="fill:rgb(150,89,75)"/>
<polygon points="727,101 713,88 695,121" style="fill:rgb(134,96,94)"/>
<polygon points="836,540 844,470 797,497" style="fill:rgb(116,60,55)"/>
<polygon points="797,497 844,470 778,479" style="fill:rgb(113,55,53)"/>
<polygon points="902,406 902,328 868,361" style="fill:rgb(128,78,72)"/>
<polygon points="273,238 278,290 296,295" style="fill:rgb(137,100,86)"/>
<polygon points="296,295 278,290 309,377" style="fill:rgb(133,95,91)"/>
<polygon points="271,288 278,290 273,238" style="fill:rgb(72,49,51)"/>
<polygon points="767,112 752,190 816,111" style="fill:rgb(85,50,47)"/>
<polygon points="727,101 745,101 713,88" style="fill:rgb(133,97,95)"/>
<polygon points="902,328 876,332 868,361" style="fill:rgb(129,78,69)"/>
<polygon points="868,361 876,332 840,369" style="fill:rgb(135,69,62)"/>
<polygon points="273,238 296,295 320,240" style="fill:rgb(160,115,97)"/>
<polygon points="278,290 271,288 297,388" style="fill:rgb(57,44,59)"/>
<polygon points="247,287 268,405 297,388" style="fill:rgb(14,10,29)"/>
<polygon points="287,413 262,630 342,466" style="fill:rgb(9,9,43)"/>
<polygon points="857,172 752,190 810,224" style="fill:rgb(105,64,57)"/>
<polygon points="857,172 810,224 895,201" style="fill:rgb(133,84,79)"/>
<polygon points="875,477 864,455 844,470" style="fill:rgb(164,93,82)"/>
<polygon points="844,470 864,455 836,405" style="fill:rgb(161,91,79)"/>
<polygon points="595,630 745,612 691,577" style="fill:rgb(70,36,35)"/>
<polygon points="815,575 836,540 797,497" style="fill:rgb(90,46,42)"/>
<polygon points="261,221 320,240 347,185" style="fill:rgb(181,132,116)"/>
<polygon points="261,221 273,238 320,240" style="fill:rgb(155,118,105)"/>
<polygon points="483,40 381,94 480,85" style="fill:rgb(173,134,133)"/>
<polygon points="480,85 381,94 449,127" style="fill:rgb(178,134,130)"/>
<polygon points="902,328 885,292 876,332" style="fill:rgb(130,89,84)"/>
<polygon points="876,332 885,292 837,295" style="fill:rgb(191,126,119)"/>
<polygon points="683,42 613,31 639,67" style="fill:rgb(132,98,97)"/>
<polygon points="639,67 613,31 557,66" style="fill:rgb(149,113,113)"/>
<polygon points="557,66 483,40 480,85" style="fill:rgb(167,126,128)"/>
<polygon points="683,42 639,67 713,88" style="fill:rgb(111,72,72)"/>
<polygon points="683,42 713,88 730,35" style="fill:rgb(110,76,77)"/>
<polygon points="536,0 483,40 557,66" style="fill:rgb(171,138,139)"/>
<polygon points="885,292 879,255 837,295" style="fill:rgb(181,109,102)"/>
<polygon points="381,94 328,136 347,185" style="fill:rgb(205,170,157)"/>
<polygon points="815,575 797,497 754,556" style="fill:rgb(70,35,31)"/>
<polygon points="730,35 713,88 745,101" style="fill:rgb(131,97,98)"/>
<polygon points="815,575 838,541 836,540" style="fill:rgb(125,99,97)"/>
<polygon points="836,540 875,477 844,470" style="fill:rgb(123,68,61)"/>
<polygon points="246,239 247,287 271,288" style="fill:rgb(24,13,20)"/>
<polygon points="271,288 247,287 297,388" style="fill:rgb(25,18,37)"/>
<polygon points="838,541 875,477 836,540" style="fill:rgb(140,108,101)"/>
<polygon points="902,406 868,361 857,397" style="fill:rgb(173,111,102)"/>
<polygon points="902,406 857,397 901,433" style="fill:rgb(184,131,120)"/>
<polygon points="885,292 901,254 879,255" style="fill:rgb(90,64,67)"/>
<polygon points="745,612 815,575 754,556" style="fill:rgb(51,27,25)"/>
<polygon points="328,136 261,221 347,185" style="fill:rgb(197,164,149)"/>
<polygon points="273,238 246,239 271,288" style="fill:rgb(39,22,31)"/>
<polygon points="901,433 857,397 864,455" style="fill:rgb(192,133,117)"/>
<polygon points="895,201 836,257 879,255" style="fill:rgb(148,97,95)"/>
<polygon points="895,201 810,224 836,257" style="fill:rgb(144,95,94)"/>
<polygon points="801,66 730,35 745,101" style="fill:rgb(138,109,114)"/>
<polygon points="875,477 901,433 864,455" style="fill:rgb(161,109,96)"/>
<polygon points="915,443 901,433 875,477" style="fill:rgb(221,197,198)"/>
<polygon points="857,172 816,111 752,190" style="fill:rgb(83,49,45)"/>
<polygon points="253,217 246,239 261,221" style="fill:rgb(129,102,100)"/>
<polygon points="261,221 246,239 273,238" style="fill:rgb(97,70,72)"/>
<polygon points="902,328 901,254 885,292" style="fill:rgb(72,58,60)"/>
<polygon points="262,126 253,217 261,221" style="fill:rgb(141,110,102)"/>
<polygon points="830,590 856,547 838,541" style="fill:rgb(160,144,148)"/>
<polygon points="838,541 856,547 875,477" style="fill:rgb(189,167,164)"/>
<polygon points="381,94 365,65 328,136" style="fill:rgb(212,182,168)"/>
<polygon points="328,136 296,122 261,221" style="fill:rgb(204,177,160)"/>
<polygon points="463,12 365,65 381,94" style="fill:rgb(200,173,164)"/>
<polygon points="767,0 536,0 613,31" style="fill:rgb(166,144,145)"/>
<polygon points="613,31 536,0 557,66" style="fill:rgb(162,131,134)"/>
<polygon points="483,40 463,12 381,94" style="fill:rgb(180,148,147)"/>
<polygon points="745,612 783,630 815,575" style="fill:rgb(58,38,38)"/>
<polygon points="815,575 830,590 838,541" style="fill:rgb(135,115,118)"/>
<polygon points="595,630 783,630 745,612" style="fill:rgb(76,40,40)"/>
<polygon points="801,66 745,101 767,112" style="fill:rgb(114,84,81)"/>
<polygon points="683,42 746,16 613,31" style="fill:rgb(153,125,127)"/>
<polygon points="798,630 830,590 815,575" style="fill:rgb(120,107,115)"/>
<polygon points="536,0 463,12 483,40" style="fill:rgb(186,155,150)"/>
<polygon points="330,56 296,122 328,136" style="fill:rgb(214,187,172)"/>
<polygon points="929,463 915,443 875,477" style="fill:rgb(226,213,220)"/>
<polygon points="901,433 924,410 902,406" style="fill:rgb(147,113,106)"/>
<polygon points="902,406 924,410 902,328" style="fill:rgb(116,87,87)"/>
<polygon points="977,220 903,219 901,254" style="fill:rgb(42,20,32)"/>
<polygon points="903,219 895,201 879,255" style="fill:rgb(99,59,62)"/>
<polygon points="857,172 823,72 816,111" style="fill:rgb(155,54,40)"/>
<polygon points="981,309 901,254 902,328" style="fill:rgb(10,10,19)"/>
<polygon points="901,254 903,219 879,255" style="fill:rgb(66,45,55)"/>
<polygon points="931,418 924,410 901,433" style="fill:rgb(148,121,118)"/>
<polygon points="249,133 238,212 253,217" style="fill:rgb(103,63,56)"/>
<polygon points="253,217 238,212 246,239" style="fill:rgb(83,50,46)"/>
<polygon points="112,261 113,380 247,287" style="fill:rgb(17,10,13)"/>
<polygon points="783,630 798,630 815,575" style="fill:rgb(95,80,89)"/>
<polygon points="823,72 801,66 816,111" style="fill:rgb(144,76,72)"/>
<polygon points="816,111 801,66 767,112" style="fill:rgb(100,68,66)"/>
<polygon points="938,413 931,418 936,449" style="fill:rgb(59,53,62)"/>
<polygon points="915,443 931,418 901,433" style="fill:rgb(152,126,121)"/>
<polygon points="924,410 938,413 902,328" style="fill:rgb(23,18,29)"/>
<polygon points="262,630 333,630 342,466" style="fill:rgb(8,9,39)"/>
<polygon points="426,556 333,630 458,576" style="fill:rgb(10,10,17)"/>
<polygon points="485,604 333,630 522,630" style="fill:rgb(10,9,15)"/>
<polygon points="365,65 330,56 328,136" style="fill:rgb(223,197,182)"/>
<polygon points="463,12 364,45 365,65" style="fill:rgb(216,191,181)"/>
<polygon points="936,449 931,418 915,443" style="fill:rgb(119,100,100)"/>
<polygon points="931,418 938,413 924,410" style="fill:rgb(106,98,102)"/>
<polygon points="929,463 875,477 928,484" style="fill:rgb(228,219,226)"/>
<polygon points="296,122 274,122 261,221" style="fill:rgb(193,167,150)"/>
<polygon points="282,98 274,122 296,122" style="fill:rgb(185,159,143)"/>
<polygon points="972,111 823,72 857,172" style="fill:rgb(172,40,18)"/>
<polygon points="785,29 746,16 730,35" style="fill:rgb(150,129,134)"/>
<polygon points="928,484 922,514 931,491" style="fill:rgb(148,145,165)"/>
<polygon points="785,29 730,35 801,66" style="fill:rgb(148,122,129)"/>
<polygon points="730,35 746,16 683,42" style="fill:rgb(140,113,113)"/>
<polygon points="929,463 936,449 915,443" style="fill:rgb(59,51,63)"/>
<polygon points="351,35 330,56 364,45" style="fill:rgb(206,186,172)"/>
<polygon points="364,45 330,56 365,65" style="fill:rgb(222,198,184)"/>
<polygon points="282,98 262,126 274,122" style="fill:rgb(139,110,102)"/>
<polygon points="274,122 262,126 261,221" style="fill:rgb(164,138,125)"/>
<polygon points="928,484 875,477 922,514" style="fill:rgb(229,221,230)"/>
<polygon points="929,463 931,491 936,449" style="fill:rgb(58,55,72)"/>
<polygon points="880,580 856,547 830,590" style="fill:rgb(224,220,227)"/>
<polygon points="287,86 282,98 296,122" style="fill:rgb(181,155,144)"/>
<polygon points="348,29 351,35 380,4" style="fill:rgb(148,129,117)"/>
<polygon points="330,56 287,86 296,122" style="fill:rgb(194,171,155)"/>
<polygon points="882,581 880,580 847,630" style="fill:rgb(150,150,162)"/>
<polygon points="823,72 785,29 801,66" style="fill:rgb(151,94,86)"/>
<polygon points="922,514 875,477 856,547" style="fill:rgb(229,221,228)"/>
<polygon points="928,484 931,491 929,463" style="fill:rgb(145,143,159)"/>
<polygon points="327,48 287,86 330,56" style="fill:rgb(146,129,122)"/>
<polygon points="235,127 249,133 262,126" style="fill:rgb(71,17,15)"/>
<polygon points="351,35 327,48 330,56" style="fill:rgb(176,160,150)"/>
<polygon points="278,84 262,126 282,98" style="fill:rgb(96,61,62)"/>
<polygon points="262,126 249,133 253,217" style="fill:rgb(119,80,72)"/>
<polygon points="880,580 922,514 856,547" style="fill:rgb(228,225,233)"/>
<polygon points="847,630 880,580 830,590" style="fill:rgb(225,224,232)"/>
<polygon points="880,580 882,581 922,514" style="fill:rgb(209,208,219)"/>
<polygon points="882,581 924,515 922,514" style="fill:rgb(121,122,135)"/>
<polygon points="922,514 924,515 931,491" style="fill:rgb(64,62,79)"/>
<polygon points="396,0 364,45 463,12" style="fill:rgb(224,205,192)"/>
<polygon points="380,4 351,35 364,45" style="fill:rgb(192,173,157)"/>
<polygon points="351,35 348,29 327,48" style="fill:rgb(125,113,113)"/>
<polygon points="536,0 396,0 463,12" style="fill:rgb(211,191,180)"/>
<polygon points="798,630 847,630 830,590" style="fill:rgb(220,218,225)"/>
<polygon points="396,0 380,4 364,45" style="fill:rgb(200,180,165)"/>
<polygon points="324,31 278,84 327,48" style="fill:rgb(44,34,56)"/>
<polygon points="327,48 278,84 287,86" style="fill:rgb(97,77,86)"/>
<polygon points="287,86 278,84 282,98" style="fill:rgb(123,95,96)"/>
<polygon points="787,0 767,0 785,29" style="fill:rgb(151,82,71)"/>
<polygon points="785,29 767,0 746,16" style="fill:rgb(134,106,106)"/>
<polygon points="746,16 767,0 613,31" style="fill:rgb(160,138,138)"/>
<polygon points="278,84 235,127 262,126" style="fill:rgb(69,21,20)"/>
<polygon points="249,133 235,127 238,212" style="fill:rgb(81,30,26)"/>
<polygon points="348,29 324,31 327,48" style="fill:rgb(39,35,49)"/>
<polygon points="278,84 275,0 235,127" style="fill:rgb(61,13,20)"/>
<polygon points="370,0 324,31 348,29" style="fill:rgb(62,55,62)"/>
<polygon points="396,0 370,0 380,4" style="fill:rgb(133,116,105)"/>
<polygon points="380,4 370,0 348,29" style="fill:rgb(108,94,88)"/>
<polygon points="981,0 787,0 823,72" style="fill:rgb(172,41,16)"/>
<polygon points="823,72 787,0 785,29" style="fill:rgb(159,66,51)"/>
<polygon points="984,426 938,413 936,449" style="fill:rgb(12,16,29)"/>
<polygon points="984,426 981,309 938,413" style="fill:rgb(10,13,28)"/>
<polygon points="938,413 981,309 902,328" style="fill:rgb(8,8,18)"/>
<polygon points="903,219 984,190 895,201" style="fill:rgb(120,31,29)"/>
<polygon points="895,201 972,111 857,172" style="fill:rgb(169,41,21)"/>
<polygon points="268,405 262,630 287,413" style="fill:rgb(10,8,33)"/>
<polygon points="112,630 262,630 268,405" style="fill:rgb(8,7,13)"/>
<polygon points="113,380 268,405 247,287" style="fill:rgb(11,8,11)"/>
<polygon points="1012,421 984,426 1009,508" style="fill:rgb(27,30,59)"/>
<polygon points="1009,508 984,426 936,449" style="fill:rgb(16,19,39)"/>
<polygon points="936,449 931,491 1009,508" style="fill:rgb(42,40,56)"/>
<polygon points="981,309 977,220 901,254" style="fill:rgb(16,15,30)"/>
<polygon points="984,426 1010,319 981,309" style="fill:rgb(20,23,43)"/>
<polygon points="981,309 1010,319 977,220" style="fill:rgb(20,24,42)"/>
<polygon points="1007,201 984,190 977,220" style="fill:rgb(75,31,43)"/>
<polygon points="977,220 984,190 903,219" style="fill:rgb(94,26,32)"/>
<polygon points="1009,508 931,491 924,515" style="fill:rgb(39,37,54)"/>
<polygon points="984,426 1012,421 1010,319" style="fill:rgb(27,29,56)"/>
<polygon points="1009,508 1033,578 1037,556" style="fill:rgb(55,53,74)"/>
<polygon points="370,0 275,0 324,31" style="fill:rgb(18,13,39)"/>
<polygon points="324,31 275,0 278,84" style="fill:rgb(33,12,42)"/>
<polygon points="112,261 246,239 123,205" style="fill:rgb(35,12,13)"/>
<polygon points="112,261 247,287 246,239" style="fill:rgb(24,12,15)"/>
<polygon points="246,239 238,212 123,205" style="fill:rgb(49,14,12)"/>
<polygon points="1010,319 1007,201 977,220" style="fill:rgb(30,29,50)"/>
<polygon points="984,190 972,111 895,201" style="fill:rgb(160,39,23)"/>
<polygon points="1009,508 924,515 1033,578" style="fill:rgb(44,41,60)"/>
<polygon points="996,91 972,111 984,190" style="fill:rgb(131,36,34)"/>
<polygon points="123,205 238,212 235,127" style="fill:rgb(64,14,10)"/>
<polygon points="107,0 123,205 235,127" style="fill:rgb(66,13,10)"/>
<polygon points="1007,201 996,91 984,190" style="fill:rgb(92,34,42)"/>
<polygon points="972,111 981,0 823,72" style="fill:rgb(174,41,17)"/>
<polygon points="1033,578 924,515 882,581" style="fill:rgb(34,32,49)"/>
<polygon points="1009,508 1094,451 1012,421" style="fill:rgb(36,46,77)"/>
<polygon points="1012,421 1092,321 1010,319" style="fill:rgb(35,44,73)"/>
<polygon points="1101,101 1015,86 1007,201" style="fill:rgb(29,30,52)"/>
<polygon points="847,630 1033,578 882,581" style="fill:rgb(30,28,45)"/>
<polygon points="1091,213 1007,201 1010,319" style="fill:rgb(32,37,62)"/>
<polygon points="1007,201 1015,86 996,91" style="fill:rgb(69,33,48)"/>
<polygon points="996,91 981,0 972,111" style="fill:rgb(141,37,27)"/>
<polygon points="1094,451 1009,508 1090,544" style="fill:rgb(40,54,84)"/>
<polygon points="1094,451 1092,321 1012,421" style="fill:rgb(36,51,77)"/>
<polygon points="1090,544 1009,508 1037,556" style="fill:rgb(74,74,98)"/>
<polygon points="33,518 112,630 113,380" style="fill:rgb(17,11,17)"/>
<polygon points="113,380 112,630 268,405" style="fill:rgb(9,8,10)"/>
<polygon points="1113,225 1091,213 1092,321" style="fill:rgb(39,59,77)"/>
<polygon points="1092,321 1091,213 1010,319" style="fill:rgb(32,44,64)"/>
<polygon points="1003,0 981,0 996,91" style="fill:rgb(118,33,34)"/>
<polygon points="1003,0 996,91 1015,86" style="fill:rgb(83,31,38)"/>
<polygon points="26,214 32,325 112,261" style="fill:rgb(31,15,23)"/>
<polygon points="112,261 32,325 113,380" style="fill:rgb(24,13,18)"/>
<polygon points="26,214 112,261 123,205" style="fill:rgb(37,14,18)"/>
<polygon points="1094,451 1123,301 1092,321" style="fill:rgb(50,75,104)"/>
<polygon points="1033,578 1090,544 1037,556" style="fill:rgb(49,47,69)"/>
<polygon points="1094,451 1124,472 1123,301" style="fill:rgb(57,90,121)"/>
<polygon points="1020,0 1003,0 1015,86" style="fill:rgb(58,30,49)"/>
<polygon points="1123,301 1113,225 1092,321" style="fill:rgb(48,75,98)"/>
<polygon points="1091,213 1101,101 1007,201" style="fill:rgb(25,29,46)"/>
<polygon points="31,0 26,214 123,205" style="fill:rgb(50,15,19)"/>
<polygon points="32,325 33,518 113,380" style="fill:rgb(21,13,20)"/>
<polygon points="0,515 33,518 32,325" style="fill:rgb(26,21,36)"/>
<polygon points="1090,544 1124,472 1094,451" style="fill:rgb(52,83,115)"/>
<polygon points="1101,101 1020,0 1015,86" style="fill:rgb(26,27,57)"/>
<polygon points="1109,594 1118,572 1090,544" style="fill:rgb(55,57,80)"/>
<polygon points="1090,544 1124,544 1124,472" style="fill:rgb(64,95,129)"/>
<polygon points="847,630 1073,630 1033,578" style="fill:rgb(28,27,46)"/>
<polygon points="275,0 107,0 235,127" style="fill:rgb(70,13,9)"/>
<polygon points="1145,180 1101,101 1091,213" style="fill:rgb(26,32,48)"/>
<polygon points="1145,180 1091,213 1113,225" style="fill:rgb(38,55,73)"/>
<polygon points="1118,572 1124,544 1090,544" style="fill:rgb(66,66,89)"/>
<polygon points="1109,594 1090,544 1033,578" style="fill:rgb(48,47,68)"/>
<polygon points="1073,630 1109,594 1033,578" style="fill:rgb(29,28,46)"/>
<polygon points="1073,630 1092,630 1109,594" style="fill:rgb(77,76,99)"/>
<polygon points="26,214 0,515 32,325" style="fill:rgb(29,24,41)"/>
<polygon points="33,518 0,630 112,630" style="fill:rgb(18,13,18)"/>
<polygon points="1200,214 1148,202 1123,301" style="fill:rgb(65,99,124)"/>
<polygon points="1123,301 1148,202 1113,225" style="fill:rgb(55,84,108)"/>
<polygon points="1200,214 1123,301 1124,472" style="fill:rgb(71,108,139)"/>
<polygon points="1148,202 1145,180 1113,225" style="fill:rgb(43,65,85)"/>
<polygon points="1118,572 1162,542 1124,544" style="fill:rgb(86,88,117)"/>
<polygon points="1124,544 1162,542 1124,472" style="fill:rgb(78,116,152)"/>
<polygon points="1109,594 1126,586 1118,572" style="fill:rgb(46,46,68)"/>
<polygon points="1092,630 1126,586 1109,594" style="fill:rgb(101,101,124)"/>
<polygon points="1155,141 1132,104 1101,101" style="fill:rgb(36,38,70)"/>
<polygon points="1101,101 1123,0 1020,0" style="fill:rgb(18,20,61)"/>
<polygon points="1200,181 1155,141 1145,180" style="fill:rgb(29,37,51)"/>
<polygon points="1145,180 1155,141 1101,101" style="fill:rgb(29,32,54)"/>
<polygon points="1200,181 1145,180 1148,202" style="fill:rgb(41,59,78)"/>
<polygon points="1200,557 1162,542 1126,586" style="fill:rgb(95,96,123)"/>
<polygon points="1126,586 1162,542 1118,572" style="fill:rgb(45,47,69)"/>
<polygon points="0,515 0,630 33,518" style="fill:rgb(22,18,17)"/>
<polygon points="107,0 31,0 123,205" style="fill:rgb(57,15,15)"/>
<polygon points="26,214 0,0 0,515" style="fill:rgb(34,28,50)"/>
<polygon points="1200,557 1200,214 1124,472" style="fill:rgb(81,119,153)"/>
<polygon points="1200,214 1200,181 1148,202" style="fill:rgb(55,80,103)"/>
<polygon points="1147,6 1123,0 1132,104" style="fill:rgb(35,38,93)"/>
<polygon points="1200,121 1132,104 1155,141" style="fill:rgb(43,45,83)"/>
<polygon points="1132,104 1123,0 1101,101" style="fill:rgb(28,29,76)"/>
<polygon points="1200,630 1200,557 1126,586" style="fill:rgb(121,122,150)"/>
<polygon points="1162,542 1200,557 1124,472" style="fill:rgb(86,118,155)"/>
<polygon points="31,0 0,0 26,214" style="fill:rgb(42,24,38)"/>
<polygon points="1200,181 1200,121 1155,141" style="fill:rgb(30,33,53)"/>
<polygon points="1200,121 1147,6 1132,104" style="fill:rgb(50,54,109)"/>
<polygon points="1092,630 1200,630 1126,586" style="fill:rgb(120,120,149)"/>
<polygon points="1200,121 1200,0 1147,6" style="fill:rgb(53,60,115)"/>
<polygon points="1147,6 1200,0 1123,0" style="fill:rgb(47,51,108)"/>
</svg>