<?xml version="1.0"?>
<svg width="1810" height="1200"
     xmlns="http://www.w3.org/2000/svg"
     shape-rendering="crispEdges">
<polygon points="915,636 911,650 939,683" style="fill:rgb(85,74,87)"/>
<polygon points="760,644 865,697 911,650" style="fill:rgb(115,84,67)"/>
<polygon points="911,650 865,697 939,683" style="fill:rgb(92,59,53)"/>
<polygon points="1020,535 895,552 915,636" style="fill:rgb(57,54,57)"/>
<polygon points="915,636 760,644 911,650" style="fill:rgb(192,179,178)"/>
<polygon points="951,792 1060,705 939,683" style="fill:rgb(92,73,65)"/>
<polygon points="1090,621 1020,535 915,636" style="fill:rgb(42,50,60)"/>
<polygon points="1090,621 915,636 939,683" style="fill:rgb(84,102,119)"/>
<polygon points="865,697 951,792 939,683" style="fill:rgb(90,64,56)"/>
<polygon points="1060,705 1090,621 939,683" style="fill:rgb(157,157,155)"/>
<polygon points="1060,705 1102,671 1090,621" style="fill:rgb(109,97,89)"/>
<polygon points="1020,535 948,476 895,552" style="fill:rgb(123,99,84)"/>
<polygon points="1102,671 1109,595 1090,621" style="fill:rgb(94,115,136)"/>
<polygon points="1090,621 1109,595 1020,535" style="fill:rgb(52,58,67)"/>
<polygon points="1020,535 1082,459 948,476" style="fill:rgb(58,48,47)"/>
<polygon points="951,792 1054,803 1060,705" style="fill:rgb(83,67,60)"/>
<polygon points="1060,705 1110,728 1102,671" style="fill:rgb(63,52,53)"/>
<polygon points="948,476 826,516 895,552" style="fill:rgb(120,102,87)"/>
<polygon points="895,552 796,549 915,636" style="fill:rgb(135,98,68)"/>
<polygon points="826,516 796,549 895,552" style="fill:rgb(96,92,93)"/>
<polygon points="756,620 760,644 915,636" style="fill:rgb(120,114,117)"/>
<polygon points="814,796 922,837 951,792" style="fill:rgb(124,136,162)"/>
<polygon points="1054,803 1110,728 1060,705" style="fill:rgb(65,52,51)"/>
<polygon points="1102,671 1191,634 1109,595" style="fill:rgb(81,97,120)"/>
<polygon points="814,796 951,792 865,697" style="fill:rgb(85,59,57)"/>
<polygon points="951,792 922,837 995,820" style="fill:rgb(185,181,186)"/>
<polygon points="995,820 1054,803 951,792" style="fill:rgb(199,192,197)"/>
<polygon points="706,641 754,657 760,644" style="fill:rgb(172,170,177)"/>
<polygon points="760,644 754,657 865,697" style="fill:rgb(98,75,64)"/>
<polygon points="796,549 756,620 915,636" style="fill:rgb(92,77,74)"/>
<polygon points="754,657 814,796 865,697" style="fill:rgb(51,38,44)"/>
<polygon points="995,820 1065,819 1054,803" style="fill:rgb(135,134,147)"/>
<polygon points="1054,803 1141,816 1110,728" style="fill:rgb(85,62,59)"/>
<polygon points="1125,830 1065,819 1101,866" style="fill:rgb(186,181,187)"/>
<polygon points="678,803 814,822 814,796" style="fill:rgb(135,149,172)"/>
<polygon points="814,796 814,822 922,837" style="fill:rgb(120,141,177)"/>
<polygon points="1141,816 1146,745 1110,728" style="fill:rgb(173,127,88)"/>
<polygon points="1110,728 1164,718 1102,671" style="fill:rgb(164,120,91)"/>
<polygon points="823,416 805,474 826,516" style="fill:rgb(185,165,139)"/>
<polygon points="826,516 805,474 796,549" style="fill:rgb(101,94,91)"/>
<polygon points="689,619 706,641 756,620" style="fill:rgb(137,137,146)"/>
<polygon points="814,822 824,844 922,837" style="fill:rgb(112,133,171)"/>
<polygon points="1146,745 1164,718 1110,728" style="fill:rgb(236,220,207)"/>
<polygon points="689,619 756,620 687,567" style="fill:rgb(41,47,63)"/>
<polygon points="756,620 706,641 760,644" style="fill:rgb(92,89,98)"/>
<polygon points="754,657 678,803 814,796" style="fill:rgb(54,42,45)"/>
<polygon points="814,822 765,913 824,844" style="fill:rgb(52,62,76)"/>
<polygon points="1165,462 1082,459 1109,595" style="fill:rgb(122,116,113)"/>
<polygon points="1109,595 1082,459 1020,535" style="fill:rgb(49,49,56)"/>
<polygon points="948,476 823,416 826,516" style="fill:rgb(77,79,77)"/>
<polygon points="1164,718 1189,661 1102,671" style="fill:rgb(189,169,157)"/>
<polygon points="1189,661 1191,634 1102,671" style="fill:rgb(72,77,92)"/>
<polygon points="1101,866 1065,819 1087,918" style="fill:rgb(119,113,115)"/>
<polygon points="1065,819 1141,816 1054,803" style="fill:rgb(79,86,104)"/>
<polygon points="1232,760 1226,730 1164,718" style="fill:rgb(192,194,196)"/>
<polygon points="1164,718 1226,730 1189,661" style="fill:rgb(82,75,78)"/>
<polygon points="954,907 995,820 922,837" style="fill:rgb(92,81,76)"/>
<polygon points="1065,401 950,396 948,476" style="fill:rgb(127,125,128)"/>
<polygon points="916,908 954,907 922,837" style="fill:rgb(41,51,69)"/>
<polygon points="687,567 756,620 796,549" style="fill:rgb(45,46,58)"/>
<polygon points="706,641 678,653 754,657" style="fill:rgb(201,194,196)"/>
<polygon points="1125,830 1141,816 1065,819" style="fill:rgb(151,157,171)"/>
<polygon points="824,844 916,908 922,837" style="fill:rgb(40,45,59)"/>
<polygon points="950,396 823,416 948,476" style="fill:rgb(102,102,111)"/>
<polygon points="684,474 687,567 796,549" style="fill:rgb(99,93,93)"/>
<polygon points="689,619 678,653 706,641" style="fill:rgb(93,104,134)"/>
<polygon points="1002,936 1065,819 995,820" style="fill:rgb(21,27,43)"/>
<polygon points="1125,830 1196,834 1141,816" style="fill:rgb(219,220,227)"/>
<polygon points="684,474 796,549 805,474" style="fill:rgb(62,60,66)"/>
<polygon points="689,619 614,633 678,653" style="fill:rgb(126,126,139)"/>
<polygon points="1181,405 1065,401 1082,459" style="fill:rgb(124,126,132)"/>
<polygon points="1082,459 1065,401 948,476" style="fill:rgb(89,84,85)"/>
<polygon points="916,908 915,937 954,907" style="fill:rgb(148,162,191)"/>
<polygon points="954,907 1002,936 995,820" style="fill:rgb(38,47,58)"/>
<polygon points="765,913 915,937 916,908" style="fill:rgb(154,167,194)"/>
<polygon points="915,937 1002,936 954,907" style="fill:rgb(151,163,194)"/>
<polygon points="1227,574 1165,462 1109,595" style="fill:rgb(71,72,77)"/>
<polygon points="1232,760 1164,718 1146,745" style="fill:rgb(244,242,240)"/>
<polygon points="1304,644 1301,620 1191,634" style="fill:rgb(57,48,56)"/>
<polygon points="1191,634 1227,574 1109,595" style="fill:rgb(119,133,153)"/>
<polygon points="1232,760 1146,745 1231,777" style="fill:rgb(236,233,232)"/>
<polygon points="820,294 812,388 950,396" style="fill:rgb(182,182,183)"/>
<polygon points="950,396 812,388 823,416" style="fill:rgb(119,123,137)"/>
<polygon points="823,416 812,388 805,474" style="fill:rgb(101,107,128)"/>
<polygon points="1301,620 1227,574 1191,634" style="fill:rgb(74,86,107)"/>
<polygon points="1002,936 1087,918 1065,819" style="fill:rgb(45,50,60)"/>
<polygon points="1101,866 1142,891 1125,830" style="fill:rgb(97,74,59)"/>
<polygon points="678,653 678,803 754,657" style="fill:rgb(64,52,51)"/>
<polygon points="774,963 911,958 915,937" style="fill:rgb(76,70,78)"/>
<polygon points="765,913 916,908 824,844" style="fill:rgb(43,52,67)"/>
<polygon points="915,937 911,958 1002,936" style="fill:rgb(60,53,64)"/>
<polygon points="1002,936 998,1003 1087,918" style="fill:rgb(21,21,33)"/>
<polygon points="1210,817 1146,745 1141,816" style="fill:rgb(122,103,87)"/>
<polygon points="1304,644 1191,634 1189,661" style="fill:rgb(35,39,51)"/>
<polygon points="1087,918 1142,891 1101,866" style="fill:rgb(148,134,112)"/>
<polygon points="1142,891 1196,834 1125,830" style="fill:rgb(111,96,87)"/>
<polygon points="812,388 684,474 805,474" style="fill:rgb(101,105,121)"/>
<polygon points="687,567 614,633 689,619" style="fill:rgb(62,65,75)"/>
<polygon points="1196,834 1210,817 1141,816" style="fill:rgb(212,215,223)"/>
<polygon points="1210,817 1231,777 1146,745" style="fill:rgb(176,132,96)"/>
<polygon points="672,862 765,913 814,822" style="fill:rgb(46,55,67)"/>
<polygon points="547,851 670,826 678,803" style="fill:rgb(46,45,53)"/>
<polygon points="678,803 670,826 814,822" style="fill:rgb(96,118,147)"/>
<polygon points="612,707 678,803 678,653" style="fill:rgb(68,55,53)"/>
<polygon points="600,558 614,633 687,567" style="fill:rgb(123,95,77)"/>
<polygon points="1196,834 1229,826 1210,817" style="fill:rgb(75,76,89)"/>
<polygon points="1210,817 1229,826 1231,777" style="fill:rgb(80,66,64)"/>
<polygon points="1189,661 1226,730 1309,664" style="fill:rgb(79,85,100)"/>
<polygon points="1231,840 1229,826 1196,834" style="fill:rgb(86,86,92)"/>
<polygon points="614,633 612,707 678,653" style="fill:rgb(76,64,61)"/>
<polygon points="686,914 768,944 765,913" style="fill:rgb(148,160,184)"/>
<polygon points="765,913 768,944 915,937" style="fill:rgb(163,176,205)"/>
<polygon points="1318,450 1181,405 1165,462" style="fill:rgb(113,110,113)"/>
<polygon points="1165,462 1181,405 1082,459" style="fill:rgb(96,102,113)"/>
<polygon points="1041,263 820,294 950,396" style="fill:rgb(175,175,176)"/>
<polygon points="547,851 672,862 670,826" style="fill:rgb(37,42,55)"/>
<polygon points="670,826 672,862 814,822" style="fill:rgb(37,51,68)"/>
<polygon points="1224,876 1231,840 1196,834" style="fill:rgb(73,68,71)"/>
<polygon points="1330,786 1232,760 1231,777" style="fill:rgb(225,226,232)"/>
<polygon points="819,1006 889,997 911,958" style="fill:rgb(179,184,197)"/>
<polygon points="911,958 998,1003 1002,936" style="fill:rgb(77,53,52)"/>
<polygon points="678,960 774,963 768,944" style="fill:rgb(76,63,68)"/>
<polygon points="768,944 774,963 915,937" style="fill:rgb(68,63,75)"/>
<polygon points="684,474 600,558 687,567" style="fill:rgb(84,80,86)"/>
<polygon points="471,733 547,851 612,707" style="fill:rgb(69,54,53)"/>
<polygon points="911,1012 998,1003 911,958" style="fill:rgb(137,149,178)"/>
<polygon points="1205,912 1224,876 1142,891" style="fill:rgb(229,228,229)"/>
<polygon points="1142,891 1224,876 1196,834" style="fill:rgb(103,88,86)"/>
<polygon points="1304,644 1189,661 1309,664" style="fill:rgb(132,132,144)"/>
<polygon points="1227,574 1318,450 1165,462" style="fill:rgb(61,59,62)"/>
<polygon points="1226,730 1338,766 1309,664" style="fill:rgb(40,47,60)"/>
<polygon points="1205,912 1142,891 1203,979" style="fill:rgb(221,167,113)"/>
<polygon points="1226,730 1232,760 1338,766" style="fill:rgb(124,127,136)"/>
<polygon points="1231,777 1229,826 1314,816" style="fill:rgb(152,125,109)"/>
<polygon points="900,1045 911,1012 889,997" style="fill:rgb(77,76,76)"/>
<polygon points="889,997 911,1012 911,958" style="fill:rgb(134,154,186)"/>
<polygon points="1314,816 1229,826 1231,840" style="fill:rgb(208,210,220)"/>
<polygon points="1419,591 1328,571 1301,620" style="fill:rgb(110,116,120)"/>
<polygon points="672,862 686,914 765,913" style="fill:rgb(40,49,63)"/>
<polygon points="676,947 686,914 557,891" style="fill:rgb(126,136,156)"/>
<polygon points="1203,979 1142,891 1141,1023" style="fill:rgb(212,166,118)"/>
<polygon points="812,1043 819,1006 743,1038" style="fill:rgb(191,194,206)"/>
<polygon points="774,963 819,1006 911,958" style="fill:rgb(148,168,197)"/>
<polygon points="1041,263 950,396 1065,401" style="fill:rgb(182,179,177)"/>
<polygon points="585,392 605,448 684,474" style="fill:rgb(120,119,127)"/>
<polygon points="684,474 605,448 600,558" style="fill:rgb(74,68,70)"/>
<polygon points="1417,582 1328,571 1419,591" style="fill:rgb(132,131,132)"/>
<polygon points="1301,620 1328,571 1227,574" style="fill:rgb(108,126,145)"/>
<polygon points="585,392 684,474 812,388" style="fill:rgb(117,120,130)"/>
<polygon points="819,1006 900,1045 889,997" style="fill:rgb(64,71,84)"/>
<polygon points="911,1012 900,1045 998,1003" style="fill:rgb(57,63,75)"/>
<polygon points="557,891 686,914 672,862" style="fill:rgb(81,88,101)"/>
<polygon points="686,914 676,947 768,944" style="fill:rgb(170,181,205)"/>
<polygon points="819,1006 812,1043 900,1045" style="fill:rgb(175,181,200)"/>
<polygon points="1181,405 1041,263 1065,401" style="fill:rgb(176,175,173)"/>
<polygon points="1010,1119 1037,1045 998,1003" style="fill:rgb(78,81,98)"/>
<polygon points="998,1003 1037,1045 1087,918" style="fill:rgb(26,29,41)"/>
<polygon points="1315,838 1231,840 1323,859" style="fill:rgb(136,132,124)"/>
<polygon points="1315,838 1314,816 1231,840" style="fill:rgb(224,224,226)"/>
<polygon points="1309,664 1392,686 1304,644" style="fill:rgb(85,88,95)"/>
<polygon points="572,982 678,960 676,947" style="fill:rgb(94,88,100)"/>
<polygon points="676,947 678,960 768,944" style="fill:rgb(72,65,72)"/>
<polygon points="1314,816 1330,786 1231,777" style="fill:rgb(120,100,89)"/>
<polygon points="1330,786 1338,766 1232,760" style="fill:rgb(214,215,222)"/>
<polygon points="733,1019 819,1006 774,963" style="fill:rgb(107,138,183)"/>
<polygon points="1396,821 1400,786 1330,786" style="fill:rgb(75,71,79)"/>
<polygon points="1400,786 1397,765 1338,766" style="fill:rgb(183,190,210)"/>
<polygon points="1323,859 1231,840 1224,876" style="fill:rgb(93,88,86)"/>
<polygon points="1323,859 1224,876 1359,906" style="fill:rgb(130,145,170)"/>
<polygon points="1141,1023 1142,891 1087,918" style="fill:rgb(61,63,69)"/>
<polygon points="1037,1045 1141,1023 1087,918" style="fill:rgb(28,41,62)"/>
<polygon points="678,960 733,1019 774,963" style="fill:rgb(117,135,162)"/>
<polygon points="1328,571 1318,450 1227,574" style="fill:rgb(55,53,59)"/>
<polygon points="1131,139 1038,220 1041,263" style="fill:rgb(120,139,163)"/>
<polygon points="743,1038 813,1064 812,1043" style="fill:rgb(36,46,67)"/>
<polygon points="812,1043 813,1064 900,1045" style="fill:rgb(36,49,74)"/>
<polygon points="900,1045 1010,1119 998,1003" style="fill:rgb(66,59,61)"/>
<polygon points="1359,906 1224,876 1205,912" style="fill:rgb(171,179,197)"/>
<polygon points="1396,821 1330,786 1314,816" style="fill:rgb(94,85,85)"/>
<polygon points="1141,1023 1208,1043 1203,979" style="fill:rgb(127,107,83)"/>
<polygon points="1037,1045 1141,1037 1141,1023" style="fill:rgb(48,71,97)"/>
<polygon points="1078,1086 1141,1037 1037,1045" style="fill:rgb(125,163,214)"/>
<polygon points="722,1049 743,1038 733,1019" style="fill:rgb(145,143,134)"/>
<polygon points="733,1019 743,1038 819,1006" style="fill:rgb(196,202,216)"/>
<polygon points="813,1064 899,1089 900,1045" style="fill:rgb(34,44,63)"/>
<polygon points="1131,139 1041,263 1239,176" style="fill:rgb(118,140,164)"/>
<polygon points="1041,263 1012,203 820,294" style="fill:rgb(136,154,176)"/>
<polygon points="629,255 585,392 812,388" style="fill:rgb(178,180,183)"/>
<polygon points="605,448 498,465 600,558" style="fill:rgb(91,85,87)"/>
<polygon points="471,733 612,707 459,708" style="fill:rgb(123,135,153)"/>
<polygon points="612,707 450,671 459,708" style="fill:rgb(67,67,76)"/>
<polygon points="612,707 547,851 678,803" style="fill:rgb(64,53,55)"/>
<polygon points="678,960 722,1049 733,1019" style="fill:rgb(148,143,143)"/>
<polygon points="1397,765 1392,686 1338,766" style="fill:rgb(51,62,76)"/>
<polygon points="1338,766 1392,686 1309,664" style="fill:rgb(57,62,68)"/>
<polygon points="1328,571 1420,542 1318,450" style="fill:rgb(104,93,87)"/>
<polygon points="1038,220 1012,203 1041,263" style="fill:rgb(179,182,184)"/>
<polygon points="820,294 629,255 812,388" style="fill:rgb(179,179,181)"/>
<polygon points="547,851 557,891 672,862" style="fill:rgb(160,155,169)"/>
<polygon points="635,1071 722,1049 678,960" style="fill:rgb(205,202,205)"/>
<polygon points="743,1038 772,1110 813,1064" style="fill:rgb(136,136,153)"/>
<polygon points="813,1064 883,1106 899,1089" style="fill:rgb(107,132,165)"/>
<polygon points="1010,1119 1078,1086 1037,1045" style="fill:rgb(25,32,53)"/>
<polygon points="772,1110 883,1106 813,1064" style="fill:rgb(97,108,137)"/>
<polygon points="899,1089 1010,1119 900,1045" style="fill:rgb(29,32,44)"/>
<polygon points="1109,1145 1122,1083 1078,1086" style="fill:rgb(48,64,84)"/>
<polygon points="1078,1086 1122,1083 1141,1037" style="fill:rgb(129,167,212)"/>
<polygon points="1141,1037 1208,1043 1141,1023" style="fill:rgb(50,61,67)"/>
<polygon points="1359,906 1372,873 1323,859" style="fill:rgb(147,159,187)"/>
<polygon points="1400,786 1338,766 1330,786" style="fill:rgb(197,204,220)"/>
<polygon points="979,1200 1010,1119 899,1089" style="fill:rgb(21,29,47)"/>
<polygon points="1218,1071 1208,1043 1141,1037" style="fill:rgb(101,132,147)"/>
<polygon points="1396,821 1314,816 1315,838" style="fill:rgb(231,232,237)"/>
<polygon points="1396,821 1315,838 1323,859" style="fill:rgb(182,177,178)"/>
<polygon points="1419,591 1304,644 1392,686" style="fill:rgb(83,70,66)"/>
<polygon points="612,707 614,633 450,671" style="fill:rgb(101,97,101)"/>
<polygon points="496,886 551,942 557,891" style="fill:rgb(189,183,191)"/>
<polygon points="1419,591 1392,686 1544,666" style="fill:rgb(108,75,56)"/>
<polygon points="1419,591 1301,620 1304,644" style="fill:rgb(53,47,56)"/>
<polygon points="1465,737 1392,686 1397,765" style="fill:rgb(61,59,65)"/>
<polygon points="585,392 498,465 605,448" style="fill:rgb(99,104,119)"/>
<polygon points="1359,906 1205,912 1203,979" style="fill:rgb(78,64,62)"/>
<polygon points="1372,873 1396,821 1323,859" style="fill:rgb(91,92,98)"/>
<polygon points="450,671 614,633 600,558" style="fill:rgb(46,54,68)"/>
<polygon points="496,886 557,891 547,851" style="fill:rgb(142,131,143)"/>
<polygon points="557,891 551,942 676,947" style="fill:rgb(183,186,204)"/>
<polygon points="494,862 547,851 471,733" style="fill:rgb(95,68,59)"/>
<polygon points="1335,1033 1359,906 1203,979" style="fill:rgb(70,61,63)"/>
<polygon points="1467,784 1400,786 1465,815" style="fill:rgb(62,59,75)"/>
<polygon points="1105,104 1012,203 1038,220" style="fill:rgb(179,180,183)"/>
<polygon points="1105,104 993,165 1012,203" style="fill:rgb(220,214,201)"/>
<polygon points="1012,203 993,165 820,294" style="fill:rgb(193,188,184)"/>
<polygon points="722,1049 772,1110 743,1038" style="fill:rgb(188,184,180)"/>
<polygon points="1062,1183 1078,1086 1010,1119" style="fill:rgb(24,33,55)"/>
<polygon points="756,1142 772,1110 667,1119" style="fill:rgb(199,200,210)"/>
<polygon points="1583,584 1420,542 1417,582" style="fill:rgb(116,86,71)"/>
<polygon points="1417,582 1420,542 1328,571" style="fill:rgb(89,87,87)"/>
<polygon points="408,572 450,671 600,558" style="fill:rgb(41,40,49)"/>
<polygon points="470,881 494,862 431,799" style="fill:rgb(107,87,78)"/>
<polygon points="496,886 494,862 470,881" style="fill:rgb(169,140,121)"/>
<polygon points="542,952 572,982 551,942" style="fill:rgb(87,68,62)"/>
<polygon points="551,942 572,982 676,947" style="fill:rgb(81,74,82)"/>
<polygon points="496,886 542,952 551,942" style="fill:rgb(217,196,182)"/>
<polygon points="1122,1083 1218,1071 1141,1037" style="fill:rgb(136,181,219)"/>
<polygon points="1208,1043 1335,1033 1203,979" style="fill:rgb(66,61,62)"/>
<polygon points="1157,1135 1218,1071 1122,1083" style="fill:rgb(74,104,128)"/>
<polygon points="494,862 471,733 431,799" style="fill:rgb(118,95,83)"/>
<polygon points="494,862 496,886 547,851" style="fill:rgb(210,202,204)"/>
<polygon points="993,165 629,255 820,294" style="fill:rgb(180,180,184)"/>
<polygon points="371,391 345,475 498,465" style="fill:rgb(109,114,127)"/>
<polygon points="1420,542 1388,410 1318,450" style="fill:rgb(108,103,103)"/>
<polygon points="1318,450 1388,410 1181,405" style="fill:rgb(117,119,125)"/>
<polygon points="577,1053 635,1071 572,982" style="fill:rgb(155,109,81)"/>
<polygon points="572,982 635,1071 678,960" style="fill:rgb(205,194,194)"/>
<polygon points="1062,1183 1010,1119 979,1200" style="fill:rgb(79,99,126)"/>
<polygon points="1062,1183 1109,1145 1078,1086" style="fill:rgb(41,53,70)"/>
<polygon points="667,1119 772,1110 722,1049" style="fill:rgb(233,231,233)"/>
<polygon points="772,1110 859,1200 883,1106" style="fill:rgb(118,132,148)"/>
<polygon points="496,886 470,881 542,952" style="fill:rgb(139,109,95)"/>
<polygon points="547,1026 577,1053 572,982" style="fill:rgb(60,42,41)"/>
<polygon points="431,799 471,733 459,708" style="fill:rgb(68,66,74)"/>
<polygon points="1109,1145 1157,1135 1122,1083" style="fill:rgb(51,71,93)"/>
<polygon points="1400,786 1396,821 1465,815" style="fill:rgb(75,63,70)"/>
<polygon points="1467,784 1397,765 1400,786" style="fill:rgb(151,173,209)"/>
<polygon points="1467,784 1465,737 1397,765" style="fill:rgb(157,159,170)"/>
<polygon points="1567,514 1475,462 1420,542" style="fill:rgb(118,95,78)"/>
<polygon points="304,826 431,799 283,794" style="fill:rgb(72,92,119)"/>
<polygon points="344,561 408,572 345,475" style="fill:rgb(96,93,97)"/>
<polygon points="498,465 408,572 600,558" style="fill:rgb(98,95,95)"/>
<polygon points="283,794 431,799 459,708" style="fill:rgb(37,35,47)"/>
<polygon points="1465,815 1396,821 1372,873" style="fill:rgb(59,64,79)"/>
<polygon points="1465,815 1372,873 1562,868" style="fill:rgb(131,138,153)"/>
<polygon points="566,1134 667,1119 635,1071" style="fill:rgb(165,124,91)"/>
<polygon points="635,1071 667,1119 722,1049" style="fill:rgb(247,245,244)"/>
<polygon points="547,1026 572,982 542,952" style="fill:rgb(75,54,47)"/>
<polygon points="979,1200 899,1089 883,1106" style="fill:rgb(28,36,55)"/>
<polygon points="1109,1145 1205,1200 1157,1135" style="fill:rgb(121,146,188)"/>
<polygon points="521,1047 547,1026 542,952" style="fill:rgb(182,144,117)"/>
<polygon points="1239,176 1041,263 1181,405" style="fill:rgb(174,174,173)"/>
<polygon points="1296,1074 1208,1043 1218,1071" style="fill:rgb(97,133,171)"/>
<polygon points="1296,1074 1335,1033 1208,1043" style="fill:rgb(13,32,62)"/>
<polygon points="1562,868 1372,873 1359,906" style="fill:rgb(139,155,183)"/>
<polygon points="859,1200 772,1110 756,1142" style="fill:rgb(144,146,150)"/>
<polygon points="859,1200 979,1200 883,1106" style="fill:rgb(124,156,196)"/>
<polygon points="1300,1097 1296,1074 1218,1071" style="fill:rgb(111,142,189)"/>
<polygon points="1300,1097 1218,1071 1272,1137" style="fill:rgb(132,156,188)"/>
<polygon points="714,1183 859,1200 756,1142" style="fill:rgb(211,210,213)"/>
<polygon points="626,1200 689,1149 667,1119" style="fill:rgb(149,121,102)"/>
<polygon points="667,1119 689,1149 756,1142" style="fill:rgb(165,149,139)"/>
<polygon points="1388,410 1239,176 1181,405" style="fill:rgb(174,173,170)"/>
<polygon points="1420,542 1475,462 1388,410" style="fill:rgb(70,65,67)"/>
<polygon points="1388,410 1425,274 1239,176" style="fill:rgb(164,167,168)"/>
<polygon points="1567,514 1420,542 1583,584" style="fill:rgb(65,55,53)"/>
<polygon points="1536,692 1392,686 1465,737" style="fill:rgb(68,80,100)"/>
<polygon points="1179,59 1105,104 1131,139" style="fill:rgb(195,197,194)"/>
<polygon points="1131,139 1105,104 1038,220" style="fill:rgb(198,196,190)"/>
<polygon points="993,165 450,155 629,255" style="fill:rgb(194,194,188)"/>
<polygon points="1272,1137 1218,1071 1157,1135" style="fill:rgb(48,69,99)"/>
<polygon points="1296,1074 1384,1067 1335,1033" style="fill:rgb(26,42,69)"/>
<polygon points="1335,1033 1384,1067 1359,906" style="fill:rgb(45,44,55)"/>
<polygon points="547,1026 521,1047 577,1053" style="fill:rgb(100,71,56)"/>
<polygon points="577,1053 566,1134 635,1071" style="fill:rgb(160,120,89)"/>
<polygon points="470,881 521,1047 542,952" style="fill:rgb(115,94,83)"/>
<polygon points="447,1084 521,1047 470,881" style="fill:rgb(93,72,62)"/>
<polygon points="689,1149 714,1183 756,1142" style="fill:rgb(238,235,234)"/>
<polygon points="626,1200 714,1183 689,1149" style="fill:rgb(129,109,95)"/>
<polygon points="1105,104 1075,88 993,165" style="fill:rgb(155,189,204)"/>
<polygon points="304,826 408,878 431,799" style="fill:rgb(86,88,94)"/>
<polygon points="431,799 408,878 470,881" style="fill:rgb(87,80,80)"/>
<polygon points="1261,1177 1272,1137 1157,1135" style="fill:rgb(106,136,180)"/>
<polygon points="1592,758 1465,737 1467,784" style="fill:rgb(137,147,168)"/>
<polygon points="1592,758 1536,692 1465,737" style="fill:rgb(61,69,77)"/>
<polygon points="1536,692 1544,666 1392,686" style="fill:rgb(165,159,161)"/>
<polygon points="345,475 408,572 498,465" style="fill:rgb(63,66,78)"/>
<polygon points="408,572 344,561 450,671" style="fill:rgb(33,35,48)"/>
<polygon points="1385,1085 1384,1067 1300,1097" style="fill:rgb(61,62,87)"/>
<polygon points="1300,1097 1384,1067 1296,1074" style="fill:rgb(106,106,123)"/>
<polygon points="1465,815 1591,799 1467,784" style="fill:rgb(111,124,163)"/>
<polygon points="979,1200 1205,1200 1062,1183" style="fill:rgb(104,87,81)"/>
<polygon points="1062,1183 1205,1200 1109,1145" style="fill:rgb(64,62,74)"/>
<polygon points="1325,1140 1385,1085 1300,1097" style="fill:rgb(144,172,211)"/>
<polygon points="447,1084 566,1134 521,1047" style="fill:rgb(80,63,51)"/>
<polygon points="521,1047 566,1134 577,1053" style="fill:rgb(66,52,45)"/>
<polygon points="1564,405 1388,410 1475,462" style="fill:rgb(122,118,116)"/>
<polygon points="1564,405 1425,274 1388,410" style="fill:rgb(167,167,165)"/>
<polygon points="1239,176 1179,59 1131,139" style="fill:rgb(118,142,171)"/>
<polygon points="1105,104 1179,59 1075,88" style="fill:rgb(150,187,205)"/>
<polygon points="1205,1200 1261,1177 1157,1135" style="fill:rgb(138,164,205)"/>
<polygon points="1325,1140 1300,1097 1272,1137" style="fill:rgb(122,163,219)"/>
<polygon points="1574,890 1562,868 1359,906" style="fill:rgb(108,129,156)"/>
<polygon points="1327,1161 1325,1140 1272,1137" style="fill:rgb(130,169,218)"/>
<polygon points="1425,274 1320,159 1239,176" style="fill:rgb(172,173,172)"/>
<polygon points="371,391 498,465 585,392" style="fill:rgb(116,120,133)"/>
<polygon points="364,367 371,391 585,392" style="fill:rgb(162,164,174)"/>
<polygon points="566,1134 626,1200 667,1119" style="fill:rgb(117,92,70)"/>
<polygon points="714,1183 626,1200 859,1200" style="fill:rgb(178,170,169)"/>
<polygon points="1310,71 1179,59 1239,176" style="fill:rgb(157,166,179)"/>
<polygon points="1446,1163 1327,1161 1492,1200" style="fill:rgb(41,48,70)"/>
<polygon points="1261,1177 1327,1161 1272,1137" style="fill:rgb(123,145,173)"/>
<polygon points="1325,1140 1417,1136 1385,1085" style="fill:rgb(152,179,216)"/>
<polygon points="1583,584 1417,582 1419,591" style="fill:rgb(185,173,170)"/>
<polygon points="1544,666 1583,596 1419,591" style="fill:rgb(100,72,53)"/>
<polygon points="1629,675 1583,596 1544,666" style="fill:rgb(90,71,60)"/>
<polygon points="1619,708 1544,666 1536,692" style="fill:rgb(176,174,177)"/>
<polygon points="1583,596 1583,584 1419,591" style="fill:rgb(197,189,186)"/>
<polygon points="406,233 364,367 585,392" style="fill:rgb(186,185,186)"/>
<polygon points="371,391 299,437 345,475" style="fill:rgb(89,99,115)"/>
<polygon points="1477,1048 1384,1067 1451,1096" style="fill:rgb(163,175,186)"/>
<polygon points="1477,1048 1359,906 1384,1067" style="fill:rgb(47,47,56)"/>
<polygon points="408,878 447,1084 470,881" style="fill:rgb(55,48,53)"/>
<polygon points="566,1134 507,1200 626,1200" style="fill:rgb(95,75,57)"/>
<polygon points="369,1078 447,1084 408,878" style="fill:rgb(71,70,81)"/>
<polygon points="1591,799 1592,758 1467,784" style="fill:rgb(100,116,153)"/>
<polygon points="1583,596 1636,514 1583,584" style="fill:rgb(68,67,73)"/>
<polygon points="283,794 450,671 265,646" style="fill:rgb(64,56,59)"/>
<polygon points="283,794 459,708 450,671" style="fill:rgb(43,37,47)"/>
<polygon points="304,826 328,902 408,878" style="fill:rgb(69,57,56)"/>
<polygon points="1590,825 1591,799 1465,815" style="fill:rgb(216,209,214)"/>
<polygon points="1451,1096 1384,1067 1385,1085" style="fill:rgb(149,133,125)"/>
<polygon points="1567,514 1564,405 1475,462" style="fill:rgb(132,114,93)"/>
<polygon points="1425,274 1420,166 1320,159" style="fill:rgb(151,160,172)"/>
<polygon points="1598,438 1564,405 1567,514" style="fill:rgb(162,147,126)"/>
<polygon points="1562,868 1590,825 1465,815" style="fill:rgb(127,94,97)"/>
<polygon points="1574,890 1590,825 1562,868" style="fill:rgb(98,82,87)"/>
<polygon points="1477,1048 1574,890 1359,906" style="fill:rgb(61,51,55)"/>
<polygon points="265,646 450,671 344,561" style="fill:rgb(52,56,66)"/>
<polygon points="260,949 291,1000 328,902" style="fill:rgb(72,72,74)"/>
<polygon points="267,632 344,561 226,537" style="fill:rgb(40,47,58)"/>
<polygon points="1417,1136 1451,1096 1385,1085" style="fill:rgb(149,144,143)"/>
<polygon points="1477,1048 1586,960 1574,890" style="fill:rgb(55,46,49)"/>
<polygon points="226,537 344,561 345,475" style="fill:rgb(68,66,82)"/>
<polygon points="267,632 265,646 344,561" style="fill:rgb(36,49,67)"/>
<polygon points="1446,1163 1417,1136 1327,1161" style="fill:rgb(54,56,74)"/>
<polygon points="1327,1161 1417,1136 1325,1140" style="fill:rgb(56,46,59)"/>
<polygon points="364,367 299,437 371,391" style="fill:rgb(124,130,146)"/>
<polygon points="1629,675 1619,708 1661,754" style="fill:rgb(163,167,163)"/>
<polygon points="1661,754 1592,758 1658,774" style="fill:rgb(51,51,61)"/>
<polygon points="1661,754 1619,708 1592,758" style="fill:rgb(117,128,139)"/>
<polygon points="1592,758 1619,708 1536,692" style="fill:rgb(118,111,95)"/>
<polygon points="1623,494 1598,438 1567,514" style="fill:rgb(99,100,98)"/>
<polygon points="629,255 406,233 585,392" style="fill:rgb(182,183,186)"/>
<polygon points="233,360 238,440 299,437" style="fill:rgb(113,116,131)"/>
<polygon points="450,155 406,233 629,255" style="fill:rgb(143,162,181)"/>
<polygon points="450,155 993,165 1075,88" style="fill:rgb(176,195,200)"/>
<polygon points="1438,132 1420,166 1574,161" style="fill:rgb(131,152,175)"/>
<polygon points="1320,159 1310,71 1239,176" style="fill:rgb(158,166,178)"/>
<polygon points="1592,758 1591,799 1658,774" style="fill:rgb(72,81,101)"/>
<polygon points="1619,708 1629,675 1544,666" style="fill:rgb(131,137,145)"/>
<polygon points="1438,132 1310,71 1320,159" style="fill:rgb(98,133,172)"/>
<polygon points="1623,494 1567,514 1636,514" style="fill:rgb(152,157,168)"/>
<polygon points="1555,253 1420,166 1425,274" style="fill:rgb(120,144,166)"/>
<polygon points="1636,514 1567,514 1583,584" style="fill:rgb(44,42,50)"/>
<polygon points="158,76 450,155 1075,88" style="fill:rgb(176,192,200)"/>
<polygon points="436,1189 507,1200 447,1084" style="fill:rgb(38,44,63)"/>
<polygon points="447,1084 507,1200 566,1134" style="fill:rgb(109,89,72)"/>
<polygon points="1705,666 1636,514 1583,596" style="fill:rgb(73,72,68)"/>
<polygon points="1623,494 1688,506 1598,438" style="fill:rgb(60,64,75)"/>
<polygon points="1552,1053 1586,960 1477,1048" style="fill:rgb(34,36,48)"/>
<polygon points="1658,774 1591,799 1662,804" style="fill:rgb(107,139,192)"/>
<polygon points="1552,1053 1477,1048 1561,1085" style="fill:rgb(31,42,63)"/>
<polygon points="309,1040 369,1078 328,902" style="fill:rgb(109,97,86)"/>
<polygon points="328,902 369,1078 408,878" style="fill:rgb(55,46,48)"/>
<polygon points="1492,1200 1327,1161 1261,1177" style="fill:rgb(108,111,127)"/>
<polygon points="1417,1136 1446,1163 1451,1096" style="fill:rgb(129,150,172)"/>
<polygon points="1555,253 1425,274 1564,405" style="fill:rgb(150,156,160)"/>
<polygon points="1420,166 1438,132 1320,159" style="fill:rgb(113,141,173)"/>
<polygon points="1591,799 1590,825 1662,804" style="fill:rgb(214,213,226)"/>
<polygon points="1705,666 1688,506 1636,514" style="fill:rgb(47,51,58)"/>
<polygon points="1662,804 1590,825 1670,832" style="fill:rgb(237,228,230)"/>
<polygon points="299,437 226,537 345,475" style="fill:rgb(52,47,58)"/>
<polygon points="267,632 82,645 265,646" style="fill:rgb(127,144,167)"/>
<polygon points="223,852 304,826 283,794" style="fill:rgb(123,122,130)"/>
<polygon points="238,440 226,537 299,437" style="fill:rgb(39,38,47)"/>
<polygon points="299,437 364,367 233,360" style="fill:rgb(129,133,149)"/>
<polygon points="1561,1085 1477,1048 1451,1096" style="fill:rgb(113,138,171)"/>
<polygon points="1670,832 1590,825 1574,890" style="fill:rgb(123,76,72)"/>
<polygon points="1781,412 1564,405 1598,438" style="fill:rgb(131,132,132)"/>
<polygon points="1781,412 1555,253 1564,405" style="fill:rgb(160,160,158)"/>
<polygon points="1670,832 1574,890 1716,939" style="fill:rgb(136,73,64)"/>
<polygon points="1810,772 1810,747 1661,754" style="fill:rgb(45,53,71)"/>
<polygon points="233,360 364,367 266,258" style="fill:rgb(190,188,189)"/>
<polygon points="381,1158 436,1189 447,1084" style="fill:rgb(66,47,46)"/>
<polygon points="260,949 328,902 223,852" style="fill:rgb(51,40,44)"/>
<polygon points="369,1078 381,1158 447,1084" style="fill:rgb(46,54,75)"/>
<polygon points="328,902 304,826 223,852" style="fill:rgb(95,72,68)"/>
<polygon points="291,1000 309,1040 328,902" style="fill:rgb(92,86,79)"/>
<polygon points="223,852 283,794 139,819" style="fill:rgb(113,118,135)"/>
<polygon points="251,1037 328,1127 309,1040" style="fill:rgb(109,129,169)"/>
<polygon points="139,819 283,794 265,646" style="fill:rgb(74,64,65)"/>
<polygon points="1716,939 1574,890 1586,960" style="fill:rgb(113,62,51)"/>
<polygon points="1810,747 1705,666 1661,754" style="fill:rgb(142,161,181)"/>
<polygon points="1705,666 1583,596 1629,675" style="fill:rgb(73,74,74)"/>
<polygon points="1565,1118 1561,1085 1451,1096" style="fill:rgb(54,62,88)"/>
<polygon points="1552,1053 1647,1047 1586,960" style="fill:rgb(41,51,65)"/>
<polygon points="328,1127 381,1158 369,1078" style="fill:rgb(127,137,167)"/>
<polygon points="1705,666 1629,675 1661,754" style="fill:rgb(105,121,138)"/>
<polygon points="1636,514 1688,506 1623,494" style="fill:rgb(113,132,165)"/>
<polygon points="1810,674 1705,666 1810,747" style="fill:rgb(136,148,155)"/>
<polygon points="1711,87 1339,0 1438,132" style="fill:rgb(141,170,187)"/>
<polygon points="1438,132 1339,0 1310,71" style="fill:rgb(143,174,191)"/>
<polygon points="1310,71 1339,0 1179,59" style="fill:rgb(138,172,191)"/>
<polygon points="1179,59 0,0 1075,88" style="fill:rgb(154,184,204)"/>
<polygon points="266,258 364,367 406,233" style="fill:rgb(185,183,186)"/>
<polygon points="238,440 102,512 226,537" style="fill:rgb(124,118,115)"/>
<polygon points="1205,1200 1492,1200 1261,1177" style="fill:rgb(157,170,202)"/>
<polygon points="1535,1165 1565,1118 1451,1096" style="fill:rgb(138,155,187)"/>
<polygon points="251,1037 309,1040 291,1000" style="fill:rgb(197,192,198)"/>
<polygon points="309,1040 328,1127 369,1078" style="fill:rgb(84,83,91)"/>
<polygon points="1535,1165 1451,1096 1446,1163" style="fill:rgb(47,58,75)"/>
<polygon points="1625,1093 1647,1047 1552,1053" style="fill:rgb(192,196,195)"/>
<polygon points="450,155 266,258 406,233" style="fill:rgb(216,205,194)"/>
<polygon points="1492,1200 1535,1165 1446,1163" style="fill:rgb(38,47,64)"/>
<polygon points="223,852 196,899 260,949" style="fill:rgb(89,56,55)"/>
<polygon points="226,1002 251,1037 291,1000" style="fill:rgb(173,164,166)"/>
<polygon points="139,819 196,899 223,852" style="fill:rgb(86,83,91)"/>
<polygon points="139,819 265,646 82,645" style="fill:rgb(46,50,61)"/>
<polygon points="226,1002 291,1000 260,949" style="fill:rgb(68,63,66)"/>
<polygon points="196,899 219,977 260,949" style="fill:rgb(122,126,146)"/>
<polygon points="189,1001 226,1002 219,977" style="fill:rgb(60,62,75)"/>
<polygon points="219,977 226,1002 260,949" style="fill:rgb(76,77,89)"/>
<polygon points="1711,87 1574,161 1810,163" style="fill:rgb(153,170,181)"/>
<polygon points="1555,253 1574,161 1420,166" style="fill:rgb(176,178,178)"/>
<polygon points="1535,1165 1600,1117 1565,1118" style="fill:rgb(160,173,203)"/>
<polygon points="1565,1118 1600,1117 1561,1085" style="fill:rgb(99,85,90)"/>
<polygon points="1625,1093 1600,1117 1644,1158" style="fill:rgb(71,83,104)"/>
<polygon points="1625,1093 1552,1053 1561,1085" style="fill:rgb(151,137,112)"/>
<polygon points="1661,754 1658,774 1810,772" style="fill:rgb(54,59,79)"/>
<polygon points="1600,1117 1625,1093 1561,1085" style="fill:rgb(58,68,79)"/>
<polygon points="82,645 267,632 226,537" style="fill:rgb(39,49,62)"/>
<polygon points="128,979 189,1001 219,977" style="fill:rgb(53,54,68)"/>
<polygon points="1718,1056 1716,939 1647,1047" style="fill:rgb(50,49,51)"/>
<polygon points="1647,1047 1716,939 1586,960" style="fill:rgb(65,55,54)"/>
<polygon points="128,979 219,977 196,899" style="fill:rgb(117,133,170)"/>
<polygon points="226,1002 189,1001 251,1037" style="fill:rgb(152,147,155)"/>
<polygon points="251,1037 138,1164 328,1127" style="fill:rgb(143,166,209)"/>
<polygon points="1644,1158 1664,1097 1625,1093" style="fill:rgb(108,94,92)"/>
<polygon points="1625,1093 1664,1097 1647,1047" style="fill:rgb(162,170,177)"/>
<polygon points="1644,1158 1600,1117 1535,1165" style="fill:rgb(155,173,209)"/>
<polygon points="81,411 238,440 233,360" style="fill:rgb(118,122,136)"/>
<polygon points="81,411 102,512 238,440" style="fill:rgb(107,109,122)"/>
<polygon points="1810,475 1772,427 1688,506" style="fill:rgb(65,59,62)"/>
<polygon points="1688,506 1772,427 1598,438" style="fill:rgb(72,65,66)"/>
<polygon points="1810,674 1688,506 1705,666" style="fill:rgb(73,80,92)"/>
<polygon points="102,512 82,645 226,537" style="fill:rgb(39,44,56)"/>
<polygon points="139,819 122,912 196,899" style="fill:rgb(61,58,70)"/>
<polygon points="12,858 122,912 139,819" style="fill:rgb(62,49,50)"/>
<polygon points="1662,804 1804,821 1810,772" style="fill:rgb(107,133,165)"/>
<polygon points="1638,1200 1644,1158 1535,1165" style="fill:rgb(51,46,57)"/>
<polygon points="1702,1076 1647,1047 1664,1097" style="fill:rgb(156,165,170)"/>
<polygon points="1658,774 1662,804 1810,772" style="fill:rgb(106,127,164)"/>
<polygon points="1702,1200 1702,1076 1664,1097" style="fill:rgb(249,195,142)"/>
<polygon points="1802,411 1781,412 1772,427" style="fill:rgb(65,61,62)"/>
<polygon points="1772,427 1781,412 1598,438" style="fill:rgb(121,118,116)"/>
<polygon points="1662,804 1670,832 1804,821" style="fill:rgb(195,196,208)"/>
<polygon points="1754,1078 1718,1056 1702,1076" style="fill:rgb(70,85,98)"/>
<polygon points="1702,1076 1718,1056 1647,1047" style="fill:rgb(90,99,106)"/>
<polygon points="1804,821 1670,832 1810,844" style="fill:rgb(200,196,198)"/>
<polygon points="1810,844 1670,832 1716,939" style="fill:rgb(112,72,63)"/>
<polygon points="72,1017 128,979 19,987" style="fill:rgb(41,45,57)"/>
<polygon points="122,912 128,979 196,899" style="fill:rgb(121,135,164)"/>
<polygon points="189,1001 153,1039 251,1037" style="fill:rgb(70,75,93)"/>
<polygon points="130,1002 153,1039 189,1001" style="fill:rgb(156,150,160)"/>
<polygon points="328,1127 138,1164 381,1158" style="fill:rgb(133,151,188)"/>
<polygon points="381,1158 138,1164 436,1189" style="fill:rgb(60,67,89)"/>
<polygon points="72,1017 130,1002 128,979" style="fill:rgb(64,64,79)"/>
<polygon points="128,979 130,1002 189,1001" style="fill:rgb(50,56,72)"/>
<polygon points="1810,674 1810,475 1688,506" style="fill:rgb(74,69,72)"/>
<polygon points="1644,1158 1663,1184 1664,1097" style="fill:rgb(98,96,115)"/>
<polygon points="1492,1200 1638,1200 1535,1165" style="fill:rgb(45,52,71)"/>
<polygon points="1810,917 1810,844 1716,939" style="fill:rgb(116,79,68)"/>
<polygon points="1804,821 1810,844 1810,772" style="fill:rgb(116,133,161)"/>
<polygon points="1810,475 1802,411 1772,427" style="fill:rgb(40,43,53)"/>
<polygon points="1810,163 1574,161 1555,253" style="fill:rgb(158,159,168)"/>
<polygon points="0,637 13,658 82,645" style="fill:rgb(139,133,126)"/>
<polygon points="0,348 81,411 233,360" style="fill:rgb(125,128,144)"/>
<polygon points="1638,1200 1663,1184 1644,1158" style="fill:rgb(98,103,125)"/>
<polygon points="1810,997 1810,917 1716,939" style="fill:rgb(179,152,115)"/>
<polygon points="1810,997 1716,939 1718,1056" style="fill:rgb(209,176,137)"/>
<polygon points="1702,1200 1754,1078 1702,1076" style="fill:rgb(121,84,53)"/>
<polygon points="0,637 82,645 102,512" style="fill:rgb(39,46,59)"/>
<polygon points="82,645 13,658 139,819" style="fill:rgb(65,60,63)"/>
<polygon points="1810,1029 1810,997 1718,1056" style="fill:rgb(228,205,184)"/>
<polygon points="1663,1184 1702,1200 1664,1097" style="fill:rgb(247,201,143)"/>
<polygon points="1754,1078 1810,1029 1718,1056" style="fill:rgb(162,149,125)"/>
<polygon points="1638,1200 1702,1200 1663,1184" style="fill:rgb(231,186,145)"/>
<polygon points="0,452 0,637 102,512" style="fill:rgb(63,64,68)"/>
<polygon points="19,987 128,979 122,912" style="fill:rgb(59,70,86)"/>
<polygon points="12,858 139,819 13,658" style="fill:rgb(97,83,80)"/>
<polygon points="130,1002 72,1017 153,1039" style="fill:rgb(161,159,171)"/>
<polygon points="153,1039 138,1164 251,1037" style="fill:rgb(142,166,211)"/>
<polygon points="1792,1077 1810,1029 1754,1078" style="fill:rgb(221,189,136)"/>
<polygon points="1789,1200 1792,1077 1754,1078" style="fill:rgb(252,204,146)"/>
<polygon points="0,637 12,858 13,658" style="fill:rgb(127,112,96)"/>
<polygon points="1810,163 1555,253 1781,412" style="fill:rgb(148,151,156)"/>
<polygon points="1574,161 1711,87 1438,132" style="fill:rgb(152,174,186)"/>
<polygon points="72,1102 138,1164 153,1039" style="fill:rgb(126,150,196)"/>
<polygon points="436,1189 0,1200 507,1200" style="fill:rgb(95,105,131)"/>
<polygon points="81,411 0,452 102,512" style="fill:rgb(82,86,103)"/>
<polygon points="0,348 0,452 81,411" style="fill:rgb(121,126,140)"/>
<polygon points="450,155 158,76 266,258" style="fill:rgb(189,195,196)"/>
<polygon points="266,258 0,348 233,360" style="fill:rgb(195,191,191)"/>
<polygon points="0,0 158,76 1075,88" style="fill:rgb(165,185,206)"/>
<polygon points="1702,1200 1752,1200 1754,1078" style="fill:rgb(107,74,46)"/>
<polygon points="1792,1077 1810,1200 1810,1029" style="fill:rgb(122,93,56)"/>
<polygon points="19,987 72,1102 72,1017" style="fill:rgb(44,52,72)"/>
<polygon points="72,1017 72,1102 153,1039" style="fill:rgb(122,143,186)"/>
<polygon points="0,934 19,987 122,912" style="fill:rgb(80,81,91)"/>
<polygon points="0,934 122,912 12,858" style="fill:rgb(45,42,49)"/>
<polygon points="0,637 0,934 12,858" style="fill:rgb(99,82,73)"/>
<polygon points="0,186 0,348 266,258" style="fill:rgb(206,199,191)"/>
<polygon points="1802,411 1810,163 1781,412" style="fill:rgb(150,150,150)"/>
<polygon points="1810,475 1810,163 1802,411" style="fill:rgb(138,141,143)"/>
<polygon points="1752,1200 1789,1200 1754,1078" style="fill:rgb(250,195,137)"/>
<polygon points="0,1158 47,1127 19,987" style="fill:rgb(79,96,140)"/>
<polygon points="19,987 47,1127 72,1102" style="fill:rgb(47,59,89)"/>
<polygon points="72,1102 66,1184 138,1164" style="fill:rgb(107,127,171)"/>
<polygon points="47,1127 66,1184 72,1102" style="fill:rgb(79,93,129)"/>
<polygon points="138,1164 66,1184 436,1189" style="fill:rgb(43,59,89)"/>
<polygon points="1789,1200 1810,1200 1792,1077" style="fill:rgb(120,92,54)"/>
<polygon points="158,76 0,186 266,258" style="fill:rgb(192,194,196)"/>
<polygon points="0,934 0,1158 19,987" style="fill:rgb(39,38,55)"/>
<polygon points="47,1127 0,1158 66,1184" style="fill:rgb(88,107,152)"/>
<polygon points="1810,163 1810,0 1711,87" style="fill:rgb(131,157,176)"/>
<polygon points="1711,87 1810,0 1339,0" style="fill:rgb(122,158,181)"/>
<polygon points="0,1158 0,1200 66,1184" style="fill:rgb(28,36,65)"/>
<polygon points="66,1184 0,1200 436,1189" style="fill:rgb(23,32,57)"/>
<polygon points="1339,0 0,0 1179,59" style="fill:rgb(146,179,201)"/>
<polygon points="158,76 0,0 0,186" style="fill:rgb(177,186,197)"/>
</svg>